# Original low-poly nx-3D player model; regenerate with generate.py
mtllib counter_terrorist.mtl
o counter_terrorist
v -7.5000 -30.0000 -4.7500
v -11.0000 -10.0000 -5.5000
v 11.0000 -10.0000 -5.5000
v -7.5000 -30.0000 -4.7500
v 11.0000 -10.0000 -5.5000
v 7.5000 -30.0000 -4.7500
v 7.5000 -30.0000 4.7500
v 11.0000 -10.0000 5.5000
v -11.0000 -10.0000 5.5000
v 7.5000 -30.0000 4.7500
v -11.0000 -10.0000 5.5000
v -7.5000 -30.0000 4.7500
v -7.5000 -30.0000 4.7500
v -11.0000 -10.0000 5.5000
v -11.0000 -10.0000 -5.5000
v -7.5000 -30.0000 4.7500
v -11.0000 -10.0000 -5.5000
v -7.5000 -30.0000 -4.7500
v 7.5000 -30.0000 -4.7500
v 11.0000 -10.0000 -5.5000
v 11.0000 -10.0000 5.5000
v 7.5000 -30.0000 -4.7500
v 11.0000 -10.0000 5.5000
v 7.5000 -30.0000 4.7500
v -11.0000 -10.0000 -5.5000
v -11.0000 -10.0000 5.5000
v 11.0000 -10.0000 5.5000
v -11.0000 -10.0000 -5.5000
v 11.0000 -10.0000 5.5000
v 11.0000 -10.0000 -5.5000
v -7.5000 -30.0000 4.7500
v -7.5000 -30.0000 -4.7500
v 7.5000 -30.0000 -4.7500
v -7.5000 -30.0000 4.7500
v 7.5000 -30.0000 -4.7500
v 7.5000 -30.0000 4.7500
v -8.5000 -34.0000 -5.0000
v -7.5000 -27.0000 -4.5000
v 7.5000 -27.0000 -4.5000
v -8.5000 -34.0000 -5.0000
v 7.5000 -27.0000 -4.5000
v 8.5000 -34.0000 -5.0000
v 8.5000 -34.0000 5.0000
v 7.5000 -27.0000 4.5000
v -7.5000 -27.0000 4.5000
v 8.5000 -34.0000 5.0000
v -7.5000 -27.0000 4.5000
v -8.5000 -34.0000 5.0000
v -8.5000 -34.0000 5.0000
v -7.5000 -27.0000 4.5000
v -7.5000 -27.0000 -4.5000
v -8.5000 -34.0000 5.0000
v -7.5000 -27.0000 -4.5000
v -8.5000 -34.0000 -5.0000
v 8.5000 -34.0000 -5.0000
v 7.5000 -27.0000 -4.5000
v 7.5000 -27.0000 4.5000
v 8.5000 -34.0000 -5.0000
v 7.5000 -27.0000 4.5000
v 8.5000 -34.0000 5.0000
v -7.5000 -27.0000 -4.5000
v -7.5000 -27.0000 4.5000
v 7.5000 -27.0000 4.5000
v -7.5000 -27.0000 -4.5000
v 7.5000 -27.0000 4.5000
v 7.5000 -27.0000 -4.5000
v -8.5000 -34.0000 5.0000
v -8.5000 -34.0000 -5.0000
v 8.5000 -34.0000 -5.0000
v -8.5000 -34.0000 5.0000
v 8.5000 -34.0000 -5.0000
v 8.5000 -34.0000 5.0000
v -8.7500 -29.8500 -5.3500
v -8.7500 -27.1500 -5.3500
v 8.7500 -27.1500 -5.3500
v -8.7500 -29.8500 -5.3500
v 8.7500 -27.1500 -5.3500
v 8.7500 -29.8500 -5.3500
v 8.7500 -29.8500 5.1500
v 8.7500 -27.1500 5.1500
v -8.7500 -27.1500 5.1500
v 8.7500 -29.8500 5.1500
v -8.7500 -27.1500 5.1500
v -8.7500 -29.8500 5.1500
v -8.7500 -29.8500 5.1500
v -8.7500 -27.1500 5.1500
v -8.7500 -27.1500 -5.3500
v -8.7500 -29.8500 5.1500
v -8.7500 -27.1500 -5.3500
v -8.7500 -29.8500 -5.3500
v 8.7500 -29.8500 -5.3500
v 8.7500 -27.1500 -5.3500
v 8.7500 -27.1500 5.1500
v 8.7500 -29.8500 -5.3500
v 8.7500 -27.1500 5.1500
v 8.7500 -29.8500 5.1500
v -8.7500 -27.1500 -5.3500
v -8.7500 -27.1500 5.1500
v 8.7500 -27.1500 5.1500
v -8.7500 -27.1500 -5.3500
v 8.7500 -27.1500 5.1500
v 8.7500 -27.1500 -5.3500
v -8.7500 -29.8500 5.1500
v -8.7500 -29.8500 -5.3500
v 8.7500 -29.8500 -5.3500
v -8.7500 -29.8500 5.1500
v 8.7500 -29.8500 -5.3500
v 8.7500 -29.8500 5.1500
v -1.7500 -29.7500 -5.9500
v -1.7500 -27.0500 -5.9500
v 1.7500 -27.0500 -5.9500
v -1.7500 -29.7500 -5.9500
v 1.7500 -27.0500 -5.9500
v 1.7500 -29.7500 -5.9500
v 1.7500 -29.7500 -5.0500
v 1.7500 -27.0500 -5.0500
v -1.7500 -27.0500 -5.0500
v 1.7500 -29.7500 -5.0500
v -1.7500 -27.0500 -5.0500
v -1.7500 -29.7500 -5.0500
v -1.7500 -29.7500 -5.0500
v -1.7500 -27.0500 -5.0500
v -1.7500 -27.0500 -5.9500
v -1.7500 -29.7500 -5.0500
v -1.7500 -27.0500 -5.9500
v -1.7500 -29.7500 -5.9500
v 1.7500 -29.7500 -5.9500
v 1.7500 -27.0500 -5.9500
v 1.7500 -27.0500 -5.0500
v 1.7500 -29.7500 -5.9500
v 1.7500 -27.0500 -5.0500
v 1.7500 -29.7500 -5.0500
v -1.7500 -27.0500 -5.9500
v -1.7500 -27.0500 -5.0500
v 1.7500 -27.0500 -5.0500
v -1.7500 -27.0500 -5.9500
v 1.7500 -27.0500 -5.0500
v 1.7500 -27.0500 -5.9500
v -1.7500 -29.7500 -5.0500
v -1.7500 -29.7500 -5.9500
v 1.7500 -29.7500 -5.9500
v -1.7500 -29.7500 -5.0500
v 1.7500 -29.7500 -5.9500
v 1.7500 -29.7500 -5.0500
v -8.9926 -32.7544 0.0000
v -7.7818 -32.6246 -2.8921
v -8.0304 -42.6704 -3.2394
v -8.9926 -32.7544 0.0000
v -8.0304 -42.6704 -3.2394
v -9.0935 -42.7844 -0.7000
v -4.9000 -33.0000 0.0000
v -7.7818 -32.6246 -2.8921
v -8.9926 -32.7544 0.0000
v -5.5000 -43.0000 -0.7000
v -9.0935 -42.7844 -0.7000
v -8.0304 -42.6704 -3.2394
v -7.7818 -32.6246 -2.8921
v -4.8829 -32.7147 -4.0900
v -5.4850 -42.7495 -4.2912
v -7.7818 -32.6246 -2.8921
v -5.4850 -42.7495 -4.2912
v -8.0304 -42.6704 -3.2394
v -4.9000 -33.0000 0.0000
v -4.8829 -32.7147 -4.0900
v -7.7818 -32.6246 -2.8921
v -5.5000 -43.0000 -0.7000
v -8.0304 -42.6704 -3.2394
v -5.4850 -42.7495 -4.2912
v -4.8829 -32.7147 -4.0900
v -1.9940 -32.9719 -2.8921
v -2.9484 -42.9753 -3.2394
v -4.8829 -32.7147 -4.0900
v -2.9484 -42.9753 -3.2394
v -5.4850 -42.7495 -4.2912
v -4.9000 -33.0000 0.0000
v -1.9940 -32.9719 -2.8921
v -4.8829 -32.7147 -4.0900
v -5.5000 -43.0000 -0.7000
v -5.4850 -42.7495 -4.2912
v -2.9484 -42.9753 -3.2394
v -1.9940 -32.9719 -2.8921
v -0.8074 -33.2456 -0.0000
v -1.9065 -43.2156 -0.7000
v -1.9940 -32.9719 -2.8921
v -1.9065 -43.2156 -0.7000
v -2.9484 -42.9753 -3.2394
v -4.9000 -33.0000 0.0000
v -0.8074 -33.2456 -0.0000
v -1.9940 -32.9719 -2.8921
v -5.5000 -43.0000 -0.7000
v -2.9484 -42.9753 -3.2394
v -1.9065 -43.2156 -0.7000
v -0.8074 -33.2456 -0.0000
v -2.0182 -33.3754 2.8921
v -2.9696 -43.3296 1.8394
v -0.8074 -33.2456 -0.0000
v -2.9696 -43.3296 1.8394
v -1.9065 -43.2156 -0.7000
v -4.9000 -33.0000 0.0000
v -2.0182 -33.3754 2.8921
v -0.8074 -33.2456 -0.0000
v -5.5000 -43.0000 -0.7000
v -1.9065 -43.2156 -0.7000
v -2.9696 -43.3296 1.8394
v -2.0182 -33.3754 2.8921
v -4.9171 -33.2853 4.0900
v -5.5150 -43.2505 2.8912
v -2.0182 -33.3754 2.8921
v -5.5150 -43.2505 2.8912
v -2.9696 -43.3296 1.8394
v -4.9000 -33.0000 0.0000
v -4.9171 -33.2853 4.0900
v -2.0182 -33.3754 2.8921
v -5.5000 -43.0000 -0.7000
v -2.9696 -43.3296 1.8394
v -5.5150 -43.2505 2.8912
v -4.9171 -33.2853 4.0900
v -7.8060 -33.0281 2.8921
v -8.0516 -43.0247 1.8394
v -4.9171 -33.2853 4.0900
v -8.0516 -43.0247 1.8394
v -5.5150 -43.2505 2.8912
v -4.9000 -33.0000 0.0000
v -7.8060 -33.0281 2.8921
v -4.9171 -33.2853 4.0900
v -5.5000 -43.0000 -0.7000
v -5.5150 -43.2505 2.8912
v -8.0516 -43.0247 1.8394
v -7.8060 -33.0281 2.8921
v -8.9926 -32.7544 0.0000
v -9.0935 -42.7844 -0.7000
v -7.8060 -33.0281 2.8921
v -9.0935 -42.7844 -0.7000
v -8.0516 -43.0247 1.8394
v -4.9000 -33.0000 0.0000
v -8.9926 -32.7544 0.0000
v -7.8060 -33.0281 2.8921
v -5.5000 -43.0000 -0.7000
v -8.0516 -43.0247 1.8394
v -9.0935 -42.7844 -0.7000
v -8.9993 -42.9300 -0.7000
v -7.9773 -43.0987 -3.1704
v -7.6403 -58.0733 -1.6352
v -8.9993 -42.9300 -0.7000
v -7.6403 -58.0733 -1.6352
v -8.3995 -57.9480 0.2000
v -5.5000 -43.0000 -0.7000
v -7.9773 -43.0987 -3.1704
v -8.9993 -42.9300 -0.7000
v -5.8000 -58.0000 0.2000
v -8.3995 -57.9480 0.2000
v -7.6403 -58.0733 -1.6352
v -7.9773 -43.0987 -3.1704
v -5.5042 -43.2095 -4.1937
v -5.8031 -58.1557 -2.3953
v -7.9773 -43.0987 -3.1704
v -5.8031 -58.1557 -2.3953
v -7.6403 -58.0733 -1.6352
v -5.5000 -43.0000 -0.7000
v -5.5042 -43.2095 -4.1937
v -7.9773 -43.0987 -3.1704
v -5.8000 -58.0000 0.2000
v -7.6403 -58.0733 -1.6352
v -5.8031 -58.1557 -2.3953
v -5.5042 -43.2095 -4.1937
v -3.0286 -43.1977 -3.1704
v -3.9641 -58.1468 -1.6352
v -5.5042 -43.2095 -4.1937
v -3.9641 -58.1468 -1.6352
v -5.8031 -58.1557 -2.3953
v -5.5000 -43.0000 -0.7000
v -3.0286 -43.1977 -3.1704
v -5.5042 -43.2095 -4.1937
v -5.8000 -58.0000 0.2000
v -5.8031 -58.1557 -2.3953
v -3.9641 -58.1468 -1.6352
v -3.0286 -43.1977 -3.1704
v -2.0007 -43.0700 -0.7000
v -3.2005 -58.0520 0.2000
v -3.0286 -43.1977 -3.1704
v -3.2005 -58.0520 0.2000
v -3.9641 -58.1468 -1.6352
v -5.5000 -43.0000 -0.7000
v -2.0007 -43.0700 -0.7000
v -3.0286 -43.1977 -3.1704
v -5.8000 -58.0000 0.2000
v -3.9641 -58.1468 -1.6352
v -3.2005 -58.0520 0.2000
v -2.0007 -43.0700 -0.7000
v -3.0227 -42.9013 1.7704
v -3.9597 -57.9267 2.0352
v -2.0007 -43.0700 -0.7000
v -3.9597 -57.9267 2.0352
v -3.2005 -58.0520 0.2000
v -5.5000 -43.0000 -0.7000
v -3.0227 -42.9013 1.7704
v -2.0007 -43.0700 -0.7000
v -5.8000 -58.0000 0.2000
v -3.2005 -58.0520 0.2000
v -3.9597 -57.9267 2.0352
v -3.0227 -42.9013 1.7704
v -5.4958 -42.7905 2.7937
v -5.7969 -57.8443 2.7953
v -3.0227 -42.9013 1.7704
v -5.7969 -57.8443 2.7953
v -3.9597 -57.9267 2.0352
v -5.5000 -43.0000 -0.7000
v -5.4958 -42.7905 2.7937
v -3.0227 -42.9013 1.7704
v -5.8000 -58.0000 0.2000
v -3.9597 -57.9267 2.0352
v -5.7969 -57.8443 2.7953
v -5.4958 -42.7905 2.7937
v -7.9714 -42.8023 1.7704
v -7.6359 -57.8532 2.0352
v -5.4958 -42.7905 2.7937
v -7.6359 -57.8532 2.0352
v -5.7969 -57.8443 2.7953
v -5.5000 -43.0000 -0.7000
v -7.9714 -42.8023 1.7704
v -5.4958 -42.7905 2.7937
v -5.8000 -58.0000 0.2000
v -5.7969 -57.8443 2.7953
v -7.6359 -57.8532 2.0352
v -7.9714 -42.8023 1.7704
v -8.9993 -42.9300 -0.7000
v -8.3995 -57.9480 0.2000
v -7.9714 -42.8023 1.7704
v -8.3995 -57.9480 0.2000
v -7.6359 -57.8532 2.0352
v -5.5000 -43.0000 -0.7000
v -8.9993 -42.9300 -0.7000
v -7.9714 -42.8023 1.7704
v -5.8000 -58.0000 0.2000
v -7.6359 -57.8532 2.0352
v -8.3995 -57.9480 0.2000
v -8.7500 -45.4000 -3.7500
v -8.7500 -40.6000 -3.7500
v -2.2500 -40.6000 -3.7500
v -8.7500 -45.4000 -3.7500
v -2.2500 -40.6000 -3.7500
v -2.2500 -45.4000 -3.7500
v -2.2500 -45.4000 -2.4500
v -2.2500 -40.6000 -2.4500
v -8.7500 -40.6000 -2.4500
v -2.2500 -45.4000 -2.4500
v -8.7500 -40.6000 -2.4500
v -8.7500 -45.4000 -2.4500
v -8.7500 -45.4000 -2.4500
v -8.7500 -40.6000 -2.4500
v -8.7500 -40.6000 -3.7500
v -8.7500 -45.4000 -2.4500
v -8.7500 -40.6000 -3.7500
v -8.7500 -45.4000 -3.7500
v -2.2500 -45.4000 -3.7500
v -2.2500 -40.6000 -3.7500
v -2.2500 -40.6000 -2.4500
v -2.2500 -45.4000 -3.7500
v -2.2500 -40.6000 -2.4500
v -2.2500 -45.4000 -2.4500
v -8.7500 -40.6000 -3.7500
v -8.7500 -40.6000 -2.4500
v -2.2500 -40.6000 -2.4500
v -8.7500 -40.6000 -3.7500
v -2.2500 -40.6000 -2.4500
v -2.2500 -40.6000 -3.7500
v -8.7500 -45.4000 -2.4500
v -8.7500 -45.4000 -3.7500
v -2.2500 -45.4000 -3.7500
v -8.7500 -45.4000 -2.4500
v -2.2500 -45.4000 -3.7500
v -2.2500 -45.4000 -2.4500
v -9.3500 -64.0000 -8.1000
v -9.3500 -56.0000 -8.1000
v -2.2500 -56.0000 -8.1000
v -9.3500 -64.0000 -8.1000
v -2.2500 -56.0000 -8.1000
v -2.2500 -64.0000 -8.1000
v -2.2500 -64.0000 3.9000
v -2.2500 -56.0000 3.9000
v -9.3500 -56.0000 3.9000
v -2.2500 -64.0000 3.9000
v -9.3500 -56.0000 3.9000
v -9.3500 -64.0000 3.9000
v -9.3500 -64.0000 3.9000
v -9.3500 -56.0000 3.9000
v -9.3500 -56.0000 -8.1000
v -9.3500 -64.0000 3.9000
v -9.3500 -56.0000 -8.1000
v -9.3500 -64.0000 -8.1000
v -2.2500 -64.0000 -8.1000
v -2.2500 -56.0000 -8.1000
v -2.2500 -56.0000 3.9000
v -2.2500 -64.0000 -8.1000
v -2.2500 -56.0000 3.9000
v -2.2500 -64.0000 3.9000
v -9.3500 -56.0000 -8.1000
v -9.3500 -56.0000 3.9000
v -2.2500 -56.0000 3.9000
v -9.3500 -56.0000 -8.1000
v -2.2500 -56.0000 3.9000
v -2.2500 -56.0000 -8.1000
v -9.3500 -64.0000 3.9000
v -9.3500 -64.0000 -8.1000
v -2.2500 -64.0000 -8.1000
v -9.3500 -64.0000 3.9000
v -2.2500 -64.0000 -8.1000
v -2.2500 -64.0000 3.9000
v -15.2356 -11.2650 0.0000
v -14.0495 -11.3858 -2.8198
v -16.4196 -21.3886 -3.0558
v -15.2356 -11.2650 0.0000
v -16.4196 -21.3886 -3.0558
v -17.3685 -21.2920 -0.8000
v -11.4000 -12.4000 0.0000
v -14.0495 -11.3858 -2.8198
v -15.2356 -11.2650 0.0000
v -14.3000 -22.2000 -0.8000
v -17.3685 -21.2920 -0.8000
v -16.4196 -21.3886 -3.0558
v -14.0495 -11.3858 -2.8198
v -11.3114 -12.1007 -3.9878
v -14.2291 -21.9605 -3.9902
v -14.0495 -11.3858 -2.8198
v -14.2291 -21.9605 -3.9902
v -16.4196 -21.3886 -3.0558
v -11.4000 -12.4000 0.0000
v -11.3114 -12.1007 -3.9878
v -14.0495 -11.3858 -2.8198
v -14.3000 -22.2000 -0.8000
v -16.4196 -21.3886 -3.0558
v -14.2291 -21.9605 -3.9902
v -11.3114 -12.1007 -3.9878
v -8.6252 -12.9909 -2.8198
v -12.0802 -22.6727 -3.0558
v -11.3114 -12.1007 -3.9878
v -12.0802 -22.6727 -3.0558
v -14.2291 -21.9605 -3.9902
v -11.4000 -12.4000 0.0000
v -8.6252 -12.9909 -2.8198
v -11.3114 -12.1007 -3.9878
v -14.3000 -22.2000 -0.8000
v -14.2291 -21.9605 -3.9902
v -12.0802 -22.6727 -3.0558
v -8.6252 -12.9909 -2.8198
v -7.5644 -13.5350 -0.0000
v -11.2315 -23.1080 -0.8000
v -8.6252 -12.9909 -2.8198
v -11.2315 -23.1080 -0.8000
v -12.0802 -22.6727 -3.0558
v -11.4000 -12.4000 0.0000
v -7.5644 -13.5350 -0.0000
v -8.6252 -12.9909 -2.8198
v -14.3000 -22.2000 -0.8000
v -12.0802 -22.6727 -3.0558
v -11.2315 -23.1080 -0.8000
v -7.5644 -13.5350 -0.0000
v -8.7505 -13.4142 2.8198
v -12.1804 -23.0114 1.4558
v -7.5644 -13.5350 -0.0000
v -12.1804 -23.0114 1.4558
v -11.2315 -23.1080 -0.8000
v -11.4000 -12.4000 0.0000
v -8.7505 -13.4142 2.8198
v -7.5644 -13.5350 -0.0000
v -14.3000 -22.2000 -0.8000
v -11.2315 -23.1080 -0.8000
v -12.1804 -23.0114 1.4558
v -8.7505 -13.4142 2.8198
v -11.4886 -12.6993 3.9878
v -14.3709 -22.4395 2.3902
v -8.7505 -13.4142 2.8198
v -14.3709 -22.4395 2.3902
v -12.1804 -23.0114 1.4558
v -11.4000 -12.4000 0.0000
v -11.4886 -12.6993 3.9878
v -8.7505 -13.4142 2.8198
v -14.3000 -22.2000 -0.8000
v -12.1804 -23.0114 1.4558
v -14.3709 -22.4395 2.3902
v -11.4886 -12.6993 3.9878
v -14.1748 -11.8091 2.8198
v -16.5198 -21.7273 1.4558
v -11.4886 -12.6993 3.9878
v -16.5198 -21.7273 1.4558
v -14.3709 -22.4395 2.3902
v -11.4000 -12.4000 0.0000
v -14.1748 -11.8091 2.8198
v -11.4886 -12.6993 3.9878
v -14.3000 -22.2000 -0.8000
v -14.3709 -22.4395 2.3902
v -16.5198 -21.7273 1.4558
v -14.1748 -11.8091 2.8198
v -15.2356 -11.2650 0.0000
v -17.3685 -21.2920 -0.8000
v -14.1748 -11.8091 2.8198
v -17.3685 -21.2920 -0.8000
v -16.5198 -21.7273 1.4558
v -11.4000 -12.4000 0.0000
v -15.2356 -11.2650 0.0000
v -14.1748 -11.8091 2.8198
v -14.3000 -22.2000 -0.8000
v -16.5198 -21.7273 1.4558
v -17.3685 -21.2920 -0.8000
v -17.3982 -22.0956 -0.8000
v -16.4708 -21.5340 -2.9104
v -16.2106 -30.6059 -4.8658
v -17.3982 -22.0956 -0.8000
v -16.2106 -30.6059 -4.8658
v -16.8987 -31.0225 -3.3000
v -14.3000 -22.2000 -0.8000
v -16.4708 -21.5340 -2.9104
v -17.3982 -22.0956 -0.8000
v -14.6000 -31.1000 -3.3000
v -16.8987 -31.0225 -3.3000
v -16.2106 -30.6059 -4.8658
v -16.4708 -21.5340 -2.9104
v -14.2718 -21.3626 -3.7846
v -14.5791 -30.4787 -5.5144
v -16.4708 -21.5340 -2.9104
v -14.5791 -30.4787 -5.5144
v -16.2106 -30.6059 -4.8658
v -14.3000 -22.2000 -0.8000
v -14.2718 -21.3626 -3.7846
v -16.4708 -21.5340 -2.9104
v -14.6000 -31.1000 -3.3000
v -16.2106 -30.6059 -4.8658
v -14.5791 -30.4787 -5.5144
v -14.2718 -21.3626 -3.7846
v -12.0893 -21.6817 -2.9104
v -12.9598 -30.7155 -4.8658
v -14.2718 -21.3626 -3.7846
v -12.9598 -30.7155 -4.8658
v -14.5791 -30.4787 -5.5144
v -14.3000 -22.2000 -0.8000
v -12.0893 -21.6817 -2.9104
v -14.2718 -21.3626 -3.7846
v -14.6000 -31.1000 -3.3000
v -14.5791 -30.4787 -5.5144
v -12.9598 -30.7155 -4.8658
v -12.0893 -21.6817 -2.9104
v -11.2018 -22.3044 -0.8000
v -12.3013 -31.1775 -3.3000
v -12.0893 -21.6817 -2.9104
v -12.3013 -31.1775 -3.3000
v -12.9598 -30.7155 -4.8658
v -14.3000 -22.2000 -0.8000
v -11.2018 -22.3044 -0.8000
v -12.0893 -21.6817 -2.9104
v -14.6000 -31.1000 -3.3000
v -12.9598 -30.7155 -4.8658
v -12.3013 -31.1775 -3.3000
v -11.2018 -22.3044 -0.8000
v -12.1292 -22.8660 1.3104
v -12.9894 -31.5941 -1.7342
v -11.2018 -22.3044 -0.8000
v -12.9894 -31.5941 -1.7342
v -12.3013 -31.1775 -3.3000
v -14.3000 -22.2000 -0.8000
v -12.1292 -22.8660 1.3104
v -11.2018 -22.3044 -0.8000
v -14.6000 -31.1000 -3.3000
v -12.3013 -31.1775 -3.3000
v -12.9894 -31.5941 -1.7342
v -12.1292 -22.8660 1.3104
v -14.3282 -23.0374 2.1846
v -14.6209 -31.7213 -1.0856
v -12.1292 -22.8660 1.3104
v -14.6209 -31.7213 -1.0856
v -12.9894 -31.5941 -1.7342
v -14.3000 -22.2000 -0.8000
v -14.3282 -23.0374 2.1846
v -12.1292 -22.8660 1.3104
v -14.6000 -31.1000 -3.3000
v -12.9894 -31.5941 -1.7342
v -14.6209 -31.7213 -1.0856
v -14.3282 -23.0374 2.1846
v -16.5107 -22.7183 1.3104
v -16.2402 -31.4845 -1.7342
v -14.3282 -23.0374 2.1846
v -16.2402 -31.4845 -1.7342
v -14.6209 -31.7213 -1.0856
v -14.3000 -22.2000 -0.8000
v -16.5107 -22.7183 1.3104
v -14.3282 -23.0374 2.1846
v -14.6000 -31.1000 -3.3000
v -14.6209 -31.7213 -1.0856
v -16.2402 -31.4845 -1.7342
v -16.5107 -22.7183 1.3104
v -17.3982 -22.0956 -0.8000
v -16.8987 -31.0225 -3.3000
v -16.5107 -22.7183 1.3104
v -16.8987 -31.0225 -3.3000
v -16.2402 -31.4845 -1.7342
v -14.3000 -22.2000 -0.8000
v -17.3982 -22.0956 -0.8000
v -16.5107 -22.7183 1.3104
v -14.6000 -31.1000 -3.3000
v -16.2402 -31.4845 -1.7342
v -16.8987 -31.0225 -3.3000
v -17.0000 -35.1000 -5.8000
v -17.0000 -29.9000 -5.8000
v -12.2000 -29.9000 -5.8000
v -17.0000 -35.1000 -5.8000
v -12.2000 -29.9000 -5.8000
v -12.2000 -35.1000 -5.8000
v -12.2000 -35.1000 -0.8000
v -12.2000 -29.9000 -0.8000
v -17.0000 -29.9000 -0.8000
v -12.2000 -35.1000 -0.8000
v -17.0000 -29.9000 -0.8000
v -17.0000 -35.1000 -0.8000
v -17.0000 -35.1000 -0.8000
v -17.0000 -29.9000 -0.8000
v -17.0000 -29.9000 -5.8000
v -17.0000 -35.1000 -0.8000
v -17.0000 -29.9000 -5.8000
v -17.0000 -35.1000 -5.8000
v -12.2000 -35.1000 -5.8000
v -12.2000 -29.9000 -5.8000
v -12.2000 -29.9000 -0.8000
v -12.2000 -35.1000 -5.8000
v -12.2000 -29.9000 -0.8000
v -12.2000 -35.1000 -0.8000
v -17.0000 -29.9000 -5.8000
v -17.0000 -29.9000 -0.8000
v -12.2000 -29.9000 -0.8000
v -17.0000 -29.9000 -5.8000
v -12.2000 -29.9000 -0.8000
v -12.2000 -29.9000 -5.8000
v -17.0000 -35.1000 -0.8000
v -17.0000 -35.1000 -5.8000
v -12.2000 -35.1000 -5.8000
v -17.0000 -35.1000 -0.8000
v -12.2000 -35.1000 -5.8000
v -12.2000 -35.1000 -0.8000
v 0.8074 -33.2456 0.0000
v 1.9940 -32.9719 -2.8921
v 2.9484 -42.9753 -3.2394
v 0.8074 -33.2456 0.0000
v 2.9484 -42.9753 -3.2394
v 1.9065 -43.2156 -0.7000
v 4.9000 -33.0000 0.0000
v 1.9940 -32.9719 -2.8921
v 0.8074 -33.2456 0.0000
v 5.5000 -43.0000 -0.7000
v 1.9065 -43.2156 -0.7000
v 2.9484 -42.9753 -3.2394
v 1.9940 -32.9719 -2.8921
v 4.8829 -32.7147 -4.0900
v 5.4850 -42.7495 -4.2912
v 1.9940 -32.9719 -2.8921
v 5.4850 -42.7495 -4.2912
v 2.9484 -42.9753 -3.2394
v 4.9000 -33.0000 0.0000
v 4.8829 -32.7147 -4.0900
v 1.9940 -32.9719 -2.8921
v 5.5000 -43.0000 -0.7000
v 2.9484 -42.9753 -3.2394
v 5.4850 -42.7495 -4.2912
v 4.8829 -32.7147 -4.0900
v 7.7818 -32.6246 -2.8921
v 8.0304 -42.6704 -3.2394
v 4.8829 -32.7147 -4.0900
v 8.0304 -42.6704 -3.2394
v 5.4850 -42.7495 -4.2912
v 4.9000 -33.0000 0.0000
v 7.7818 -32.6246 -2.8921
v 4.8829 -32.7147 -4.0900
v 5.5000 -43.0000 -0.7000
v 5.4850 -42.7495 -4.2912
v 8.0304 -42.6704 -3.2394
v 7.7818 -32.6246 -2.8921
v 8.9926 -32.7544 -0.0000
v 9.0935 -42.7844 -0.7000
v 7.7818 -32.6246 -2.8921
v 9.0935 -42.7844 -0.7000
v 8.0304 -42.6704 -3.2394
v 4.9000 -33.0000 0.0000
v 8.9926 -32.7544 -0.0000
v 7.7818 -32.6246 -2.8921
v 5.5000 -43.0000 -0.7000
v 8.0304 -42.6704 -3.2394
v 9.0935 -42.7844 -0.7000
v 8.9926 -32.7544 -0.0000
v 7.8060 -33.0281 2.8921
v 8.0516 -43.0247 1.8394
v 8.9926 -32.7544 -0.0000
v 8.0516 -43.0247 1.8394
v 9.0935 -42.7844 -0.7000
v 4.9000 -33.0000 0.0000
v 7.8060 -33.0281 2.8921
v 8.9926 -32.7544 -0.0000
v 5.5000 -43.0000 -0.7000
v 9.0935 -42.7844 -0.7000
v 8.0516 -43.0247 1.8394
v 7.8060 -33.0281 2.8921
v 4.9171 -33.2853 4.0900
v 5.5150 -43.2505 2.8912
v 7.8060 -33.0281 2.8921
v 5.5150 -43.2505 2.8912
v 8.0516 -43.0247 1.8394
v 4.9000 -33.0000 0.0000
v 4.9171 -33.2853 4.0900
v 7.8060 -33.0281 2.8921
v 5.5000 -43.0000 -0.7000
v 8.0516 -43.0247 1.8394
v 5.5150 -43.2505 2.8912
v 4.9171 -33.2853 4.0900
v 2.0182 -33.3754 2.8921
v 2.9696 -43.3296 1.8394
v 4.9171 -33.2853 4.0900
v 2.9696 -43.3296 1.8394
v 5.5150 -43.2505 2.8912
v 4.9000 -33.0000 0.0000
v 2.0182 -33.3754 2.8921
v 4.9171 -33.2853 4.0900
v 5.5000 -43.0000 -0.7000
v 5.5150 -43.2505 2.8912
v 2.9696 -43.3296 1.8394
v 2.0182 -33.3754 2.8921
v 0.8074 -33.2456 0.0000
v 1.9065 -43.2156 -0.7000
v 2.0182 -33.3754 2.8921
v 1.9065 -43.2156 -0.7000
v 2.9696 -43.3296 1.8394
v 4.9000 -33.0000 0.0000
v 0.8074 -33.2456 0.0000
v 2.0182 -33.3754 2.8921
v 5.5000 -43.0000 -0.7000
v 2.9696 -43.3296 1.8394
v 1.9065 -43.2156 -0.7000
v 2.0007 -43.0700 -0.7000
v 3.0286 -43.1977 -3.1704
v 3.9641 -58.1468 -1.6352
v 2.0007 -43.0700 -0.7000
v 3.9641 -58.1468 -1.6352
v 3.2005 -58.0520 0.2000
v 5.5000 -43.0000 -0.7000
v 3.0286 -43.1977 -3.1704
v 2.0007 -43.0700 -0.7000
v 5.8000 -58.0000 0.2000
v 3.2005 -58.0520 0.2000
v 3.9641 -58.1468 -1.6352
v 3.0286 -43.1977 -3.1704
v 5.5042 -43.2095 -4.1937
v 5.8031 -58.1557 -2.3953
v 3.0286 -43.1977 -3.1704
v 5.8031 -58.1557 -2.3953
v 3.9641 -58.1468 -1.6352
v 5.5000 -43.0000 -0.7000
v 5.5042 -43.2095 -4.1937
v 3.0286 -43.1977 -3.1704
v 5.8000 -58.0000 0.2000
v 3.9641 -58.1468 -1.6352
v 5.8031 -58.1557 -2.3953
v 5.5042 -43.2095 -4.1937
v 7.9773 -43.0987 -3.1704
v 7.6403 -58.0733 -1.6352
v 5.5042 -43.2095 -4.1937
v 7.6403 -58.0733 -1.6352
v 5.8031 -58.1557 -2.3953
v 5.5000 -43.0000 -0.7000
v 7.9773 -43.0987 -3.1704
v 5.5042 -43.2095 -4.1937
v 5.8000 -58.0000 0.2000
v 5.8031 -58.1557 -2.3953
v 7.6403 -58.0733 -1.6352
v 7.9773 -43.0987 -3.1704
v 8.9993 -42.9300 -0.7000
v 8.3995 -57.9480 0.2000
v 7.9773 -43.0987 -3.1704
v 8.3995 -57.9480 0.2000
v 7.6403 -58.0733 -1.6352
v 5.5000 -43.0000 -0.7000
v 8.9993 -42.9300 -0.7000
v 7.9773 -43.0987 -3.1704
v 5.8000 -58.0000 0.2000
v 7.6403 -58.0733 -1.6352
v 8.3995 -57.9480 0.2000
v 8.9993 -42.9300 -0.7000
v 7.9714 -42.8023 1.7704
v 7.6359 -57.8532 2.0352
v 8.9993 -42.9300 -0.7000
v 7.6359 -57.8532 2.0352
v 8.3995 -57.9480 0.2000
v 5.5000 -43.0000 -0.7000
v 7.9714 -42.8023 1.7704
v 8.9993 -42.9300 -0.7000
v 5.8000 -58.0000 0.2000
v 8.3995 -57.9480 0.2000
v 7.6359 -57.8532 2.0352
v 7.9714 -42.8023 1.7704
v 5.4958 -42.7905 2.7937
v 5.7969 -57.8443 2.7953
v 7.9714 -42.8023 1.7704
v 5.7969 -57.8443 2.7953
v 7.6359 -57.8532 2.0352
v 5.5000 -43.0000 -0.7000
v 5.4958 -42.7905 2.7937
v 7.9714 -42.8023 1.7704
v 5.8000 -58.0000 0.2000
v 7.6359 -57.8532 2.0352
v 5.7969 -57.8443 2.7953
v 5.4958 -42.7905 2.7937
v 3.0227 -42.9013 1.7704
v 3.9597 -57.9267 2.0352
v 5.4958 -42.7905 2.7937
v 3.9597 -57.9267 2.0352
v 5.7969 -57.8443 2.7953
v 5.5000 -43.0000 -0.7000
v 3.0227 -42.9013 1.7704
v 5.4958 -42.7905 2.7937
v 5.8000 -58.0000 0.2000
v 5.7969 -57.8443 2.7953
v 3.9597 -57.9267 2.0352
v 3.0227 -42.9013 1.7704
v 2.0007 -43.0700 -0.7000
v 3.2005 -58.0520 0.2000
v 3.0227 -42.9013 1.7704
v 3.2005 -58.0520 0.2000
v 3.9597 -57.9267 2.0352
v 5.5000 -43.0000 -0.7000
v 2.0007 -43.0700 -0.7000
v 3.0227 -42.9013 1.7704
v 5.8000 -58.0000 0.2000
v 3.9597 -57.9267 2.0352
v 3.2005 -58.0520 0.2000
v 2.2500 -45.4000 -3.7500
v 2.2500 -40.6000 -3.7500
v 8.7500 -40.6000 -3.7500
v 2.2500 -45.4000 -3.7500
v 8.7500 -40.6000 -3.7500
v 8.7500 -45.4000 -3.7500
v 8.7500 -45.4000 -2.4500
v 8.7500 -40.6000 -2.4500
v 2.2500 -40.6000 -2.4500
v 8.7500 -45.4000 -2.4500
v 2.2500 -40.6000 -2.4500
v 2.2500 -45.4000 -2.4500
v 2.2500 -45.4000 -2.4500
v 2.2500 -40.6000 -2.4500
v 2.2500 -40.6000 -3.7500
v 2.2500 -45.4000 -2.4500
v 2.2500 -40.6000 -3.7500
v 2.2500 -45.4000 -3.7500
v 8.7500 -45.4000 -3.7500
v 8.7500 -40.6000 -3.7500
v 8.7500 -40.6000 -2.4500
v 8.7500 -45.4000 -3.7500
v 8.7500 -40.6000 -2.4500
v 8.7500 -45.4000 -2.4500
v 2.2500 -40.6000 -3.7500
v 2.2500 -40.6000 -2.4500
v 8.7500 -40.6000 -2.4500
v 2.2500 -40.6000 -3.7500
v 8.7500 -40.6000 -2.4500
v 8.7500 -40.6000 -3.7500
v 2.2500 -45.4000 -2.4500
v 2.2500 -45.4000 -3.7500
v 8.7500 -45.4000 -3.7500
v 2.2500 -45.4000 -2.4500
v 8.7500 -45.4000 -3.7500
v 8.7500 -45.4000 -2.4500
v 2.2500 -64.0000 -8.1000
v 2.2500 -56.0000 -8.1000
v 9.3500 -56.0000 -8.1000
v 2.2500 -64.0000 -8.1000
v 9.3500 -56.0000 -8.1000
v 9.3500 -64.0000 -8.1000
v 9.3500 -64.0000 3.9000
v 9.3500 -56.0000 3.9000
v 2.2500 -56.0000 3.9000
v 9.3500 -64.0000 3.9000
v 2.2500 -56.0000 3.9000
v 2.2500 -64.0000 3.9000
v 2.2500 -64.0000 3.9000
v 2.2500 -56.0000 3.9000
v 2.2500 -56.0000 -8.1000
v 2.2500 -64.0000 3.9000
v 2.2500 -56.0000 -8.1000
v 2.2500 -64.0000 -8.1000
v 9.3500 -64.0000 -8.1000
v 9.3500 -56.0000 -8.1000
v 9.3500 -56.0000 3.9000
v 9.3500 -64.0000 -8.1000
v 9.3500 -56.0000 3.9000
v 9.3500 -64.0000 3.9000
v 2.2500 -56.0000 -8.1000
v 2.2500 -56.0000 3.9000
v 9.3500 -56.0000 3.9000
v 2.2500 -56.0000 -8.1000
v 9.3500 -56.0000 3.9000
v 9.3500 -56.0000 -8.1000
v 2.2500 -64.0000 3.9000
v 2.2500 -64.0000 -8.1000
v 9.3500 -64.0000 -8.1000
v 2.2500 -64.0000 3.9000
v 9.3500 -64.0000 -8.1000
v 9.3500 -64.0000 3.9000
v 7.5644 -13.5350 0.0000
v 8.6252 -12.9909 -2.8198
v 12.0802 -22.6727 -3.0558
v 7.5644 -13.5350 0.0000
v 12.0802 -22.6727 -3.0558
v 11.2315 -23.1080 -0.8000
v 11.4000 -12.4000 0.0000
v 8.6252 -12.9909 -2.8198
v 7.5644 -13.5350 0.0000
v 14.3000 -22.2000 -0.8000
v 11.2315 -23.1080 -0.8000
v 12.0802 -22.6727 -3.0558
v 8.6252 -12.9909 -2.8198
v 11.3114 -12.1007 -3.9878
v 14.2291 -21.9605 -3.9902
v 8.6252 -12.9909 -2.8198
v 14.2291 -21.9605 -3.9902
v 12.0802 -22.6727 -3.0558
v 11.4000 -12.4000 0.0000
v 11.3114 -12.1007 -3.9878
v 8.6252 -12.9909 -2.8198
v 14.3000 -22.2000 -0.8000
v 12.0802 -22.6727 -3.0558
v 14.2291 -21.9605 -3.9902
v 11.3114 -12.1007 -3.9878
v 14.0495 -11.3858 -2.8198
v 16.4196 -21.3886 -3.0558
v 11.3114 -12.1007 -3.9878
v 16.4196 -21.3886 -3.0558
v 14.2291 -21.9605 -3.9902
v 11.4000 -12.4000 0.0000
v 14.0495 -11.3858 -2.8198
v 11.3114 -12.1007 -3.9878
v 14.3000 -22.2000 -0.8000
v 14.2291 -21.9605 -3.9902
v 16.4196 -21.3886 -3.0558
v 14.0495 -11.3858 -2.8198
v 15.2356 -11.2650 -0.0000
v 17.3685 -21.2920 -0.8000
v 14.0495 -11.3858 -2.8198
v 17.3685 -21.2920 -0.8000
v 16.4196 -21.3886 -3.0558
v 11.4000 -12.4000 0.0000
v 15.2356 -11.2650 -0.0000
v 14.0495 -11.3858 -2.8198
v 14.3000 -22.2000 -0.8000
v 16.4196 -21.3886 -3.0558
v 17.3685 -21.2920 -0.8000
v 15.2356 -11.2650 -0.0000
v 14.1748 -11.8091 2.8198
v 16.5198 -21.7273 1.4558
v 15.2356 -11.2650 -0.0000
v 16.5198 -21.7273 1.4558
v 17.3685 -21.2920 -0.8000
v 11.4000 -12.4000 0.0000
v 14.1748 -11.8091 2.8198
v 15.2356 -11.2650 -0.0000
v 14.3000 -22.2000 -0.8000
v 17.3685 -21.2920 -0.8000
v 16.5198 -21.7273 1.4558
v 14.1748 -11.8091 2.8198
v 11.4886 -12.6993 3.9878
v 14.3709 -22.4395 2.3902
v 14.1748 -11.8091 2.8198
v 14.3709 -22.4395 2.3902
v 16.5198 -21.7273 1.4558
v 11.4000 -12.4000 0.0000
v 11.4886 -12.6993 3.9878
v 14.1748 -11.8091 2.8198
v 14.3000 -22.2000 -0.8000
v 16.5198 -21.7273 1.4558
v 14.3709 -22.4395 2.3902
v 11.4886 -12.6993 3.9878
v 8.7505 -13.4142 2.8198
v 12.1804 -23.0114 1.4558
v 11.4886 -12.6993 3.9878
v 12.1804 -23.0114 1.4558
v 14.3709 -22.4395 2.3902
v 11.4000 -12.4000 0.0000
v 8.7505 -13.4142 2.8198
v 11.4886 -12.6993 3.9878
v 14.3000 -22.2000 -0.8000
v 14.3709 -22.4395 2.3902
v 12.1804 -23.0114 1.4558
v 8.7505 -13.4142 2.8198
v 7.5644 -13.5350 0.0000
v 11.2315 -23.1080 -0.8000
v 8.7505 -13.4142 2.8198
v 11.2315 -23.1080 -0.8000
v 12.1804 -23.0114 1.4558
v 11.4000 -12.4000 0.0000
v 7.5644 -13.5350 0.0000
v 8.7505 -13.4142 2.8198
v 14.3000 -22.2000 -0.8000
v 12.1804 -23.0114 1.4558
v 11.2315 -23.1080 -0.8000
v 11.2018 -22.3044 -0.8000
v 12.0893 -21.6817 -2.9104
v 12.9598 -30.7155 -4.8658
v 11.2018 -22.3044 -0.8000
v 12.9598 -30.7155 -4.8658
v 12.3013 -31.1775 -3.3000
v 14.3000 -22.2000 -0.8000
v 12.0893 -21.6817 -2.9104
v 11.2018 -22.3044 -0.8000
v 14.6000 -31.1000 -3.3000
v 12.3013 -31.1775 -3.3000
v 12.9598 -30.7155 -4.8658
v 12.0893 -21.6817 -2.9104
v 14.2718 -21.3626 -3.7846
v 14.5791 -30.4787 -5.5144
v 12.0893 -21.6817 -2.9104
v 14.5791 -30.4787 -5.5144
v 12.9598 -30.7155 -4.8658
v 14.3000 -22.2000 -0.8000
v 14.2718 -21.3626 -3.7846
v 12.0893 -21.6817 -2.9104
v 14.6000 -31.1000 -3.3000
v 12.9598 -30.7155 -4.8658
v 14.5791 -30.4787 -5.5144
v 14.2718 -21.3626 -3.7846
v 16.4708 -21.5340 -2.9104
v 16.2106 -30.6059 -4.8658
v 14.2718 -21.3626 -3.7846
v 16.2106 -30.6059 -4.8658
v 14.5791 -30.4787 -5.5144
v 14.3000 -22.2000 -0.8000
v 16.4708 -21.5340 -2.9104
v 14.2718 -21.3626 -3.7846
v 14.6000 -31.1000 -3.3000
v 14.5791 -30.4787 -5.5144
v 16.2106 -30.6059 -4.8658
v 16.4708 -21.5340 -2.9104
v 17.3982 -22.0956 -0.8000
v 16.8987 -31.0225 -3.3000
v 16.4708 -21.5340 -2.9104
v 16.8987 -31.0225 -3.3000
v 16.2106 -30.6059 -4.8658
v 14.3000 -22.2000 -0.8000
v 17.3982 -22.0956 -0.8000
v 16.4708 -21.5340 -2.9104
v 14.6000 -31.1000 -3.3000
v 16.2106 -30.6059 -4.8658
v 16.8987 -31.0225 -3.3000
v 17.3982 -22.0956 -0.8000
v 16.5107 -22.7183 1.3104
v 16.2402 -31.4845 -1.7342
v 17.3982 -22.0956 -0.8000
v 16.2402 -31.4845 -1.7342
v 16.8987 -31.0225 -3.3000
v 14.3000 -22.2000 -0.8000
v 16.5107 -22.7183 1.3104
v 17.3982 -22.0956 -0.8000
v 14.6000 -31.1000 -3.3000
v 16.8987 -31.0225 -3.3000
v 16.2402 -31.4845 -1.7342
v 16.5107 -22.7183 1.3104
v 14.3282 -23.0374 2.1846
v 14.6209 -31.7213 -1.0856
v 16.5107 -22.7183 1.3104
v 14.6209 -31.7213 -1.0856
v 16.2402 -31.4845 -1.7342
v 14.3000 -22.2000 -0.8000
v 14.3282 -23.0374 2.1846
v 16.5107 -22.7183 1.3104
v 14.6000 -31.1000 -3.3000
v 16.2402 -31.4845 -1.7342
v 14.6209 -31.7213 -1.0856
v 14.3282 -23.0374 2.1846
v 12.1292 -22.8660 1.3104
v 12.9894 -31.5941 -1.7342
v 14.3282 -23.0374 2.1846
v 12.9894 -31.5941 -1.7342
v 14.6209 -31.7213 -1.0856
v 14.3000 -22.2000 -0.8000
v 12.1292 -22.8660 1.3104
v 14.3282 -23.0374 2.1846
v 14.6000 -31.1000 -3.3000
v 14.6209 -31.7213 -1.0856
v 12.9894 -31.5941 -1.7342
v 12.1292 -22.8660 1.3104
v 11.2018 -22.3044 -0.8000
v 12.3013 -31.1775 -3.3000
v 12.1292 -22.8660 1.3104
v 12.3013 -31.1775 -3.3000
v 12.9894 -31.5941 -1.7342
v 14.3000 -22.2000 -0.8000
v 11.2018 -22.3044 -0.8000
v 12.1292 -22.8660 1.3104
v 14.6000 -31.1000 -3.3000
v 12.9894 -31.5941 -1.7342
v 12.3013 -31.1775 -3.3000
v 12.2000 -35.1000 -5.8000
v 12.2000 -29.9000 -5.8000
v 17.0000 -29.9000 -5.8000
v 12.2000 -35.1000 -5.8000
v 17.0000 -29.9000 -5.8000
v 17.0000 -35.1000 -5.8000
v 17.0000 -35.1000 -0.8000
v 17.0000 -29.9000 -0.8000
v 12.2000 -29.9000 -0.8000
v 17.0000 -35.1000 -0.8000
v 12.2000 -29.9000 -0.8000
v 12.2000 -35.1000 -0.8000
v 12.2000 -35.1000 -0.8000
v 12.2000 -29.9000 -0.8000
v 12.2000 -29.9000 -5.8000
v 12.2000 -35.1000 -0.8000
v 12.2000 -29.9000 -5.8000
v 12.2000 -35.1000 -5.8000
v 17.0000 -35.1000 -5.8000
v 17.0000 -29.9000 -5.8000
v 17.0000 -29.9000 -0.8000
v 17.0000 -35.1000 -5.8000
v 17.0000 -29.9000 -0.8000
v 17.0000 -35.1000 -0.8000
v 12.2000 -29.9000 -5.8000
v 12.2000 -29.9000 -0.8000
v 17.0000 -29.9000 -0.8000
v 12.2000 -29.9000 -5.8000
v 17.0000 -29.9000 -0.8000
v 17.0000 -29.9000 -5.8000
v 12.2000 -35.1000 -0.8000
v 12.2000 -35.1000 -5.8000
v 17.0000 -35.1000 -5.8000
v 12.2000 -35.1000 -0.8000
v 17.0000 -35.1000 -5.8000
v 17.0000 -35.1000 -0.8000
v 2.8000 -10.0000 0.0000
v 1.9799 -10.0000 -1.9799
v 1.7678 -5.0000 -1.7678
v 2.8000 -10.0000 0.0000
v 1.7678 -5.0000 -1.7678
v 2.5000 -5.0000 0.0000
v 0.0000 -10.0000 0.0000
v 1.9799 -10.0000 -1.9799
v 2.8000 -10.0000 0.0000
v 0.0000 -5.0000 0.0000
v 2.5000 -5.0000 0.0000
v 1.7678 -5.0000 -1.7678
v 1.9799 -10.0000 -1.9799
v 0.0000 -10.0000 -2.8000
v 0.0000 -5.0000 -2.5000
v 1.9799 -10.0000 -1.9799
v 0.0000 -5.0000 -2.5000
v 1.7678 -5.0000 -1.7678
v 0.0000 -10.0000 0.0000
v 0.0000 -10.0000 -2.8000
v 1.9799 -10.0000 -1.9799
v 0.0000 -5.0000 0.0000
v 1.7678 -5.0000 -1.7678
v 0.0000 -5.0000 -2.5000
v 0.0000 -10.0000 -2.8000
v -1.9799 -10.0000 -1.9799
v -1.7678 -5.0000 -1.7678
v 0.0000 -10.0000 -2.8000
v -1.7678 -5.0000 -1.7678
v 0.0000 -5.0000 -2.5000
v 0.0000 -10.0000 0.0000
v -1.9799 -10.0000 -1.9799
v 0.0000 -10.0000 -2.8000
v 0.0000 -5.0000 0.0000
v 0.0000 -5.0000 -2.5000
v -1.7678 -5.0000 -1.7678
v -1.9799 -10.0000 -1.9799
v -2.8000 -10.0000 -0.0000
v -2.5000 -5.0000 -0.0000
v -1.9799 -10.0000 -1.9799
v -2.5000 -5.0000 -0.0000
v -1.7678 -5.0000 -1.7678
v 0.0000 -10.0000 0.0000
v -2.8000 -10.0000 -0.0000
v -1.9799 -10.0000 -1.9799
v 0.0000 -5.0000 0.0000
v -1.7678 -5.0000 -1.7678
v -2.5000 -5.0000 -0.0000
v -2.8000 -10.0000 -0.0000
v -1.9799 -10.0000 1.9799
v -1.7678 -5.0000 1.7678
v -2.8000 -10.0000 -0.0000
v -1.7678 -5.0000 1.7678
v -2.5000 -5.0000 -0.0000
v 0.0000 -10.0000 0.0000
v -1.9799 -10.0000 1.9799
v -2.8000 -10.0000 -0.0000
v 0.0000 -5.0000 0.0000
v -2.5000 -5.0000 -0.0000
v -1.7678 -5.0000 1.7678
v -1.9799 -10.0000 1.9799
v -0.0000 -10.0000 2.8000
v -0.0000 -5.0000 2.5000
v -1.9799 -10.0000 1.9799
v -0.0000 -5.0000 2.5000
v -1.7678 -5.0000 1.7678
v 0.0000 -10.0000 0.0000
v -0.0000 -10.0000 2.8000
v -1.9799 -10.0000 1.9799
v 0.0000 -5.0000 0.0000
v -1.7678 -5.0000 1.7678
v -0.0000 -5.0000 2.5000
v -0.0000 -10.0000 2.8000
v 1.9799 -10.0000 1.9799
v 1.7678 -5.0000 1.7678
v -0.0000 -10.0000 2.8000
v 1.7678 -5.0000 1.7678
v -0.0000 -5.0000 2.5000
v 0.0000 -10.0000 0.0000
v 1.9799 -10.0000 1.9799
v -0.0000 -10.0000 2.8000
v 0.0000 -5.0000 0.0000
v -0.0000 -5.0000 2.5000
v 1.7678 -5.0000 1.7678
v 1.9799 -10.0000 1.9799
v 2.8000 -10.0000 0.0000
v 2.5000 -5.0000 0.0000
v 1.9799 -10.0000 1.9799
v 2.5000 -5.0000 0.0000
v 1.7678 -5.0000 1.7678
v 0.0000 -10.0000 0.0000
v 2.8000 -10.0000 0.0000
v 1.9799 -10.0000 1.9799
v 0.0000 -5.0000 0.0000
v 1.7678 -5.0000 1.7678
v 2.5000 -5.0000 0.0000
v 0.0000 7.5000 -0.2000
v 0.0000 7.5000 -0.2000
v 2.2084 6.5622 1.0000
v 0.0000 7.5000 -0.2000
v 2.2084 6.5622 1.0000
v 2.5500 6.5622 -0.2000
v 0.0000 7.5000 -0.2000
v 0.0000 7.5000 -0.2000
v 1.2750 6.5622 1.8785
v 0.0000 7.5000 -0.2000
v 1.2750 6.5622 1.8785
v 2.2084 6.5622 1.0000
v 0.0000 7.5000 -0.2000
v 0.0000 7.5000 -0.2000
v 0.0000 6.5622 2.2000
v 0.0000 7.5000 -0.2000
v 0.0000 6.5622 2.2000
v 1.2750 6.5622 1.8785
v 0.0000 7.5000 -0.2000
v 0.0000 7.5000 -0.2000
v -1.2750 6.5622 1.8785
v 0.0000 7.5000 -0.2000
v -1.2750 6.5622 1.8785
v 0.0000 6.5622 2.2000
v 0.0000 7.5000 -0.2000
v 0.0000 7.5000 -0.2000
v -2.2084 6.5622 1.0000
v 0.0000 7.5000 -0.2000
v -2.2084 6.5622 1.0000
v -1.2750 6.5622 1.8785
v 0.0000 7.5000 -0.2000
v 0.0000 7.5000 -0.2000
v -2.5500 6.5622 -0.2000
v 0.0000 7.5000 -0.2000
v -2.5500 6.5622 -0.2000
v -2.2084 6.5622 1.0000
v 0.0000 7.5000 -0.2000
v 0.0000 7.5000 -0.2000
v -2.2084 6.5622 -1.4000
v 0.0000 7.5000 -0.2000
v -2.2084 6.5622 -1.4000
v -2.5500 6.5622 -0.2000
v 0.0000 7.5000 -0.2000
v 0.0000 7.5000 -0.2000
v -1.2750 6.5622 -2.2785
v 0.0000 7.5000 -0.2000
v -1.2750 6.5622 -2.2785
v -2.2084 6.5622 -1.4000
v 0.0000 7.5000 -0.2000
v 0.0000 7.5000 -0.2000
v -0.0000 6.5622 -2.6000
v 0.0000 7.5000 -0.2000
v -0.0000 6.5622 -2.6000
v -1.2750 6.5622 -2.2785
v 0.0000 7.5000 -0.2000
v 0.0000 7.5000 -0.2000
v 1.2750 6.5622 -2.2785
v 0.0000 7.5000 -0.2000
v 1.2750 6.5622 -2.2785
v -0.0000 6.5622 -2.6000
v 0.0000 7.5000 -0.2000
v 0.0000 7.5000 -0.2000
v 2.2084 6.5622 -1.4000
v 0.0000 7.5000 -0.2000
v 2.2084 6.5622 -1.4000
v 1.2750 6.5622 -2.2785
v 0.0000 7.5000 -0.2000
v 0.0000 7.5000 -0.2000
v 2.5500 6.5622 -0.2000
v 0.0000 7.5000 -0.2000
v 2.5500 6.5622 -0.2000
v 2.2084 6.5622 -1.4000
v 2.5500 6.5622 -0.2000
v 2.2084 6.5622 1.0000
v 3.8250 4.0000 1.8785
v 2.5500 6.5622 -0.2000
v 3.8250 4.0000 1.8785
v 4.4167 4.0000 -0.2000
v 2.2084 6.5622 1.0000
v 1.2750 6.5622 1.8785
v 2.2084 4.0000 3.4000
v 2.2084 6.5622 1.0000
v 2.2084 4.0000 3.4000
v 3.8250 4.0000 1.8785
v 1.2750 6.5622 1.8785
v 0.0000 6.5622 2.2000
v 0.0000 4.0000 3.9569
v 1.2750 6.5622 1.8785
v 0.0000 4.0000 3.9569
v 2.2084 4.0000 3.4000
v 0.0000 6.5622 2.2000
v -1.2750 6.5622 1.8785
v -2.2084 4.0000 3.4000
v 0.0000 6.5622 2.2000
v -2.2084 4.0000 3.4000
v 0.0000 4.0000 3.9569
v -1.2750 6.5622 1.8785
v -2.2084 6.5622 1.0000
v -3.8250 4.0000 1.8785
v -1.2750 6.5622 1.8785
v -3.8250 4.0000 1.8785
v -2.2084 4.0000 3.4000
v -2.2084 6.5622 1.0000
v -2.5500 6.5622 -0.2000
v -4.4167 4.0000 -0.2000
v -2.2084 6.5622 1.0000
v -4.4167 4.0000 -0.2000
v -3.8250 4.0000 1.8785
v -2.5500 6.5622 -0.2000
v -2.2084 6.5622 -1.4000
v -3.8250 4.0000 -2.2785
v -2.5500 6.5622 -0.2000
v -3.8250 4.0000 -2.2785
v -4.4167 4.0000 -0.2000
v -2.2084 6.5622 -1.4000
v -1.2750 6.5622 -2.2785
v -2.2084 4.0000 -3.8000
v -2.2084 6.5622 -1.4000
v -2.2084 4.0000 -3.8000
v -3.8250 4.0000 -2.2785
v -1.2750 6.5622 -2.2785
v -0.0000 6.5622 -2.6000
v -0.0000 4.0000 -4.3569
v -1.2750 6.5622 -2.2785
v -0.0000 4.0000 -4.3569
v -2.2084 4.0000 -3.8000
v -0.0000 6.5622 -2.6000
v 1.2750 6.5622 -2.2785
v 2.2084 4.0000 -3.8000
v -0.0000 6.5622 -2.6000
v 2.2084 4.0000 -3.8000
v -0.0000 4.0000 -4.3569
v 1.2750 6.5622 -2.2785
v 2.2084 6.5622 -1.4000
v 3.8250 4.0000 -2.2785
v 1.2750 6.5622 -2.2785
v 3.8250 4.0000 -2.2785
v 2.2084 4.0000 -3.8000
v 2.2084 6.5622 -1.4000
v 2.5500 6.5622 -0.2000
v 4.4167 4.0000 -0.2000
v 2.2084 6.5622 -1.4000
v 4.4167 4.0000 -0.2000
v 3.8250 4.0000 -2.2785
v 4.4167 4.0000 -0.2000
v 3.8250 4.0000 1.8785
v 4.4167 0.5000 2.2000
v 4.4167 4.0000 -0.2000
v 4.4167 0.5000 2.2000
v 5.1000 0.5000 -0.2000
v 3.8250 4.0000 1.8785
v 2.2084 4.0000 3.4000
v 2.5500 0.5000 3.9569
v 3.8250 4.0000 1.8785
v 2.5500 0.5000 3.9569
v 4.4167 0.5000 2.2000
v 2.2084 4.0000 3.4000
v 0.0000 4.0000 3.9569
v 0.0000 0.5000 4.6000
v 2.2084 4.0000 3.4000
v 0.0000 0.5000 4.6000
v 2.5500 0.5000 3.9569
v 0.0000 4.0000 3.9569
v -2.2084 4.0000 3.4000
v -2.5500 0.5000 3.9569
v 0.0000 4.0000 3.9569
v -2.5500 0.5000 3.9569
v 0.0000 0.5000 4.6000
v -2.2084 4.0000 3.4000
v -3.8250 4.0000 1.8785
v -4.4167 0.5000 2.2000
v -2.2084 4.0000 3.4000
v -4.4167 0.5000 2.2000
v -2.5500 0.5000 3.9569
v -3.8250 4.0000 1.8785
v -4.4167 4.0000 -0.2000
v -5.1000 0.5000 -0.2000
v -3.8250 4.0000 1.8785
v -5.1000 0.5000 -0.2000
v -4.4167 0.5000 2.2000
v -4.4167 4.0000 -0.2000
v -3.8250 4.0000 -2.2785
v -4.4167 0.5000 -2.6000
v -4.4167 4.0000 -0.2000
v -4.4167 0.5000 -2.6000
v -5.1000 0.5000 -0.2000
v -3.8250 4.0000 -2.2785
v -2.2084 4.0000 -3.8000
v -2.5500 0.5000 -4.3569
v -3.8250 4.0000 -2.2785
v -2.5500 0.5000 -4.3569
v -4.4167 0.5000 -2.6000
v -2.2084 4.0000 -3.8000
v -0.0000 4.0000 -4.3569
v -0.0000 0.5000 -5.0000
v -2.2084 4.0000 -3.8000
v -0.0000 0.5000 -5.0000
v -2.5500 0.5000 -4.3569
v -0.0000 4.0000 -4.3569
v 2.2084 4.0000 -3.8000
v 2.5500 0.5000 -4.3569
v -0.0000 4.0000 -4.3569
v 2.5500 0.5000 -4.3569
v -0.0000 0.5000 -5.0000
v 2.2084 4.0000 -3.8000
v 3.8250 4.0000 -2.2785
v 4.4167 0.5000 -2.6000
v 2.2084 4.0000 -3.8000
v 4.4167 0.5000 -2.6000
v 2.5500 0.5000 -4.3569
v 3.8250 4.0000 -2.2785
v 4.4167 4.0000 -0.2000
v 5.1000 0.5000 -0.2000
v 3.8250 4.0000 -2.2785
v 5.1000 0.5000 -0.2000
v 4.4167 0.5000 -2.6000
v 5.1000 0.5000 -0.2000
v 4.4167 0.5000 2.2000
v 3.8250 -3.0000 1.8785
v 5.1000 0.5000 -0.2000
v 3.8250 -3.0000 1.8785
v 4.4167 -3.0000 -0.2000
v 4.4167 0.5000 2.2000
v 2.5500 0.5000 3.9569
v 2.2084 -3.0000 3.4000
v 4.4167 0.5000 2.2000
v 2.2084 -3.0000 3.4000
v 3.8250 -3.0000 1.8785
v 2.5500 0.5000 3.9569
v 0.0000 0.5000 4.6000
v 0.0000 -3.0000 3.9569
v 2.5500 0.5000 3.9569
v 0.0000 -3.0000 3.9569
v 2.2084 -3.0000 3.4000
v 0.0000 0.5000 4.6000
v -2.5500 0.5000 3.9569
v -2.2084 -3.0000 3.4000
v 0.0000 0.5000 4.6000
v -2.2084 -3.0000 3.4000
v 0.0000 -3.0000 3.9569
v -2.5500 0.5000 3.9569
v -4.4167 0.5000 2.2000
v -3.8250 -3.0000 1.8785
v -2.5500 0.5000 3.9569
v -3.8250 -3.0000 1.8785
v -2.2084 -3.0000 3.4000
v -4.4167 0.5000 2.2000
v -5.1000 0.5000 -0.2000
v -4.4167 -3.0000 -0.2000
v -4.4167 0.5000 2.2000
v -4.4167 -3.0000 -0.2000
v -3.8250 -3.0000 1.8785
v -5.1000 0.5000 -0.2000
v -4.4167 0.5000 -2.6000
v -3.8250 -3.0000 -2.2785
v -5.1000 0.5000 -0.2000
v -3.8250 -3.0000 -2.2785
v -4.4167 -3.0000 -0.2000
v -4.4167 0.5000 -2.6000
v -2.5500 0.5000 -4.3569
v -2.2084 -3.0000 -3.8000
v -4.4167 0.5000 -2.6000
v -2.2084 -3.0000 -3.8000
v -3.8250 -3.0000 -2.2785
v -2.5500 0.5000 -4.3569
v -0.0000 0.5000 -5.0000
v -0.0000 -3.0000 -4.3569
v -2.5500 0.5000 -4.3569
v -0.0000 -3.0000 -4.3569
v -2.2084 -3.0000 -3.8000
v -0.0000 0.5000 -5.0000
v 2.5500 0.5000 -4.3569
v 2.2084 -3.0000 -3.8000
v -0.0000 0.5000 -5.0000
v 2.2084 -3.0000 -3.8000
v -0.0000 -3.0000 -4.3569
v 2.5500 0.5000 -4.3569
v 4.4167 0.5000 -2.6000
v 3.8250 -3.0000 -2.2785
v 2.5500 0.5000 -4.3569
v 3.8250 -3.0000 -2.2785
v 2.2084 -3.0000 -3.8000
v 4.4167 0.5000 -2.6000
v 5.1000 0.5000 -0.2000
v 4.4167 -3.0000 -0.2000
v 4.4167 0.5000 -2.6000
v 4.4167 -3.0000 -0.2000
v 3.8250 -3.0000 -2.2785
v 4.4167 -3.0000 -0.2000
v 3.8250 -3.0000 1.8785
v 2.2084 -5.5622 1.0000
v 4.4167 -3.0000 -0.2000
v 2.2084 -5.5622 1.0000
v 2.5500 -5.5622 -0.2000
v 3.8250 -3.0000 1.8785
v 2.2084 -3.0000 3.4000
v 1.2750 -5.5622 1.8785
v 3.8250 -3.0000 1.8785
v 1.2750 -5.5622 1.8785
v 2.2084 -5.5622 1.0000
v 2.2084 -3.0000 3.4000
v 0.0000 -3.0000 3.9569
v 0.0000 -5.5622 2.2000
v 2.2084 -3.0000 3.4000
v 0.0000 -5.5622 2.2000
v 1.2750 -5.5622 1.8785
v 0.0000 -3.0000 3.9569
v -2.2084 -3.0000 3.4000
v -1.2750 -5.5622 1.8785
v 0.0000 -3.0000 3.9569
v -1.2750 -5.5622 1.8785
v 0.0000 -5.5622 2.2000
v -2.2084 -3.0000 3.4000
v -3.8250 -3.0000 1.8785
v -2.2084 -5.5622 1.0000
v -2.2084 -3.0000 3.4000
v -2.2084 -5.5622 1.0000
v -1.2750 -5.5622 1.8785
v -3.8250 -3.0000 1.8785
v -4.4167 -3.0000 -0.2000
v -2.5500 -5.5622 -0.2000
v -3.8250 -3.0000 1.8785
v -2.5500 -5.5622 -0.2000
v -2.2084 -5.5622 1.0000
v -4.4167 -3.0000 -0.2000
v -3.8250 -3.0000 -2.2785
v -2.2084 -5.5622 -1.4000
v -4.4167 -3.0000 -0.2000
v -2.2084 -5.5622 -1.4000
v -2.5500 -5.5622 -0.2000
v -3.8250 -3.0000 -2.2785
v -2.2084 -3.0000 -3.8000
v -1.2750 -5.5622 -2.2785
v -3.8250 -3.0000 -2.2785
v -1.2750 -5.5622 -2.2785
v -2.2084 -5.5622 -1.4000
v -2.2084 -3.0000 -3.8000
v -0.0000 -3.0000 -4.3569
v -0.0000 -5.5622 -2.6000
v -2.2084 -3.0000 -3.8000
v -0.0000 -5.5622 -2.6000
v -1.2750 -5.5622 -2.2785
v -0.0000 -3.0000 -4.3569
v 2.2084 -3.0000 -3.8000
v 1.2750 -5.5622 -2.2785
v -0.0000 -3.0000 -4.3569
v 1.2750 -5.5622 -2.2785
v -0.0000 -5.5622 -2.6000
v 2.2084 -3.0000 -3.8000
v 3.8250 -3.0000 -2.2785
v 2.2084 -5.5622 -1.4000
v 2.2084 -3.0000 -3.8000
v 2.2084 -5.5622 -1.4000
v 1.2750 -5.5622 -2.2785
v 3.8250 -3.0000 -2.2785
v 4.4167 -3.0000 -0.2000
v 2.5500 -5.5622 -0.2000
v 3.8250 -3.0000 -2.2785
v 2.5500 -5.5622 -0.2000
v 2.2084 -5.5622 -1.4000
v 2.5500 -5.5622 -0.2000
v 2.2084 -5.5622 1.0000
v 0.0000 -6.5000 -0.2000
v 2.5500 -5.5622 -0.2000
v 0.0000 -6.5000 -0.2000
v 0.0000 -6.5000 -0.2000
v 2.2084 -5.5622 1.0000
v 1.2750 -5.5622 1.8785
v 0.0000 -6.5000 -0.2000
v 2.2084 -5.5622 1.0000
v 0.0000 -6.5000 -0.2000
v 0.0000 -6.5000 -0.2000
v 1.2750 -5.5622 1.8785
v 0.0000 -5.5622 2.2000
v 0.0000 -6.5000 -0.2000
v 1.2750 -5.5622 1.8785
v 0.0000 -6.5000 -0.2000
v 0.0000 -6.5000 -0.2000
v 0.0000 -5.5622 2.2000
v -1.2750 -5.5622 1.8785
v -0.0000 -6.5000 -0.2000
v 0.0000 -5.5622 2.2000
v -0.0000 -6.5000 -0.2000
v 0.0000 -6.5000 -0.2000
v -1.2750 -5.5622 1.8785
v -2.2084 -5.5622 1.0000
v -0.0000 -6.5000 -0.2000
v -1.2750 -5.5622 1.8785
v -0.0000 -6.5000 -0.2000
v -0.0000 -6.5000 -0.2000
v -2.2084 -5.5622 1.0000
v -2.5500 -5.5622 -0.2000
v -0.0000 -6.5000 -0.2000
v -2.2084 -5.5622 1.0000
v -0.0000 -6.5000 -0.2000
v -0.0000 -6.5000 -0.2000
v -2.5500 -5.5622 -0.2000
v -2.2084 -5.5622 -1.4000
v -0.0000 -6.5000 -0.2000
v -2.5500 -5.5622 -0.2000
v -0.0000 -6.5000 -0.2000
v -0.0000 -6.5000 -0.2000
v -2.2084 -5.5622 -1.4000
v -1.2750 -5.5622 -2.2785
v -0.0000 -6.5000 -0.2000
v -2.2084 -5.5622 -1.4000
v -0.0000 -6.5000 -0.2000
v -0.0000 -6.5000 -0.2000
v -1.2750 -5.5622 -2.2785
v -0.0000 -5.5622 -2.6000
v -0.0000 -6.5000 -0.2000
v -1.2750 -5.5622 -2.2785
v -0.0000 -6.5000 -0.2000
v -0.0000 -6.5000 -0.2000
v -0.0000 -5.5622 -2.6000
v 1.2750 -5.5622 -2.2785
v 0.0000 -6.5000 -0.2000
v -0.0000 -5.5622 -2.6000
v 0.0000 -6.5000 -0.2000
v -0.0000 -6.5000 -0.2000
v 1.2750 -5.5622 -2.2785
v 2.2084 -5.5622 -1.4000
v 0.0000 -6.5000 -0.2000
v 1.2750 -5.5622 -2.2785
v 0.0000 -6.5000 -0.2000
v 0.0000 -6.5000 -0.2000
v 2.2084 -5.5622 -1.4000
v 2.5500 -5.5622 -0.2000
v 0.0000 -6.5000 -0.2000
v 2.2084 -5.5622 -1.4000
v 0.0000 -6.5000 -0.2000
v 0.0000 -6.5000 -0.2000
v -8.6500 -26.0000 -6.6000
v -9.2500 -10.3000 -6.9000
v 9.2500 -10.3000 -6.9000
v -8.6500 -26.0000 -6.6000
v 9.2500 -10.3000 -6.9000
v 8.6500 -26.0000 -6.6000
v 8.6500 -26.0000 -3.4000
v 9.2500 -10.3000 -3.1000
v -9.2500 -10.3000 -3.1000
v 8.6500 -26.0000 -3.4000
v -9.2500 -10.3000 -3.1000
v -8.6500 -26.0000 -3.4000
v -8.6500 -26.0000 -3.4000
v -9.2500 -10.3000 -3.1000
v -9.2500 -10.3000 -6.9000
v -8.6500 -26.0000 -3.4000
v -9.2500 -10.3000 -6.9000
v -8.6500 -26.0000 -6.6000
v 8.6500 -26.0000 -6.6000
v 9.2500 -10.3000 -6.9000
v 9.2500 -10.3000 -3.1000
v 8.6500 -26.0000 -6.6000
v 9.2500 -10.3000 -3.1000
v 8.6500 -26.0000 -3.4000
v -9.2500 -10.3000 -6.9000
v -9.2500 -10.3000 -3.1000
v 9.2500 -10.3000 -3.1000
v -9.2500 -10.3000 -6.9000
v 9.2500 -10.3000 -3.1000
v 9.2500 -10.3000 -6.9000
v -8.6500 -26.0000 -3.4000
v -8.6500 -26.0000 -6.6000
v 8.6500 -26.0000 -6.6000
v -8.6500 -26.0000 -3.4000
v 8.6500 -26.0000 -6.6000
v 8.6500 -26.0000 -3.4000
v -6.5000 -28.0000 4.4000
v -6.5000 -10.0000 4.4000
v 6.5000 -10.0000 4.4000
v -6.5000 -28.0000 4.4000
v 6.5000 -10.0000 4.4000
v 6.5000 -28.0000 4.4000
v 6.5000 -28.0000 8.4000
v 6.5000 -10.0000 8.4000
v -6.5000 -10.0000 8.4000
v 6.5000 -28.0000 8.4000
v -6.5000 -10.0000 8.4000
v -6.5000 -28.0000 8.4000
v -6.5000 -28.0000 8.4000
v -6.5000 -10.0000 8.4000
v -6.5000 -10.0000 4.4000
v -6.5000 -28.0000 8.4000
v -6.5000 -10.0000 4.4000
v -6.5000 -28.0000 4.4000
v 6.5000 -28.0000 4.4000
v 6.5000 -10.0000 4.4000
v 6.5000 -10.0000 8.4000
v 6.5000 -28.0000 4.4000
v 6.5000 -10.0000 8.4000
v 6.5000 -28.0000 8.4000
v -6.5000 -10.0000 4.4000
v -6.5000 -10.0000 8.4000
v 6.5000 -10.0000 8.4000
v -6.5000 -10.0000 4.4000
v 6.5000 -10.0000 8.4000
v 6.5000 -10.0000 4.4000
v -6.5000 -28.0000 8.4000
v -6.5000 -28.0000 4.4000
v 6.5000 -28.0000 4.4000
v -6.5000 -28.0000 8.4000
v 6.5000 -28.0000 4.4000
v 6.5000 -28.0000 8.4000
v -13.6000 -15.2500 -5.4000
v -13.6000 -8.7500 -5.4000
v -7.8000 -8.7500 -5.4000
v -13.6000 -15.2500 -5.4000
v -7.8000 -8.7500 -5.4000
v -7.8000 -15.2500 -5.4000
v -7.8000 -15.2500 3.6000
v -7.8000 -8.7500 3.6000
v -13.6000 -8.7500 3.6000
v -7.8000 -15.2500 3.6000
v -13.6000 -8.7500 3.6000
v -13.6000 -15.2500 3.6000
v -13.6000 -15.2500 3.6000
v -13.6000 -8.7500 3.6000
v -13.6000 -8.7500 -5.4000
v -13.6000 -15.2500 3.6000
v -13.6000 -8.7500 -5.4000
v -13.6000 -15.2500 -5.4000
v -7.8000 -15.2500 -5.4000
v -7.8000 -8.7500 -5.4000
v -7.8000 -8.7500 3.6000
v -7.8000 -15.2500 -5.4000
v -7.8000 -8.7500 3.6000
v -7.8000 -15.2500 3.6000
v -13.6000 -8.7500 -5.4000
v -13.6000 -8.7500 3.6000
v -7.8000 -8.7500 3.6000
v -13.6000 -8.7500 -5.4000
v -7.8000 -8.7500 3.6000
v -7.8000 -8.7500 -5.4000
v -13.6000 -15.2500 3.6000
v -13.6000 -15.2500 -5.4000
v -7.8000 -15.2500 -5.4000
v -13.6000 -15.2500 3.6000
v -7.8000 -15.2500 -5.4000
v -7.8000 -15.2500 3.6000
v -7.2000 -25.8000 -8.7000
v -7.2000 -20.6000 -8.7000
v -2.4000 -20.6000 -8.7000
v -7.2000 -25.8000 -8.7000
v -2.4000 -20.6000 -8.7000
v -2.4000 -25.8000 -8.7000
v -2.4000 -25.8000 -6.7000
v -2.4000 -20.6000 -6.7000
v -7.2000 -20.6000 -6.7000
v -2.4000 -25.8000 -6.7000
v -7.2000 -20.6000 -6.7000
v -7.2000 -25.8000 -6.7000
v -7.2000 -25.8000 -6.7000
v -7.2000 -20.6000 -6.7000
v -7.2000 -20.6000 -8.7000
v -7.2000 -25.8000 -6.7000
v -7.2000 -20.6000 -8.7000
v -7.2000 -25.8000 -8.7000
v -2.4000 -25.8000 -8.7000
v -2.4000 -20.6000 -8.7000
v -2.4000 -20.6000 -6.7000
v -2.4000 -25.8000 -8.7000
v -2.4000 -20.6000 -6.7000
v -2.4000 -25.8000 -6.7000
v -7.2000 -20.6000 -8.7000
v -7.2000 -20.6000 -6.7000
v -2.4000 -20.6000 -6.7000
v -7.2000 -20.6000 -8.7000
v -2.4000 -20.6000 -6.7000
v -2.4000 -20.6000 -8.7000
v -7.2000 -25.8000 -6.7000
v -7.2000 -25.8000 -8.7000
v -2.4000 -25.8000 -8.7000
v -7.2000 -25.8000 -6.7000
v -2.4000 -25.8000 -8.7000
v -2.4000 -25.8000 -6.7000
v -4.7500 -0.9000 -5.7000
v -4.7500 2.3000 -5.7000
v -0.5500 2.3000 -5.7000
v -4.7500 -0.9000 -5.7000
v -0.5500 2.3000 -5.7000
v -0.5500 -0.9000 -5.7000
v -0.5500 -0.9000 -4.6000
v -0.5500 2.3000 -4.6000
v -4.7500 2.3000 -4.6000
v -0.5500 -0.9000 -4.6000
v -4.7500 2.3000 -4.6000
v -4.7500 -0.9000 -4.6000
v -4.7500 -0.9000 -4.6000
v -4.7500 2.3000 -4.6000
v -4.7500 2.3000 -5.7000
v -4.7500 -0.9000 -4.6000
v -4.7500 2.3000 -5.7000
v -4.7500 -0.9000 -5.7000
v -0.5500 -0.9000 -5.7000
v -0.5500 2.3000 -5.7000
v -0.5500 2.3000 -4.6000
v -0.5500 -0.9000 -5.7000
v -0.5500 2.3000 -4.6000
v -0.5500 -0.9000 -4.6000
v -4.7500 2.3000 -5.7000
v -4.7500 2.3000 -4.6000
v -0.5500 2.3000 -4.6000
v -4.7500 2.3000 -5.7000
v -0.5500 2.3000 -4.6000
v -0.5500 2.3000 -5.7000
v -4.7500 -0.9000 -4.6000
v -4.7500 -0.9000 -5.7000
v -0.5500 -0.9000 -5.7000
v -4.7500 -0.9000 -4.6000
v -0.5500 -0.9000 -5.7000
v -0.5500 -0.9000 -4.6000
v 7.8000 -15.2500 -5.4000
v 7.8000 -8.7500 -5.4000
v 13.6000 -8.7500 -5.4000
v 7.8000 -15.2500 -5.4000
v 13.6000 -8.7500 -5.4000
v 13.6000 -15.2500 -5.4000
v 13.6000 -15.2500 3.6000
v 13.6000 -8.7500 3.6000
v 7.8000 -8.7500 3.6000
v 13.6000 -15.2500 3.6000
v 7.8000 -8.7500 3.6000
v 7.8000 -15.2500 3.6000
v 7.8000 -15.2500 3.6000
v 7.8000 -8.7500 3.6000
v 7.8000 -8.7500 -5.4000
v 7.8000 -15.2500 3.6000
v 7.8000 -8.7500 -5.4000
v 7.8000 -15.2500 -5.4000
v 13.6000 -15.2500 -5.4000
v 13.6000 -8.7500 -5.4000
v 13.6000 -8.7500 3.6000
v 13.6000 -15.2500 -5.4000
v 13.6000 -8.7500 3.6000
v 13.6000 -15.2500 3.6000
v 7.8000 -8.7500 -5.4000
v 7.8000 -8.7500 3.6000
v 13.6000 -8.7500 3.6000
v 7.8000 -8.7500 -5.4000
v 13.6000 -8.7500 3.6000
v 13.6000 -8.7500 -5.4000
v 7.8000 -15.2500 3.6000
v 7.8000 -15.2500 -5.4000
v 13.6000 -15.2500 -5.4000
v 7.8000 -15.2500 3.6000
v 13.6000 -15.2500 -5.4000
v 13.6000 -15.2500 3.6000
v 2.4000 -25.8000 -8.7000
v 2.4000 -20.6000 -8.7000
v 7.2000 -20.6000 -8.7000
v 2.4000 -25.8000 -8.7000
v 7.2000 -20.6000 -8.7000
v 7.2000 -25.8000 -8.7000
v 7.2000 -25.8000 -6.7000
v 7.2000 -20.6000 -6.7000
v 2.4000 -20.6000 -6.7000
v 7.2000 -25.8000 -6.7000
v 2.4000 -20.6000 -6.7000
v 2.4000 -25.8000 -6.7000
v 2.4000 -25.8000 -6.7000
v 2.4000 -20.6000 -6.7000
v 2.4000 -20.6000 -8.7000
v 2.4000 -25.8000 -6.7000
v 2.4000 -20.6000 -8.7000
v 2.4000 -25.8000 -8.7000
v 7.2000 -25.8000 -8.7000
v 7.2000 -20.6000 -8.7000
v 7.2000 -20.6000 -6.7000
v 7.2000 -25.8000 -8.7000
v 7.2000 -20.6000 -6.7000
v 7.2000 -25.8000 -6.7000
v 2.4000 -20.6000 -8.7000
v 2.4000 -20.6000 -6.7000
v 7.2000 -20.6000 -6.7000
v 2.4000 -20.6000 -8.7000
v 7.2000 -20.6000 -6.7000
v 7.2000 -20.6000 -8.7000
v 2.4000 -25.8000 -6.7000
v 2.4000 -25.8000 -8.7000
v 7.2000 -25.8000 -8.7000
v 2.4000 -25.8000 -6.7000
v 7.2000 -25.8000 -8.7000
v 7.2000 -25.8000 -6.7000
v 0.5500 -0.9000 -5.7000
v 0.5500 2.3000 -5.7000
v 4.7500 2.3000 -5.7000
v 0.5500 -0.9000 -5.7000
v 4.7500 2.3000 -5.7000
v 4.7500 -0.9000 -5.7000
v 4.7500 -0.9000 -4.6000
v 4.7500 2.3000 -4.6000
v 0.5500 2.3000 -4.6000
v 4.7500 -0.9000 -4.6000
v 0.5500 2.3000 -4.6000
v 0.5500 -0.9000 -4.6000
v 0.5500 -0.9000 -4.6000
v 0.5500 2.3000 -4.6000
v 0.5500 2.3000 -5.7000
v 0.5500 -0.9000 -4.6000
v 0.5500 2.3000 -5.7000
v 0.5500 -0.9000 -5.7000
v 4.7500 -0.9000 -5.7000
v 4.7500 2.3000 -5.7000
v 4.7500 2.3000 -4.6000
v 4.7500 -0.9000 -5.7000
v 4.7500 2.3000 -4.6000
v 4.7500 -0.9000 -4.6000
v 0.5500 2.3000 -5.7000
v 0.5500 2.3000 -4.6000
v 4.7500 2.3000 -4.6000
v 0.5500 2.3000 -5.7000
v 4.7500 2.3000 -4.6000
v 4.7500 2.3000 -5.7000
v 0.5500 -0.9000 -4.6000
v 0.5500 -0.9000 -5.7000
v 4.7500 -0.9000 -5.7000
v 0.5500 -0.9000 -4.6000
v 4.7500 -0.9000 -5.7000
v 4.7500 -0.9000 -4.6000
v -2.0000 -25.8000 -8.7000
v -2.0000 -20.6000 -8.7000
v 2.0000 -20.6000 -8.7000
v -2.0000 -25.8000 -8.7000
v 2.0000 -20.6000 -8.7000
v 2.0000 -25.8000 -8.7000
v 2.0000 -25.8000 -6.7000
v 2.0000 -20.6000 -6.7000
v -2.0000 -20.6000 -6.7000
v 2.0000 -25.8000 -6.7000
v -2.0000 -20.6000 -6.7000
v -2.0000 -25.8000 -6.7000
v -2.0000 -25.8000 -6.7000
v -2.0000 -20.6000 -6.7000
v -2.0000 -20.6000 -8.7000
v -2.0000 -25.8000 -6.7000
v -2.0000 -20.6000 -8.7000
v -2.0000 -25.8000 -8.7000
v 2.0000 -25.8000 -8.7000
v 2.0000 -20.6000 -8.7000
v 2.0000 -20.6000 -6.7000
v 2.0000 -25.8000 -8.7000
v 2.0000 -20.6000 -6.7000
v 2.0000 -25.8000 -6.7000
v -2.0000 -20.6000 -8.7000
v -2.0000 -20.6000 -6.7000
v 2.0000 -20.6000 -6.7000
v -2.0000 -20.6000 -8.7000
v 2.0000 -20.6000 -6.7000
v 2.0000 -20.6000 -8.7000
v -2.0000 -25.8000 -6.7000
v -2.0000 -25.8000 -8.7000
v 2.0000 -25.8000 -8.7000
v -2.0000 -25.8000 -6.7000
v 2.0000 -25.8000 -8.7000
v 2.0000 -25.8000 -6.7000
v -4.5000 -6.1000 -5.6500
v -4.5000 -1.9000 -5.6500
v 4.5000 -1.9000 -5.6500
v -4.5000 -6.1000 -5.6500
v 4.5000 -1.9000 -5.6500
v 4.5000 -6.1000 -5.6500
v 4.5000 -6.1000 -4.5500
v 4.5000 -1.9000 -4.5500
v -4.5000 -1.9000 -4.5500
v 4.5000 -6.1000 -4.5500
v -4.5000 -1.9000 -4.5500
v -4.5000 -6.1000 -4.5500
v -4.5000 -6.1000 -4.5500
v -4.5000 -1.9000 -4.5500
v -4.5000 -1.9000 -5.6500
v -4.5000 -6.1000 -4.5500
v -4.5000 -1.9000 -5.6500
v -4.5000 -6.1000 -5.6500
v 4.5000 -6.1000 -5.6500
v 4.5000 -1.9000 -5.6500
v 4.5000 -1.9000 -4.5500
v 4.5000 -6.1000 -5.6500
v 4.5000 -1.9000 -4.5500
v 4.5000 -6.1000 -4.5500
v -4.5000 -1.9000 -5.6500
v -4.5000 -1.9000 -4.5500
v 4.5000 -1.9000 -4.5500
v -4.5000 -1.9000 -5.6500
v 4.5000 -1.9000 -4.5500
v 4.5000 -1.9000 -5.6500
v -4.5000 -6.1000 -4.5500
v -4.5000 -6.1000 -5.6500
v 4.5000 -6.1000 -5.6500
v -4.5000 -6.1000 -4.5500
v 4.5000 -6.1000 -5.6500
v 4.5000 -6.1000 -4.5500
v 0.0000 11.0000 -0.1000
v 0.0000 11.0000 -0.1000
v 2.6414 10.0622 1.3500
v 0.0000 11.0000 -0.1000
v 2.6414 10.0622 1.3500
v 3.0500 10.0622 -0.1000
v 0.0000 11.0000 -0.1000
v 0.0000 11.0000 -0.1000
v 1.5250 10.0622 2.4115
v 0.0000 11.0000 -0.1000
v 1.5250 10.0622 2.4115
v 2.6414 10.0622 1.3500
v 0.0000 11.0000 -0.1000
v 0.0000 11.0000 -0.1000
v 0.0000 10.0622 2.8000
v 0.0000 11.0000 -0.1000
v 0.0000 10.0622 2.8000
v 1.5250 10.0622 2.4115
v 0.0000 11.0000 -0.1000
v 0.0000 11.0000 -0.1000
v -1.5250 10.0622 2.4115
v 0.0000 11.0000 -0.1000
v -1.5250 10.0622 2.4115
v 0.0000 10.0622 2.8000
v 0.0000 11.0000 -0.1000
v 0.0000 11.0000 -0.1000
v -2.6414 10.0622 1.3500
v 0.0000 11.0000 -0.1000
v -2.6414 10.0622 1.3500
v -1.5250 10.0622 2.4115
v 0.0000 11.0000 -0.1000
v 0.0000 11.0000 -0.1000
v -3.0500 10.0622 -0.1000
v 0.0000 11.0000 -0.1000
v -3.0500 10.0622 -0.1000
v -2.6414 10.0622 1.3500
v 0.0000 11.0000 -0.1000
v 0.0000 11.0000 -0.1000
v -2.6414 10.0622 -1.5500
v 0.0000 11.0000 -0.1000
v -2.6414 10.0622 -1.5500
v -3.0500 10.0622 -0.1000
v 0.0000 11.0000 -0.1000
v 0.0000 11.0000 -0.1000
v -1.5250 10.0622 -2.6115
v 0.0000 11.0000 -0.1000
v -1.5250 10.0622 -2.6115
v -2.6414 10.0622 -1.5500
v 0.0000 11.0000 -0.1000
v 0.0000 11.0000 -0.1000
v -0.0000 10.0622 -3.0000
v 0.0000 11.0000 -0.1000
v -0.0000 10.0622 -3.0000
v -1.5250 10.0622 -2.6115
v 0.0000 11.0000 -0.1000
v 0.0000 11.0000 -0.1000
v 1.5250 10.0622 -2.6115
v 0.0000 11.0000 -0.1000
v 1.5250 10.0622 -2.6115
v -0.0000 10.0622 -3.0000
v 0.0000 11.0000 -0.1000
v 0.0000 11.0000 -0.1000
v 2.6414 10.0622 -1.5500
v 0.0000 11.0000 -0.1000
v 2.6414 10.0622 -1.5500
v 1.5250 10.0622 -2.6115
v 0.0000 11.0000 -0.1000
v 0.0000 11.0000 -0.1000
v 3.0500 10.0622 -0.1000
v 0.0000 11.0000 -0.1000
v 3.0500 10.0622 -0.1000
v 2.6414 10.0622 -1.5500
v 3.0500 10.0622 -0.1000
v 2.6414 10.0622 1.3500
v 4.5750 7.5000 2.4115
v 3.0500 10.0622 -0.1000
v 4.5750 7.5000 2.4115
v 5.2828 7.5000 -0.1000
v 2.6414 10.0622 1.3500
v 1.5250 10.0622 2.4115
v 2.6414 7.5000 4.2500
v 2.6414 10.0622 1.3500
v 2.6414 7.5000 4.2500
v 4.5750 7.5000 2.4115
v 1.5250 10.0622 2.4115
v 0.0000 10.0622 2.8000
v 0.0000 7.5000 4.9229
v 1.5250 10.0622 2.4115
v 0.0000 7.5000 4.9229
v 2.6414 7.5000 4.2500
v 0.0000 10.0622 2.8000
v -1.5250 10.0622 2.4115
v -2.6414 7.5000 4.2500
v 0.0000 10.0622 2.8000
v -2.6414 7.5000 4.2500
v 0.0000 7.5000 4.9229
v -1.5250 10.0622 2.4115
v -2.6414 10.0622 1.3500
v -4.5750 7.5000 2.4115
v -1.5250 10.0622 2.4115
v -4.5750 7.5000 2.4115
v -2.6414 7.5000 4.2500
v -2.6414 10.0622 1.3500
v -3.0500 10.0622 -0.1000
v -5.2828 7.5000 -0.1000
v -2.6414 10.0622 1.3500
v -5.2828 7.5000 -0.1000
v -4.5750 7.5000 2.4115
v -3.0500 10.0622 -0.1000
v -2.6414 10.0622 -1.5500
v -4.5750 7.5000 -2.6115
v -3.0500 10.0622 -0.1000
v -4.5750 7.5000 -2.6115
v -5.2828 7.5000 -0.1000
v -2.6414 10.0622 -1.5500
v -1.5250 10.0622 -2.6115
v -2.6414 7.5000 -4.4500
v -2.6414 10.0622 -1.5500
v -2.6414 7.5000 -4.4500
v -4.5750 7.5000 -2.6115
v -1.5250 10.0622 -2.6115
v -0.0000 10.0622 -3.0000
v -0.0000 7.5000 -5.1229
v -1.5250 10.0622 -2.6115
v -0.0000 7.5000 -5.1229
v -2.6414 7.5000 -4.4500
v -0.0000 10.0622 -3.0000
v 1.5250 10.0622 -2.6115
v 2.6414 7.5000 -4.4500
v -0.0000 10.0622 -3.0000
v 2.6414 7.5000 -4.4500
v -0.0000 7.5000 -5.1229
v 1.5250 10.0622 -2.6115
v 2.6414 10.0622 -1.5500
v 4.5750 7.5000 -2.6115
v 1.5250 10.0622 -2.6115
v 4.5750 7.5000 -2.6115
v 2.6414 7.5000 -4.4500
v 2.6414 10.0622 -1.5500
v 3.0500 10.0622 -0.1000
v 5.2828 7.5000 -0.1000
v 2.6414 10.0622 -1.5500
v 5.2828 7.5000 -0.1000
v 4.5750 7.5000 -2.6115
v 5.2828 7.5000 -0.1000
v 4.5750 7.5000 2.4115
v 5.2828 4.0000 2.8000
v 5.2828 7.5000 -0.1000
v 5.2828 4.0000 2.8000
v 6.1000 4.0000 -0.1000
v 4.5750 7.5000 2.4115
v 2.6414 7.5000 4.2500
v 3.0500 4.0000 4.9229
v 4.5750 7.5000 2.4115
v 3.0500 4.0000 4.9229
v 5.2828 4.0000 2.8000
v 2.6414 7.5000 4.2500
v 0.0000 7.5000 4.9229
v 0.0000 4.0000 5.7000
v 2.6414 7.5000 4.2500
v 0.0000 4.0000 5.7000
v 3.0500 4.0000 4.9229
v 0.0000 7.5000 4.9229
v -2.6414 7.5000 4.2500
v -3.0500 4.0000 4.9229
v 0.0000 7.5000 4.9229
v -3.0500 4.0000 4.9229
v 0.0000 4.0000 5.7000
v -2.6414 7.5000 4.2500
v -4.5750 7.5000 2.4115
v -5.2828 4.0000 2.8000
v -2.6414 7.5000 4.2500
v -5.2828 4.0000 2.8000
v -3.0500 4.0000 4.9229
v -4.5750 7.5000 2.4115
v -5.2828 7.5000 -0.1000
v -6.1000 4.0000 -0.1000
v -4.5750 7.5000 2.4115
v -6.1000 4.0000 -0.1000
v -5.2828 4.0000 2.8000
v -5.2828 7.5000 -0.1000
v -4.5750 7.5000 -2.6115
v -5.2828 4.0000 -3.0000
v -5.2828 7.5000 -0.1000
v -5.2828 4.0000 -3.0000
v -6.1000 4.0000 -0.1000
v -4.5750 7.5000 -2.6115
v -2.6414 7.5000 -4.4500
v -3.0500 4.0000 -5.1229
v -4.5750 7.5000 -2.6115
v -3.0500 4.0000 -5.1229
v -5.2828 4.0000 -3.0000
v -2.6414 7.5000 -4.4500
v -0.0000 7.5000 -5.1229
v -0.0000 4.0000 -5.9000
v -2.6414 7.5000 -4.4500
v -0.0000 4.0000 -5.9000
v -3.0500 4.0000 -5.1229
v -0.0000 7.5000 -5.1229
v 2.6414 7.5000 -4.4500
v 3.0500 4.0000 -5.1229
v -0.0000 7.5000 -5.1229
v 3.0500 4.0000 -5.1229
v -0.0000 4.0000 -5.9000
v 2.6414 7.5000 -4.4500
v 4.5750 7.5000 -2.6115
v 5.2828 4.0000 -3.0000
v 2.6414 7.5000 -4.4500
v 5.2828 4.0000 -3.0000
v 3.0500 4.0000 -5.1229
v 4.5750 7.5000 -2.6115
v 5.2828 7.5000 -0.1000
v 6.1000 4.0000 -0.1000
v 4.5750 7.5000 -2.6115
v 6.1000 4.0000 -0.1000
v 5.2828 4.0000 -3.0000
v -6.1500 2.6000 -6.5500
v -6.1500 4.6000 -6.5500
v 6.1500 4.6000 -6.5500
v -6.1500 2.6000 -6.5500
v 6.1500 4.6000 -6.5500
v 6.1500 2.6000 -6.5500
v 6.1500 2.6000 -4.8500
v 6.1500 4.6000 -4.8500
v -6.1500 4.6000 -4.8500
v 6.1500 2.6000 -4.8500
v -6.1500 4.6000 -4.8500
v -6.1500 2.6000 -4.8500
v -6.1500 2.6000 -4.8500
v -6.1500 4.6000 -4.8500
v -6.1500 4.6000 -6.5500
v -6.1500 2.6000 -4.8500
v -6.1500 4.6000 -6.5500
v -6.1500 2.6000 -6.5500
v 6.1500 2.6000 -6.5500
v 6.1500 4.6000 -6.5500
v 6.1500 4.6000 -4.8500
v 6.1500 2.6000 -6.5500
v 6.1500 4.6000 -4.8500
v 6.1500 2.6000 -4.8500
v -6.1500 4.6000 -6.5500
v -6.1500 4.6000 -4.8500
v 6.1500 4.6000 -4.8500
v -6.1500 4.6000 -6.5500
v 6.1500 4.6000 -4.8500
v 6.1500 4.6000 -6.5500
v -6.1500 2.6000 -4.8500
v -6.1500 2.6000 -6.5500
v 6.1500 2.6000 -6.5500
v -6.1500 2.6000 -4.8500
v 6.1500 2.6000 -6.5500
v 6.1500 2.6000 -4.8500
v -1.4000 -15.4000 -7.4500
v -1.4000 -12.6000 -7.4500
v 1.4000 -12.6000 -7.4500
v -1.4000 -15.4000 -7.4500
v 1.4000 -12.6000 -7.4500
v 1.4000 -15.4000 -7.4500
v 1.4000 -15.4000 -6.9500
v 1.4000 -12.6000 -6.9500
v -1.4000 -12.6000 -6.9500
v 1.4000 -15.4000 -6.9500
v -1.4000 -12.6000 -6.9500
v -1.4000 -15.4000 -6.9500
v -1.4000 -15.4000 -6.9500
v -1.4000 -12.6000 -6.9500
v -1.4000 -12.6000 -7.4500
v -1.4000 -15.4000 -6.9500
v -1.4000 -12.6000 -7.4500
v -1.4000 -15.4000 -7.4500
v 1.4000 -15.4000 -7.4500
v 1.4000 -12.6000 -7.4500
v 1.4000 -12.6000 -6.9500
v 1.4000 -15.4000 -7.4500
v 1.4000 -12.6000 -6.9500
v 1.4000 -15.4000 -6.9500
v -1.4000 -12.6000 -7.4500
v -1.4000 -12.6000 -6.9500
v 1.4000 -12.6000 -6.9500
v -1.4000 -12.6000 -7.4500
v 1.4000 -12.6000 -6.9500
v 1.4000 -12.6000 -7.4500
v -1.4000 -15.4000 -6.9500
v -1.4000 -15.4000 -7.4500
v 1.4000 -15.4000 -7.4500
v -1.4000 -15.4000 -6.9500
v 1.4000 -15.4000 -7.4500
v 1.4000 -15.4000 -6.9500
v 6.2499 -8.0118 6.8000
v 5.9749 -8.0059 6.3237
v 6.1750 5.9963 6.4969
v 6.2499 -8.0118 6.8000
v 6.1750 5.9963 6.4969
v 6.3499 5.9925 6.8000
v 5.7000 -8.0000 6.8000
v 5.9749 -8.0059 6.3237
v 6.2499 -8.0118 6.8000
v 6.0000 6.0000 6.8000
v 6.3499 5.9925 6.8000
v 6.1750 5.9963 6.4969
v 5.9749 -8.0059 6.3237
v 5.4251 -7.9941 6.3237
v 5.8250 6.0037 6.4969
v 5.9749 -8.0059 6.3237
v 5.8250 6.0037 6.4969
v 6.1750 5.9963 6.4969
v 5.7000 -8.0000 6.8000
v 5.4251 -7.9941 6.3237
v 5.9749 -8.0059 6.3237
v 6.0000 6.0000 6.8000
v 6.1750 5.9963 6.4969
v 5.8250 6.0037 6.4969
v 5.4251 -7.9941 6.3237
v 5.1501 -7.9882 6.8000
v 5.6501 6.0075 6.8000
v 5.4251 -7.9941 6.3237
v 5.6501 6.0075 6.8000
v 5.8250 6.0037 6.4969
v 5.7000 -8.0000 6.8000
v 5.1501 -7.9882 6.8000
v 5.4251 -7.9941 6.3237
v 6.0000 6.0000 6.8000
v 5.8250 6.0037 6.4969
v 5.6501 6.0075 6.8000
v 5.1501 -7.9882 6.8000
v 5.4251 -7.9941 7.2763
v 5.8250 6.0037 7.1031
v 5.1501 -7.9882 6.8000
v 5.8250 6.0037 7.1031
v 5.6501 6.0075 6.8000
v 5.7000 -8.0000 6.8000
v 5.4251 -7.9941 7.2763
v 5.1501 -7.9882 6.8000
v 6.0000 6.0000 6.8000
v 5.6501 6.0075 6.8000
v 5.8250 6.0037 7.1031
v 5.4251 -7.9941 7.2763
v 5.9749 -8.0059 7.2763
v 6.1750 5.9963 7.1031
v 5.4251 -7.9941 7.2763
v 6.1750 5.9963 7.1031
v 5.8250 6.0037 7.1031
v 5.7000 -8.0000 6.8000
v 5.9749 -8.0059 7.2763
v 5.4251 -7.9941 7.2763
v 6.0000 6.0000 6.8000
v 5.8250 6.0037 7.1031
v 6.1750 5.9963 7.1031
v 5.9749 -8.0059 7.2763
v 6.2499 -8.0118 6.8000
v 6.3499 5.9925 6.8000
v 5.9749 -8.0059 7.2763
v 6.3499 5.9925 6.8000
v 6.1750 5.9963 7.1031
v 5.7000 -8.0000 6.8000
v 6.2499 -8.0118 6.8000
v 5.9749 -8.0059 7.2763
v 6.0000 6.0000 6.8000
v 6.1750 5.9963 7.1031
v 6.3499 5.9925 6.8000
vt 0.015625 0.500000
vt 0.046875 0.500000
vt 0.078125 0.500000
vt 0.109375 0.500000
vt 0.140625 0.500000
vt 0.171875 0.500000
vt 0.203125 0.500000
vt 0.234375 0.500000
vt 0.265625 0.500000
vt 0.296875 0.500000
vt 0.328125 0.500000
vt 0.359375 0.500000
vt 0.390625 0.500000
vt 0.421875 0.500000
vt 0.453125 0.500000
vt 0.484375 0.500000
vt 0.515625 0.500000
vt 0.546875 0.500000
vt 0.578125 0.500000
vt 0.609375 0.500000
vt 0.640625 0.500000
vt 0.671875 0.500000
vt 0.703125 0.500000
vt 0.734375 0.500000
vt 0.765625 0.500000
vt 0.796875 0.500000
vt 0.828125 0.500000
vt 0.859375 0.500000
vt 0.890625 0.500000
vt 0.921875 0.500000
usemtl atlas
f 1/1 2/1 3/1
f 4/1 5/1 6/1
f 7/2 8/2 9/2
f 10/2 11/2 12/2
f 13/2 14/2 15/2
f 16/2 17/2 18/2
f 19/1 20/1 21/1
f 22/1 23/1 24/1
f 25/3 26/3 27/3
f 28/3 29/3 30/3
f 31/2 32/2 33/2
f 34/2 35/2 36/2
f 37/1 38/1 39/1
f 40/1 41/1 42/1
f 43/2 44/2 45/2
f 46/2 47/2 48/2
f 49/2 50/2 51/2
f 52/2 53/2 54/2
f 55/1 56/1 57/1
f 58/1 59/1 60/1
f 61/3 62/3 63/3
f 64/3 65/3 66/3
f 67/2 68/2 69/2
f 70/2 71/2 72/2
f 73/4 74/4 75/4
f 76/4 77/4 78/4
f 79/5 80/5 81/5
f 82/5 83/5 84/5
f 85/5 86/5 87/5
f 88/5 89/5 90/5
f 91/4 92/4 93/4
f 94/4 95/4 96/4
f 97/6 98/6 99/6
f 100/6 101/6 102/6
f 103/5 104/5 105/5
f 106/5 107/5 108/5
f 109/7 110/7 111/7
f 112/7 113/7 114/7
f 115/8 116/8 117/8
f 118/8 119/8 120/8
f 121/8 122/8 123/8
f 124/8 125/8 126/8
f 127/7 128/7 129/7
f 130/7 131/7 132/7
f 133/9 134/9 135/9
f 136/9 137/9 138/9
f 139/8 140/8 141/8
f 142/8 143/8 144/8
f 145/1 146/1 147/1
f 148/1 149/1 150/1
f 151/2 152/2 153/2
f 154/3 155/3 156/3
f 157/3 158/3 159/3
f 160/3 161/3 162/3
f 163/2 164/2 165/2
f 166/3 167/3 168/3
f 169/3 170/3 171/3
f 172/3 173/3 174/3
f 175/2 176/2 177/2
f 178/3 179/3 180/3
f 181/1 182/1 183/1
f 184/1 185/1 186/1
f 187/2 188/2 189/2
f 190/3 191/3 192/3
f 193/1 194/1 195/1
f 196/1 197/1 198/1
f 199/2 200/2 201/2
f 202/3 203/3 204/3
f 205/2 206/2 207/2
f 208/2 209/2 210/2
f 211/2 212/2 213/2
f 214/3 215/3 216/3
f 217/2 218/2 219/2
f 220/2 221/2 222/2
f 223/2 224/2 225/2
f 226/3 227/3 228/3
f 229/1 230/1 231/1
f 232/1 233/1 234/1
f 235/2 236/2 237/2
f 238/3 239/3 240/3
f 241/1 242/1 243/1
f 244/1 245/1 246/1
f 247/2 248/2 249/2
f 250/3 251/3 252/3
f 253/3 254/3 255/3
f 256/3 257/3 258/3
f 259/2 260/2 261/2
f 262/3 263/3 264/3
f 265/3 266/3 267/3
f 268/3 269/3 270/3
f 271/2 272/2 273/2
f 274/3 275/3 276/3
f 277/1 278/1 279/1
f 280/1 281/1 282/1
f 283/2 284/2 285/2
f 286/3 287/3 288/3
f 289/1 290/1 291/1
f 292/1 293/1 294/1
f 295/2 296/2 297/2
f 298/3 299/3 300/3
f 301/2 302/2 303/2
f 304/2 305/2 306/2
f 307/2 308/2 309/2
f 310/3 311/3 312/3
f 313/2 314/2 315/2
f 316/2 317/2 318/2
f 319/2 320/2 321/2
f 322/3 323/3 324/3
f 325/1 326/1 327/1
f 328/1 329/1 330/1
f 331/2 332/2 333/2
f 334/3 335/3 336/3
f 337/10 338/10 339/10
f 340/10 341/10 342/10
f 343/11 344/11 345/11
f 346/11 347/11 348/11
f 349/11 350/11 351/11
f 352/11 353/11 354/11
f 355/10 356/10 357/10
f 358/10 359/10 360/10
f 361/12 362/12 363/12
f 364/12 365/12 366/12
f 367/11 368/11 369/11
f 370/11 371/11 372/11
f 373/13 374/13 375/13
f 376/13 377/13 378/13
f 379/14 380/14 381/14
f 382/14 383/14 384/14
f 385/14 386/14 387/14
f 388/14 389/14 390/14
f 391/13 392/13 393/13
f 394/13 395/13 396/13
f 397/15 398/15 399/15
f 400/15 401/15 402/15
f 403/14 404/14 405/14
f 406/14 407/14 408/14
f 409/1 410/1 411/1
f 412/1 413/1 414/1
f 415/2 416/2 417/2
f 418/3 419/3 420/3
f 421/3 422/3 423/3
f 424/3 425/3 426/3
f 427/2 428/2 429/2
f 430/3 431/3 432/3
f 433/3 434/3 435/3
f 436/3 437/3 438/3
f 439/2 440/2 441/2
f 442/3 443/3 444/3
f 445/1 446/1 447/1
f 448/1 449/1 450/1
f 451/2 452/2 453/2
f 454/3 455/3 456/3
f 457/1 458/1 459/1
f 460/1 461/1 462/1
f 463/2 464/2 465/2
f 466/3 467/3 468/3
f 469/2 470/2 471/2
f 472/2 473/2 474/2
f 475/2 476/2 477/2
f 478/3 479/3 480/3
f 481/2 482/2 483/2
f 484/2 485/2 486/2
f 487/2 488/2 489/2
f 490/3 491/3 492/3
f 493/1 494/1 495/1
f 496/1 497/1 498/1
f 499/2 500/2 501/2
f 502/3 503/3 504/3
f 505/1 506/1 507/1
f 508/1 509/1 510/1
f 511/2 512/2 513/2
f 514/3 515/3 516/3
f 517/3 518/3 519/3
f 520/3 521/3 522/3
f 523/2 524/2 525/2
f 526/3 527/3 528/3
f 529/3 530/3 531/3
f 532/3 533/3 534/3
f 535/2 536/2 537/2
f 538/3 539/3 540/3
f 541/1 542/1 543/1
f 544/1 545/1 546/1
f 547/2 548/2 549/2
f 550/3 551/3 552/3
f 553/1 554/1 555/1
f 556/1 557/1 558/1
f 559/2 560/2 561/2
f 562/3 563/3 564/3
f 565/2 566/2 567/2
f 568/2 569/2 570/2
f 571/2 572/2 573/2
f 574/3 575/3 576/3
f 577/2 578/2 579/2
f 580/2 581/2 582/2
f 583/2 584/2 585/2
f 586/3 587/3 588/3
f 589/1 590/1 591/1
f 592/1 593/1 594/1
f 595/2 596/2 597/2
f 598/3 599/3 600/3
f 601/16 602/16 603/16
f 604/16 605/16 606/16
f 607/17 608/17 609/17
f 610/17 611/17 612/17
f 613/17 614/17 615/17
f 616/17 617/17 618/17
f 619/16 620/16 621/16
f 622/16 623/16 624/16
f 625/18 626/18 627/18
f 628/18 629/18 630/18
f 631/17 632/17 633/17
f 634/17 635/17 636/17
f 637/1 638/1 639/1
f 640/1 641/1 642/1
f 643/2 644/2 645/2
f 646/3 647/3 648/3
f 649/3 650/3 651/3
f 652/3 653/3 654/3
f 655/2 656/2 657/2
f 658/3 659/3 660/3
f 661/3 662/3 663/3
f 664/3 665/3 666/3
f 667/2 668/2 669/2
f 670/3 671/3 672/3
f 673/1 674/1 675/1
f 676/1 677/1 678/1
f 679/2 680/2 681/2
f 682/3 683/3 684/3
f 685/1 686/1 687/1
f 688/1 689/1 690/1
f 691/2 692/2 693/2
f 694/3 695/3 696/3
f 697/2 698/2 699/2
f 700/2 701/2 702/2
f 703/2 704/2 705/2
f 706/3 707/3 708/3
f 709/2 710/2 711/2
f 712/2 713/2 714/2
f 715/2 716/2 717/2
f 718/3 719/3 720/3
f 721/1 722/1 723/1
f 724/1 725/1 726/1
f 727/2 728/2 729/2
f 730/3 731/3 732/3
f 733/1 734/1 735/1
f 736/1 737/1 738/1
f 739/2 740/2 741/2
f 742/3 743/3 744/3
f 745/3 746/3 747/3
f 748/3 749/3 750/3
f 751/2 752/2 753/2
f 754/3 755/3 756/3
f 757/3 758/3 759/3
f 760/3 761/3 762/3
f 763/2 764/2 765/2
f 766/3 767/3 768/3
f 769/1 770/1 771/1
f 772/1 773/1 774/1
f 775/2 776/2 777/2
f 778/3 779/3 780/3
f 781/1 782/1 783/1
f 784/1 785/1 786/1
f 787/2 788/2 789/2
f 790/3 791/3 792/3
f 793/2 794/2 795/2
f 796/2 797/2 798/2
f 799/2 800/2 801/2
f 802/3 803/3 804/3
f 805/2 806/2 807/2
f 808/2 809/2 810/2
f 811/2 812/2 813/2
f 814/3 815/3 816/3
f 817/1 818/1 819/1
f 820/1 821/1 822/1
f 823/2 824/2 825/2
f 826/3 827/3 828/3
f 829/10 830/10 831/10
f 832/10 833/10 834/10
f 835/11 836/11 837/11
f 838/11 839/11 840/11
f 841/11 842/11 843/11
f 844/11 845/11 846/11
f 847/10 848/10 849/10
f 850/10 851/10 852/10
f 853/12 854/12 855/12
f 856/12 857/12 858/12
f 859/11 860/11 861/11
f 862/11 863/11 864/11
f 865/13 866/13 867/13
f 868/13 869/13 870/13
f 871/14 872/14 873/14
f 874/14 875/14 876/14
f 877/14 878/14 879/14
f 880/14 881/14 882/14
f 883/13 884/13 885/13
f 886/13 887/13 888/13
f 889/15 890/15 891/15
f 892/15 893/15 894/15
f 895/14 896/14 897/14
f 898/14 899/14 900/14
f 901/1 902/1 903/1
f 904/1 905/1 906/1
f 907/2 908/2 909/2
f 910/3 911/3 912/3
f 913/3 914/3 915/3
f 916/3 917/3 918/3
f 919/2 920/2 921/2
f 922/3 923/3 924/3
f 925/3 926/3 927/3
f 928/3 929/3 930/3
f 931/2 932/2 933/2
f 934/3 935/3 936/3
f 937/1 938/1 939/1
f 940/1 941/1 942/1
f 943/2 944/2 945/2
f 946/3 947/3 948/3
f 949/1 950/1 951/1
f 952/1 953/1 954/1
f 955/2 956/2 957/2
f 958/3 959/3 960/3
f 961/2 962/2 963/2
f 964/2 965/2 966/2
f 967/2 968/2 969/2
f 970/3 971/3 972/3
f 973/2 974/2 975/2
f 976/2 977/2 978/2
f 979/2 980/2 981/2
f 982/3 983/3 984/3
f 985/1 986/1 987/1
f 988/1 989/1 990/1
f 991/2 992/2 993/2
f 994/3 995/3 996/3
f 997/1 998/1 999/1
f 1000/1 1001/1 1002/1
f 1003/2 1004/2 1005/2
f 1006/3 1007/3 1008/3
f 1009/3 1010/3 1011/3
f 1012/3 1013/3 1014/3
f 1015/2 1016/2 1017/2
f 1018/3 1019/3 1020/3
f 1021/3 1022/3 1023/3
f 1024/3 1025/3 1026/3
f 1027/2 1028/2 1029/2
f 1030/3 1031/3 1032/3
f 1033/1 1034/1 1035/1
f 1036/1 1037/1 1038/1
f 1039/2 1040/2 1041/2
f 1042/3 1043/3 1044/3
f 1045/1 1046/1 1047/1
f 1048/1 1049/1 1050/1
f 1051/2 1052/2 1053/2
f 1054/3 1055/3 1056/3
f 1057/2 1058/2 1059/2
f 1060/2 1061/2 1062/2
f 1063/2 1064/2 1065/2
f 1066/3 1067/3 1068/3
f 1069/2 1070/2 1071/2
f 1072/2 1073/2 1074/2
f 1075/2 1076/2 1077/2
f 1078/3 1079/3 1080/3
f 1081/1 1082/1 1083/1
f 1084/1 1085/1 1086/1
f 1087/2 1088/2 1089/2
f 1090/3 1091/3 1092/3
f 1093/16 1094/16 1095/16
f 1096/16 1097/16 1098/16
f 1099/17 1100/17 1101/17
f 1102/17 1103/17 1104/17
f 1105/17 1106/17 1107/17
f 1108/17 1109/17 1110/17
f 1111/16 1112/16 1113/16
f 1114/16 1115/16 1116/16
f 1117/18 1118/18 1119/18
f 1120/18 1121/18 1122/18
f 1123/17 1124/17 1125/17
f 1126/17 1127/17 1128/17
f 1129/19 1130/19 1131/19
f 1132/19 1133/19 1134/19
f 1135/20 1136/20 1137/20
f 1138/21 1139/21 1140/21
f 1141/21 1142/21 1143/21
f 1144/21 1145/21 1146/21
f 1147/20 1148/20 1149/20
f 1150/21 1151/21 1152/21
f 1153/21 1154/21 1155/21
f 1156/21 1157/21 1158/21
f 1159/20 1160/20 1161/20
f 1162/21 1163/21 1164/21
f 1165/19 1166/19 1167/19
f 1168/19 1169/19 1170/19
f 1171/20 1172/20 1173/20
f 1174/21 1175/21 1176/21
f 1177/19 1178/19 1179/19
f 1180/19 1181/19 1182/19
f 1183/20 1184/20 1185/20
f 1186/21 1187/21 1188/21
f 1189/20 1190/20 1191/20
f 1192/20 1193/20 1194/20
f 1195/20 1196/20 1197/20
f 1198/21 1199/21 1200/21
f 1201/20 1202/20 1203/20
f 1204/20 1205/20 1206/20
f 1207/20 1208/20 1209/20
f 1210/21 1211/21 1212/21
f 1213/19 1214/19 1215/19
f 1216/19 1217/19 1218/19
f 1219/20 1220/20 1221/20
f 1222/21 1223/21 1224/21
f 1225/21 1226/21 1227/21
f 1228/21 1229/21 1230/21
f 1231/21 1232/21 1233/21
f 1234/21 1235/21 1236/21
f 1237/21 1238/21 1239/21
f 1240/21 1241/21 1242/21
f 1243/21 1244/21 1245/21
f 1246/21 1247/21 1248/21
f 1249/21 1250/21 1251/21
f 1252/21 1253/21 1254/21
f 1255/21 1256/21 1257/21
f 1258/21 1259/21 1260/21
f 1261/21 1262/21 1263/21
f 1264/21 1265/21 1266/21
f 1267/21 1268/21 1269/21
f 1270/21 1271/21 1272/21
f 1273/21 1274/21 1275/21
f 1276/21 1277/21 1278/21
f 1279/21 1280/21 1281/21
f 1282/21 1283/21 1284/21
f 1285/21 1286/21 1287/21
f 1288/21 1289/21 1290/21
f 1291/21 1292/21 1293/21
f 1294/21 1295/21 1296/21
f 1297/19 1298/19 1299/19
f 1300/19 1301/19 1302/19
f 1303/19 1304/19 1305/19
f 1306/19 1307/19 1308/19
f 1309/19 1310/19 1311/19
f 1312/19 1313/19 1314/19
f 1315/19 1316/19 1317/19
f 1318/19 1319/19 1320/19
f 1321/19 1322/19 1323/19
f 1324/19 1325/19 1326/19
f 1327/19 1328/19 1329/19
f 1330/19 1331/19 1332/19
f 1333/19 1334/19 1335/19
f 1336/19 1337/19 1338/19
f 1339/19 1340/19 1341/19
f 1342/19 1343/19 1344/19
f 1345/19 1346/19 1347/19
f 1348/19 1349/19 1350/19
f 1351/19 1352/19 1353/19
f 1354/19 1355/19 1356/19
f 1357/19 1358/19 1359/19
f 1360/19 1361/19 1362/19
f 1363/19 1364/19 1365/19
f 1366/19 1367/19 1368/19
f 1369/19 1370/19 1371/19
f 1372/19 1373/19 1374/19
f 1375/19 1376/19 1377/19
f 1378/19 1379/19 1380/19
f 1381/19 1382/19 1383/19
f 1384/19 1385/19 1386/19
f 1387/19 1388/19 1389/19
f 1390/19 1391/19 1392/19
f 1393/19 1394/19 1395/19
f 1396/19 1397/19 1398/19
f 1399/19 1400/19 1401/19
f 1402/19 1403/19 1404/19
f 1405/19 1406/19 1407/19
f 1408/19 1409/19 1410/19
f 1411/19 1412/19 1413/19
f 1414/19 1415/19 1416/19
f 1417/19 1418/19 1419/19
f 1420/19 1421/19 1422/19
f 1423/19 1424/19 1425/19
f 1426/19 1427/19 1428/19
f 1429/19 1430/19 1431/19
f 1432/19 1433/19 1434/19
f 1435/19 1436/19 1437/19
f 1438/19 1439/19 1440/19
f 1441/19 1442/19 1443/19
f 1444/19 1445/19 1446/19
f 1447/19 1448/19 1449/19
f 1450/19 1451/19 1452/19
f 1453/19 1454/19 1455/19
f 1456/19 1457/19 1458/19
f 1459/19 1460/19 1461/19
f 1462/19 1463/19 1464/19
f 1465/19 1466/19 1467/19
f 1468/19 1469/19 1470/19
f 1471/19 1472/19 1473/19
f 1474/19 1475/19 1476/19
f 1477/19 1478/19 1479/19
f 1480/19 1481/19 1482/19
f 1483/19 1484/19 1485/19
f 1486/19 1487/19 1488/19
f 1489/19 1490/19 1491/19
f 1492/19 1493/19 1494/19
f 1495/19 1496/19 1497/19
f 1498/19 1499/19 1500/19
f 1501/19 1502/19 1503/19
f 1504/19 1505/19 1506/19
f 1507/19 1508/19 1509/19
f 1510/19 1511/19 1512/19
f 1513/20 1514/20 1515/20
f 1516/20 1517/20 1518/20
f 1519/20 1520/20 1521/20
f 1522/20 1523/20 1524/20
f 1525/20 1526/20 1527/20
f 1528/20 1529/20 1530/20
f 1531/20 1532/20 1533/20
f 1534/20 1535/20 1536/20
f 1537/20 1538/20 1539/20
f 1540/20 1541/20 1542/20
f 1543/20 1544/20 1545/20
f 1546/20 1547/20 1548/20
f 1549/20 1550/20 1551/20
f 1552/20 1553/20 1554/20
f 1555/20 1556/20 1557/20
f 1558/20 1559/20 1560/20
f 1561/20 1562/20 1563/20
f 1564/20 1565/20 1566/20
f 1567/20 1568/20 1569/20
f 1570/20 1571/20 1572/20
f 1573/20 1574/20 1575/20
f 1576/20 1577/20 1578/20
f 1579/20 1580/20 1581/20
f 1582/20 1583/20 1584/20
f 1585/20 1586/20 1587/20
f 1588/20 1589/20 1590/20
f 1591/20 1592/20 1593/20
f 1594/20 1595/20 1596/20
f 1597/20 1598/20 1599/20
f 1600/20 1601/20 1602/20
f 1603/20 1604/20 1605/20
f 1606/20 1607/20 1608/20
f 1609/20 1610/20 1611/20
f 1612/20 1613/20 1614/20
f 1615/20 1616/20 1617/20
f 1618/20 1619/20 1620/20
f 1621/20 1622/20 1623/20
f 1624/20 1625/20 1626/20
f 1627/20 1628/20 1629/20
f 1630/20 1631/20 1632/20
f 1633/20 1634/20 1635/20
f 1636/20 1637/20 1638/20
f 1639/20 1640/20 1641/20
f 1642/20 1643/20 1644/20
f 1645/20 1646/20 1647/20
f 1648/20 1649/20 1650/20
f 1651/20 1652/20 1653/20
f 1654/20 1655/20 1656/20
f 1657/10 1658/10 1659/10
f 1660/10 1661/10 1662/10
f 1663/11 1664/11 1665/11
f 1666/11 1667/11 1668/11
f 1669/11 1670/11 1671/11
f 1672/11 1673/11 1674/11
f 1675/10 1676/10 1677/10
f 1678/10 1679/10 1680/10
f 1681/12 1682/12 1683/12
f 1684/12 1685/12 1686/12
f 1687/11 1688/11 1689/11
f 1690/11 1691/11 1692/11
f 1693/10 1694/10 1695/10
f 1696/10 1697/10 1698/10
f 1699/11 1700/11 1701/11
f 1702/11 1703/11 1704/11
f 1705/11 1706/11 1707/11
f 1708/11 1709/11 1710/11
f 1711/10 1712/10 1713/10
f 1714/10 1715/10 1716/10
f 1717/12 1718/12 1719/12
f 1720/12 1721/12 1722/12
f 1723/11 1724/11 1725/11
f 1726/11 1727/11 1728/11
f 1729/22 1730/22 1731/22
f 1732/22 1733/22 1734/22
f 1735/23 1736/23 1737/23
f 1738/23 1739/23 1740/23
f 1741/23 1742/23 1743/23
f 1744/23 1745/23 1746/23
f 1747/22 1748/22 1749/22
f 1750/22 1751/22 1752/22
f 1753/24 1754/24 1755/24
f 1756/24 1757/24 1758/24
f 1759/23 1760/23 1761/23
f 1762/23 1763/23 1764/23
f 1765/10 1766/10 1767/10
f 1768/10 1769/10 1770/10
f 1771/11 1772/11 1773/11
f 1774/11 1775/11 1776/11
f 1777/11 1778/11 1779/11
f 1780/11 1781/11 1782/11
f 1783/10 1784/10 1785/10
f 1786/10 1787/10 1788/10
f 1789/12 1790/12 1791/12
f 1792/12 1793/12 1794/12
f 1795/11 1796/11 1797/11
f 1798/11 1799/11 1800/11
f 1801/25 1802/25 1803/25
f 1804/25 1805/25 1806/25
f 1807/26 1808/26 1809/26
f 1810/26 1811/26 1812/26
f 1813/26 1814/26 1815/26
f 1816/26 1817/26 1818/26
f 1819/25 1820/25 1821/25
f 1822/25 1823/25 1824/25
f 1825/27 1826/27 1827/27
f 1828/27 1829/27 1830/27
f 1831/26 1832/26 1833/26
f 1834/26 1835/26 1836/26
f 1837/22 1838/22 1839/22
f 1840/22 1841/22 1842/22
f 1843/23 1844/23 1845/23
f 1846/23 1847/23 1848/23
f 1849/23 1850/23 1851/23
f 1852/23 1853/23 1854/23
f 1855/22 1856/22 1857/22
f 1858/22 1859/22 1860/22
f 1861/24 1862/24 1863/24
f 1864/24 1865/24 1866/24
f 1867/23 1868/23 1869/23
f 1870/23 1871/23 1872/23
f 1873/10 1874/10 1875/10
f 1876/10 1877/10 1878/10
f 1879/11 1880/11 1881/11
f 1882/11 1883/11 1884/11
f 1885/11 1886/11 1887/11
f 1888/11 1889/11 1890/11
f 1891/10 1892/10 1893/10
f 1894/10 1895/10 1896/10
f 1897/12 1898/12 1899/12
f 1900/12 1901/12 1902/12
f 1903/11 1904/11 1905/11
f 1906/11 1907/11 1908/11
f 1909/25 1910/25 1911/25
f 1912/25 1913/25 1914/25
f 1915/26 1916/26 1917/26
f 1918/26 1919/26 1920/26
f 1921/26 1922/26 1923/26
f 1924/26 1925/26 1926/26
f 1927/25 1928/25 1929/25
f 1930/25 1931/25 1932/25
f 1933/27 1934/27 1935/27
f 1936/27 1937/27 1938/27
f 1939/26 1940/26 1941/26
f 1942/26 1943/26 1944/26
f 1945/4 1946/4 1947/4
f 1948/4 1949/4 1950/4
f 1951/5 1952/5 1953/5
f 1954/5 1955/5 1956/5
f 1957/5 1958/5 1959/5
f 1960/5 1961/5 1962/5
f 1963/4 1964/4 1965/4
f 1966/4 1967/4 1968/4
f 1969/6 1970/6 1971/6
f 1972/6 1973/6 1974/6
f 1975/5 1976/5 1977/5
f 1978/5 1979/5 1980/5
f 1981/25 1982/25 1983/25
f 1984/25 1985/25 1986/25
f 1987/26 1988/26 1989/26
f 1990/26 1991/26 1992/26
f 1993/26 1994/26 1995/26
f 1996/26 1997/26 1998/26
f 1999/25 2000/25 2001/25
f 2002/25 2003/25 2004/25
f 2005/27 2006/27 2007/27
f 2008/27 2009/27 2010/27
f 2011/26 2012/26 2013/26
f 2014/26 2015/26 2016/26
f 2017/24 2018/24 2019/24
f 2020/24 2021/24 2022/24
f 2023/24 2024/24 2025/24
f 2026/24 2027/24 2028/24
f 2029/24 2030/24 2031/24
f 2032/24 2033/24 2034/24
f 2035/24 2036/24 2037/24
f 2038/24 2039/24 2040/24
f 2041/24 2042/24 2043/24
f 2044/24 2045/24 2046/24
f 2047/24 2048/24 2049/24
f 2050/24 2051/24 2052/24
f 2053/24 2054/24 2055/24
f 2056/24 2057/24 2058/24
f 2059/24 2060/24 2061/24
f 2062/24 2063/24 2064/24
f 2065/24 2066/24 2067/24
f 2068/24 2069/24 2070/24
f 2071/24 2072/24 2073/24
f 2074/24 2075/24 2076/24
f 2077/24 2078/24 2079/24
f 2080/24 2081/24 2082/24
f 2083/24 2084/24 2085/24
f 2086/24 2087/24 2088/24
f 2089/22 2090/22 2091/22
f 2092/22 2093/22 2094/22
f 2095/22 2096/22 2097/22
f 2098/22 2099/22 2100/22
f 2101/22 2102/22 2103/22
f 2104/22 2105/22 2106/22
f 2107/22 2108/22 2109/22
f 2110/22 2111/22 2112/22
f 2113/22 2114/22 2115/22
f 2116/22 2117/22 2118/22
f 2119/22 2120/22 2121/22
f 2122/22 2123/22 2124/22
f 2125/22 2126/22 2127/22
f 2128/22 2129/22 2130/22
f 2131/22 2132/22 2133/22
f 2134/22 2135/22 2136/22
f 2137/22 2138/22 2139/22
f 2140/22 2141/22 2142/22
f 2143/22 2144/22 2145/22
f 2146/22 2147/22 2148/22
f 2149/22 2150/22 2151/22
f 2152/22 2153/22 2154/22
f 2155/22 2156/22 2157/22
f 2158/22 2159/22 2160/22
f 2161/22 2162/22 2163/22
f 2164/22 2165/22 2166/22
f 2167/22 2168/22 2169/22
f 2170/22 2171/22 2172/22
f 2173/22 2174/22 2175/22
f 2176/22 2177/22 2178/22
f 2179/22 2180/22 2181/22
f 2182/22 2183/22 2184/22
f 2185/22 2186/22 2187/22
f 2188/22 2189/22 2190/22
f 2191/22 2192/22 2193/22
f 2194/22 2195/22 2196/22
f 2197/22 2198/22 2199/22
f 2200/22 2201/22 2202/22
f 2203/22 2204/22 2205/22
f 2206/22 2207/22 2208/22
f 2209/22 2210/22 2211/22
f 2212/22 2213/22 2214/22
f 2215/22 2216/22 2217/22
f 2218/22 2219/22 2220/22
f 2221/22 2222/22 2223/22
f 2224/22 2225/22 2226/22
f 2227/22 2228/22 2229/22
f 2230/22 2231/22 2232/22
f 2233/22 2234/22 2235/22
f 2236/22 2237/22 2238/22
f 2239/23 2240/23 2241/23
f 2242/23 2243/23 2244/23
f 2245/23 2246/23 2247/23
f 2248/23 2249/23 2250/23
f 2251/22 2252/22 2253/22
f 2254/22 2255/22 2256/22
f 2257/24 2258/24 2259/24
f 2260/24 2261/24 2262/24
f 2263/23 2264/23 2265/23
f 2266/23 2267/23 2268/23
f 2269/28 2270/28 2271/28
f 2272/28 2273/28 2274/28
f 2275/29 2276/29 2277/29
f 2278/29 2279/29 2280/29
f 2281/29 2282/29 2283/29
f 2284/29 2285/29 2286/29
f 2287/28 2288/28 2289/28
f 2290/28 2291/28 2292/28
f 2293/30 2294/30 2295/30
f 2296/30 2297/30 2298/30
f 2299/29 2300/29 2301/29
f 2302/29 2303/29 2304/29
f 2305/25 2306/25 2307/25
f 2308/25 2309/25 2310/25
f 2311/26 2312/26 2313/26
f 2314/27 2315/27 2316/27
f 2317/27 2318/27 2319/27
f 2320/27 2321/27 2322/27
f 2323/26 2324/26 2325/26
f 2326/27 2327/27 2328/27
f 2329/27 2330/27 2331/27
f 2332/27 2333/27 2334/27
f 2335/26 2336/26 2337/26
f 2338/27 2339/27 2340/27
f 2341/25 2342/25 2343/25
f 2344/25 2345/25 2346/25
f 2347/26 2348/26 2349/26
f 2350/27 2351/27 2352/27
f 2353/25 2354/25 2355/25
f 2356/25 2357/25 2358/25
f 2359/26 2360/26 2361/26
f 2362/27 2363/27 2364/27
f 2365/26 2366/26 2367/26
f 2368/26 2369/26 2370/26
f 2371/26 2372/26 2373/26
f 2374/27 2375/27 2376/27
