# Original low-poly nx-3D player model; regenerate with generate.py
mtllib terrorist.mtl
o terrorist
v -7.5000 -30.0000 -4.7500
v -11.0000 -10.0000 -5.5000
v 11.0000 -10.0000 -5.5000
v -7.5000 -30.0000 -4.7500
v 11.0000 -10.0000 -5.5000
v 7.5000 -30.0000 -4.7500
v 7.5000 -30.0000 4.7500
v 11.0000 -10.0000 5.5000
v -11.0000 -10.0000 5.5000
v 7.5000 -30.0000 4.7500
v -11.0000 -10.0000 5.5000
v -7.5000 -30.0000 4.7500
v -7.5000 -30.0000 4.7500
v -11.0000 -10.0000 5.5000
v -11.0000 -10.0000 -5.5000
v -7.5000 -30.0000 4.7500
v -11.0000 -10.0000 -5.5000
v -7.5000 -30.0000 -4.7500
v 7.5000 -30.0000 -4.7500
v 11.0000 -10.0000 -5.5000
v 11.0000 -10.0000 5.5000
v 7.5000 -30.0000 -4.7500
v 11.0000 -10.0000 5.5000
v 7.5000 -30.0000 4.7500
v -11.0000 -10.0000 -5.5000
v -11.0000 -10.0000 5.5000
v 11.0000 -10.0000 5.5000
v -11.0000 -10.0000 -5.5000
v 11.0000 -10.0000 5.5000
v 11.0000 -10.0000 -5.5000
v -7.5000 -30.0000 4.7500
v -7.5000 -30.0000 -4.7500
v 7.5000 -30.0000 -4.7500
v -7.5000 -30.0000 4.7500
v 7.5000 -30.0000 -4.7500
v 7.5000 -30.0000 4.7500
v -8.5000 -34.0000 -5.0000
v -7.5000 -27.0000 -4.5000
v 7.5000 -27.0000 -4.5000
v -8.5000 -34.0000 -5.0000
v 7.5000 -27.0000 -4.5000
v 8.5000 -34.0000 -5.0000
v 8.5000 -34.0000 5.0000
v 7.5000 -27.0000 4.5000
v -7.5000 -27.0000 4.5000
v 8.5000 -34.0000 5.0000
v -7.5000 -27.0000 4.5000
v -8.5000 -34.0000 5.0000
v -8.5000 -34.0000 5.0000
v -7.5000 -27.0000 4.5000
v -7.5000 -27.0000 -4.5000
v -8.5000 -34.0000 5.0000
v -7.5000 -27.0000 -4.5000
v -8.5000 -34.0000 -5.0000
v 8.5000 -34.0000 -5.0000
v 7.5000 -27.0000 -4.5000
v 7.5000 -27.0000 4.5000
v 8.5000 -34.0000 -5.0000
v 7.5000 -27.0000 4.5000
v 8.5000 -34.0000 5.0000
v -7.5000 -27.0000 -4.5000
v -7.5000 -27.0000 4.5000
v 7.5000 -27.0000 4.5000
v -7.5000 -27.0000 -4.5000
v 7.5000 -27.0000 4.5000
v 7.5000 -27.0000 -4.5000
v -8.5000 -34.0000 5.0000
v -8.5000 -34.0000 -5.0000
v 8.5000 -34.0000 -5.0000
v -8.5000 -34.0000 5.0000
v 8.5000 -34.0000 -5.0000
v 8.5000 -34.0000 5.0000
v -8.7500 -29.8500 -5.3500
v -8.7500 -27.1500 -5.3500
v 8.7500 -27.1500 -5.3500
v -8.7500 -29.8500 -5.3500
v 8.7500 -27.1500 -5.3500
v 8.7500 -29.8500 -5.3500
v 8.7500 -29.8500 5.1500
v 8.7500 -27.1500 5.1500
v -8.7500 -27.1500 5.1500
v 8.7500 -29.8500 5.1500
v -8.7500 -27.1500 5.1500
v -8.7500 -29.8500 5.1500
v -8.7500 -29.8500 5.1500
v -8.7500 -27.1500 5.1500
v -8.7500 -27.1500 -5.3500
v -8.7500 -29.8500 5.1500
v -8.7500 -27.1500 -5.3500
v -8.7500 -29.8500 -5.3500
v 8.7500 -29.8500 -5.3500
v 8.7500 -27.1500 -5.3500
v 8.7500 -27.1500 5.1500
v 8.7500 -29.8500 -5.3500
v 8.7500 -27.1500 5.1500
v 8.7500 -29.8500 5.1500
v -8.7500 -27.1500 -5.3500
v -8.7500 -27.1500 5.1500
v 8.7500 -27.1500 5.1500
v -8.7500 -27.1500 -5.3500
v 8.7500 -27.1500 5.1500
v 8.7500 -27.1500 -5.3500
v -8.7500 -29.8500 5.1500
v -8.7500 -29.8500 -5.3500
v 8.7500 -29.8500 -5.3500
v -8.7500 -29.8500 5.1500
v 8.7500 -29.8500 -5.3500
v 8.7500 -29.8500 5.1500
v -1.7500 -29.7500 -5.9500
v -1.7500 -27.0500 -5.9500
v 1.7500 -27.0500 -5.9500
v -1.7500 -29.7500 -5.9500
v 1.7500 -27.0500 -5.9500
v 1.7500 -29.7500 -5.9500
v 1.7500 -29.7500 -5.0500
v 1.7500 -27.0500 -5.0500
v -1.7500 -27.0500 -5.0500
v 1.7500 -29.7500 -5.0500
v -1.7500 -27.0500 -5.0500
v -1.7500 -29.7500 -5.0500
v -1.7500 -29.7500 -5.0500
v -1.7500 -27.0500 -5.0500
v -1.7500 -27.0500 -5.9500
v -1.7500 -29.7500 -5.0500
v -1.7500 -27.0500 -5.9500
v -1.7500 -29.7500 -5.9500
v 1.7500 -29.7500 -5.9500
v 1.7500 -27.0500 -5.9500
v 1.7500 -27.0500 -5.0500
v 1.7500 -29.7500 -5.9500
v 1.7500 -27.0500 -5.0500
v 1.7500 -29.7500 -5.0500
v -1.7500 -27.0500 -5.9500
v -1.7500 -27.0500 -5.0500
v 1.7500 -27.0500 -5.0500
v -1.7500 -27.0500 -5.9500
v 1.7500 -27.0500 -5.0500
v 1.7500 -27.0500 -5.9500
v -1.7500 -29.7500 -5.0500
v -1.7500 -29.7500 -5.9500
v 1.7500 -29.7500 -5.9500
v -1.7500 -29.7500 -5.0500
v 1.7500 -29.7500 -5.9500
v 1.7500 -29.7500 -5.0500
v -8.9926 -32.7544 0.0000
v -7.7818 -32.6246 -2.8921
v -8.0304 -42.6704 -3.2394
v -8.9926 -32.7544 0.0000
v -8.0304 -42.6704 -3.2394
v -9.0935 -42.7844 -0.7000
v -4.9000 -33.0000 0.0000
v -7.7818 -32.6246 -2.8921
v -8.9926 -32.7544 0.0000
v -5.5000 -43.0000 -0.7000
v -9.0935 -42.7844 -0.7000
v -8.0304 -42.6704 -3.2394
v -7.7818 -32.6246 -2.8921
v -4.8829 -32.7147 -4.0900
v -5.4850 -42.7495 -4.2912
v -7.7818 -32.6246 -2.8921
v -5.4850 -42.7495 -4.2912
v -8.0304 -42.6704 -3.2394
v -4.9000 -33.0000 0.0000
v -4.8829 -32.7147 -4.0900
v -7.7818 -32.6246 -2.8921
v -5.5000 -43.0000 -0.7000
v -8.0304 -42.6704 -3.2394
v -5.4850 -42.7495 -4.2912
v -4.8829 -32.7147 -4.0900
v -1.9940 -32.9719 -2.8921
v -2.9484 -42.9753 -3.2394
v -4.8829 -32.7147 -4.0900
v -2.9484 -42.9753 -3.2394
v -5.4850 -42.7495 -4.2912
v -4.9000 -33.0000 0.0000
v -1.9940 -32.9719 -2.8921
v -4.8829 -32.7147 -4.0900
v -5.5000 -43.0000 -0.7000
v -5.4850 -42.7495 -4.2912
v -2.9484 -42.9753 -3.2394
v -1.9940 -32.9719 -2.8921
v -0.8074 -33.2456 -0.0000
v -1.9065 -43.2156 -0.7000
v -1.9940 -32.9719 -2.8921
v -1.9065 -43.2156 -0.7000
v -2.9484 -42.9753 -3.2394
v -4.9000 -33.0000 0.0000
v -0.8074 -33.2456 -0.0000
v -1.9940 -32.9719 -2.8921
v -5.5000 -43.0000 -0.7000
v -2.9484 -42.9753 -3.2394
v -1.9065 -43.2156 -0.7000
v -0.8074 -33.2456 -0.0000
v -2.0182 -33.3754 2.8921
v -2.9696 -43.3296 1.8394
v -0.8074 -33.2456 -0.0000
v -2.9696 -43.3296 1.8394
v -1.9065 -43.2156 -0.7000
v -4.9000 -33.0000 0.0000
v -2.0182 -33.3754 2.8921
v -0.8074 -33.2456 -0.0000
v -5.5000 -43.0000 -0.7000
v -1.9065 -43.2156 -0.7000
v -2.9696 -43.3296 1.8394
v -2.0182 -33.3754 2.8921
v -4.9171 -33.2853 4.0900
v -5.5150 -43.2505 2.8912
v -2.0182 -33.3754 2.8921
v -5.5150 -43.2505 2.8912
v -2.9696 -43.3296 1.8394
v -4.9000 -33.0000 0.0000
v -4.9171 -33.2853 4.0900
v -2.0182 -33.3754 2.8921
v -5.5000 -43.0000 -0.7000
v -2.9696 -43.3296 1.8394
v -5.5150 -43.2505 2.8912
v -4.9171 -33.2853 4.0900
v -7.8060 -33.0281 2.8921
v -8.0516 -43.0247 1.8394
v -4.9171 -33.2853 4.0900
v -8.0516 -43.0247 1.8394
v -5.5150 -43.2505 2.8912
v -4.9000 -33.0000 0.0000
v -7.8060 -33.0281 2.8921
v -4.9171 -33.2853 4.0900
v -5.5000 -43.0000 -0.7000
v -5.5150 -43.2505 2.8912
v -8.0516 -43.0247 1.8394
v -7.8060 -33.0281 2.8921
v -8.9926 -32.7544 0.0000
v -9.0935 -42.7844 -0.7000
v -7.8060 -33.0281 2.8921
v -9.0935 -42.7844 -0.7000
v -8.0516 -43.0247 1.8394
v -4.9000 -33.0000 0.0000
v -8.9926 -32.7544 0.0000
v -7.8060 -33.0281 2.8921
v -5.5000 -43.0000 -0.7000
v -8.0516 -43.0247 1.8394
v -9.0935 -42.7844 -0.7000
v -8.9993 -42.9300 -0.7000
v -7.9773 -43.0987 -3.1704
v -7.6403 -58.0733 -1.6352
v -8.9993 -42.9300 -0.7000
v -7.6403 -58.0733 -1.6352
v -8.3995 -57.9480 0.2000
v -5.5000 -43.0000 -0.7000
v -7.9773 -43.0987 -3.1704
v -8.9993 -42.9300 -0.7000
v -5.8000 -58.0000 0.2000
v -8.3995 -57.9480 0.2000
v -7.6403 -58.0733 -1.6352
v -7.9773 -43.0987 -3.1704
v -5.5042 -43.2095 -4.1937
v -5.8031 -58.1557 -2.3953
v -7.9773 -43.0987 -3.1704
v -5.8031 -58.1557 -2.3953
v -7.6403 -58.0733 -1.6352
v -5.5000 -43.0000 -0.7000
v -5.5042 -43.2095 -4.1937
v -7.9773 -43.0987 -3.1704
v -5.8000 -58.0000 0.2000
v -7.6403 -58.0733 -1.6352
v -5.8031 -58.1557 -2.3953
v -5.5042 -43.2095 -4.1937
v -3.0286 -43.1977 -3.1704
v -3.9641 -58.1468 -1.6352
v -5.5042 -43.2095 -4.1937
v -3.9641 -58.1468 -1.6352
v -5.8031 -58.1557 -2.3953
v -5.5000 -43.0000 -0.7000
v -3.0286 -43.1977 -3.1704
v -5.5042 -43.2095 -4.1937
v -5.8000 -58.0000 0.2000
v -5.8031 -58.1557 -2.3953
v -3.9641 -58.1468 -1.6352
v -3.0286 -43.1977 -3.1704
v -2.0007 -43.0700 -0.7000
v -3.2005 -58.0520 0.2000
v -3.0286 -43.1977 -3.1704
v -3.2005 -58.0520 0.2000
v -3.9641 -58.1468 -1.6352
v -5.5000 -43.0000 -0.7000
v -2.0007 -43.0700 -0.7000
v -3.0286 -43.1977 -3.1704
v -5.8000 -58.0000 0.2000
v -3.9641 -58.1468 -1.6352
v -3.2005 -58.0520 0.2000
v -2.0007 -43.0700 -0.7000
v -3.0227 -42.9013 1.7704
v -3.9597 -57.9267 2.0352
v -2.0007 -43.0700 -0.7000
v -3.9597 -57.9267 2.0352
v -3.2005 -58.0520 0.2000
v -5.5000 -43.0000 -0.7000
v -3.0227 -42.9013 1.7704
v -2.0007 -43.0700 -0.7000
v -5.8000 -58.0000 0.2000
v -3.2005 -58.0520 0.2000
v -3.9597 -57.9267 2.0352
v -3.0227 -42.9013 1.7704
v -5.4958 -42.7905 2.7937
v -5.7969 -57.8443 2.7953
v -3.0227 -42.9013 1.7704
v -5.7969 -57.8443 2.7953
v -3.9597 -57.9267 2.0352
v -5.5000 -43.0000 -0.7000
v -5.4958 -42.7905 2.7937
v -3.0227 -42.9013 1.7704
v -5.8000 -58.0000 0.2000
v -3.9597 -57.9267 2.0352
v -5.7969 -57.8443 2.7953
v -5.4958 -42.7905 2.7937
v -7.9714 -42.8023 1.7704
v -7.6359 -57.8532 2.0352
v -5.4958 -42.7905 2.7937
v -7.6359 -57.8532 2.0352
v -5.7969 -57.8443 2.7953
v -5.5000 -43.0000 -0.7000
v -7.9714 -42.8023 1.7704
v -5.4958 -42.7905 2.7937
v -5.8000 -58.0000 0.2000
v -5.7969 -57.8443 2.7953
v -7.6359 -57.8532 2.0352
v -7.9714 -42.8023 1.7704
v -8.9993 -42.9300 -0.7000
v -8.3995 -57.9480 0.2000
v -7.9714 -42.8023 1.7704
v -8.3995 -57.9480 0.2000
v -7.6359 -57.8532 2.0352
v -5.5000 -43.0000 -0.7000
v -8.9993 -42.9300 -0.7000
v -7.9714 -42.8023 1.7704
v -5.8000 -58.0000 0.2000
v -7.6359 -57.8532 2.0352
v -8.3995 -57.9480 0.2000
v -8.7500 -45.4000 -3.7500
v -8.7500 -40.6000 -3.7500
v -2.2500 -40.6000 -3.7500
v -8.7500 -45.4000 -3.7500
v -2.2500 -40.6000 -3.7500
v -2.2500 -45.4000 -3.7500
v -2.2500 -45.4000 -2.4500
v -2.2500 -40.6000 -2.4500
v -8.7500 -40.6000 -2.4500
v -2.2500 -45.4000 -2.4500
v -8.7500 -40.6000 -2.4500
v -8.7500 -45.4000 -2.4500
v -8.7500 -45.4000 -2.4500
v -8.7500 -40.6000 -2.4500
v -8.7500 -40.6000 -3.7500
v -8.7500 -45.4000 -2.4500
v -8.7500 -40.6000 -3.7500
v -8.7500 -45.4000 -3.7500
v -2.2500 -45.4000 -3.7500
v -2.2500 -40.6000 -3.7500
v -2.2500 -40.6000 -2.4500
v -2.2500 -45.4000 -3.7500
v -2.2500 -40.6000 -2.4500
v -2.2500 -45.4000 -2.4500
v -8.7500 -40.6000 -3.7500
v -8.7500 -40.6000 -2.4500
v -2.2500 -40.6000 -2.4500
v -8.7500 -40.6000 -3.7500
v -2.2500 -40.6000 -2.4500
v -2.2500 -40.6000 -3.7500
v -8.7500 -45.4000 -2.4500
v -8.7500 -45.4000 -3.7500
v -2.2500 -45.4000 -3.7500
v -8.7500 -45.4000 -2.4500
v -2.2500 -45.4000 -3.7500
v -2.2500 -45.4000 -2.4500
v -9.3500 -64.0000 -8.1000
v -9.3500 -56.0000 -8.1000
v -2.2500 -56.0000 -8.1000
v -9.3500 -64.0000 -8.1000
v -2.2500 -56.0000 -8.1000
v -2.2500 -64.0000 -8.1000
v -2.2500 -64.0000 3.9000
v -2.2500 -56.0000 3.9000
v -9.3500 -56.0000 3.9000
v -2.2500 -64.0000 3.9000
v -9.3500 -56.0000 3.9000
v -9.3500 -64.0000 3.9000
v -9.3500 -64.0000 3.9000
v -9.3500 -56.0000 3.9000
v -9.3500 -56.0000 -8.1000
v -9.3500 -64.0000 3.9000
v -9.3500 -56.0000 -8.1000
v -9.3500 -64.0000 -8.1000
v -2.2500 -64.0000 -8.1000
v -2.2500 -56.0000 -8.1000
v -2.2500 -56.0000 3.9000
v -2.2500 -64.0000 -8.1000
v -2.2500 -56.0000 3.9000
v -2.2500 -64.0000 3.9000
v -9.3500 -56.0000 -8.1000
v -9.3500 -56.0000 3.9000
v -2.2500 -56.0000 3.9000
v -9.3500 -56.0000 -8.1000
v -2.2500 -56.0000 3.9000
v -2.2500 -56.0000 -8.1000
v -9.3500 -64.0000 3.9000
v -9.3500 -64.0000 -8.1000
v -2.2500 -64.0000 -8.1000
v -9.3500 -64.0000 3.9000
v -2.2500 -64.0000 -8.1000
v -2.2500 -64.0000 3.9000
v -15.2356 -11.2650 0.0000
v -14.0495 -11.3858 -2.8198
v -16.4196 -21.3886 -3.0558
v -15.2356 -11.2650 0.0000
v -16.4196 -21.3886 -3.0558
v -17.3685 -21.2920 -0.8000
v -11.4000 -12.4000 0.0000
v -14.0495 -11.3858 -2.8198
v -15.2356 -11.2650 0.0000
v -14.3000 -22.2000 -0.8000
v -17.3685 -21.2920 -0.8000
v -16.4196 -21.3886 -3.0558
v -14.0495 -11.3858 -2.8198
v -11.3114 -12.1007 -3.9878
v -14.2291 -21.9605 -3.9902
v -14.0495 -11.3858 -2.8198
v -14.2291 -21.9605 -3.9902
v -16.4196 -21.3886 -3.0558
v -11.4000 -12.4000 0.0000
v -11.3114 -12.1007 -3.9878
v -14.0495 -11.3858 -2.8198
v -14.3000 -22.2000 -0.8000
v -16.4196 -21.3886 -3.0558
v -14.2291 -21.9605 -3.9902
v -11.3114 -12.1007 -3.9878
v -8.6252 -12.9909 -2.8198
v -12.0802 -22.6727 -3.0558
v -11.3114 -12.1007 -3.9878
v -12.0802 -22.6727 -3.0558
v -14.2291 -21.9605 -3.9902
v -11.4000 -12.4000 0.0000
v -8.6252 -12.9909 -2.8198
v -11.3114 -12.1007 -3.9878
v -14.3000 -22.2000 -0.8000
v -14.2291 -21.9605 -3.9902
v -12.0802 -22.6727 -3.0558
v -8.6252 -12.9909 -2.8198
v -7.5644 -13.5350 -0.0000
v -11.2315 -23.1080 -0.8000
v -8.6252 -12.9909 -2.8198
v -11.2315 -23.1080 -0.8000
v -12.0802 -22.6727 -3.0558
v -11.4000 -12.4000 0.0000
v -7.5644 -13.5350 -0.0000
v -8.6252 -12.9909 -2.8198
v -14.3000 -22.2000 -0.8000
v -12.0802 -22.6727 -3.0558
v -11.2315 -23.1080 -0.8000
v -7.5644 -13.5350 -0.0000
v -8.7505 -13.4142 2.8198
v -12.1804 -23.0114 1.4558
v -7.5644 -13.5350 -0.0000
v -12.1804 -23.0114 1.4558
v -11.2315 -23.1080 -0.8000
v -11.4000 -12.4000 0.0000
v -8.7505 -13.4142 2.8198
v -7.5644 -13.5350 -0.0000
v -14.3000 -22.2000 -0.8000
v -11.2315 -23.1080 -0.8000
v -12.1804 -23.0114 1.4558
v -8.7505 -13.4142 2.8198
v -11.4886 -12.6993 3.9878
v -14.3709 -22.4395 2.3902
v -8.7505 -13.4142 2.8198
v -14.3709 -22.4395 2.3902
v -12.1804 -23.0114 1.4558
v -11.4000 -12.4000 0.0000
v -11.4886 -12.6993 3.9878
v -8.7505 -13.4142 2.8198
v -14.3000 -22.2000 -0.8000
v -12.1804 -23.0114 1.4558
v -14.3709 -22.4395 2.3902
v -11.4886 -12.6993 3.9878
v -14.1748 -11.8091 2.8198
v -16.5198 -21.7273 1.4558
v -11.4886 -12.6993 3.9878
v -16.5198 -21.7273 1.4558
v -14.3709 -22.4395 2.3902
v -11.4000 -12.4000 0.0000
v -14.1748 -11.8091 2.8198
v -11.4886 -12.6993 3.9878
v -14.3000 -22.2000 -0.8000
v -14.3709 -22.4395 2.3902
v -16.5198 -21.7273 1.4558
v -14.1748 -11.8091 2.8198
v -15.2356 -11.2650 0.0000
v -17.3685 -21.2920 -0.8000
v -14.1748 -11.8091 2.8198
v -17.3685 -21.2920 -0.8000
v -16.5198 -21.7273 1.4558
v -11.4000 -12.4000 0.0000
v -15.2356 -11.2650 0.0000
v -14.1748 -11.8091 2.8198
v -14.3000 -22.2000 -0.8000
v -16.5198 -21.7273 1.4558
v -17.3685 -21.2920 -0.8000
v -17.3982 -22.0956 -0.8000
v -16.4708 -21.5340 -2.9104
v -16.2106 -30.6059 -4.8658
v -17.3982 -22.0956 -0.8000
v -16.2106 -30.6059 -4.8658
v -16.8987 -31.0225 -3.3000
v -14.3000 -22.2000 -0.8000
v -16.4708 -21.5340 -2.9104
v -17.3982 -22.0956 -0.8000
v -14.6000 -31.1000 -3.3000
v -16.8987 -31.0225 -3.3000
v -16.2106 -30.6059 -4.8658
v -16.4708 -21.5340 -2.9104
v -14.2718 -21.3626 -3.7846
v -14.5791 -30.4787 -5.5144
v -16.4708 -21.5340 -2.9104
v -14.5791 -30.4787 -5.5144
v -16.2106 -30.6059 -4.8658
v -14.3000 -22.2000 -0.8000
v -14.2718 -21.3626 -3.7846
v -16.4708 -21.5340 -2.9104
v -14.6000 -31.1000 -3.3000
v -16.2106 -30.6059 -4.8658
v -14.5791 -30.4787 -5.5144
v -14.2718 -21.3626 -3.7846
v -12.0893 -21.6817 -2.9104
v -12.9598 -30.7155 -4.8658
v -14.2718 -21.3626 -3.7846
v -12.9598 -30.7155 -4.8658
v -14.5791 -30.4787 -5.5144
v -14.3000 -22.2000 -0.8000
v -12.0893 -21.6817 -2.9104
v -14.2718 -21.3626 -3.7846
v -14.6000 -31.1000 -3.3000
v -14.5791 -30.4787 -5.5144
v -12.9598 -30.7155 -4.8658
v -12.0893 -21.6817 -2.9104
v -11.2018 -22.3044 -0.8000
v -12.3013 -31.1775 -3.3000
v -12.0893 -21.6817 -2.9104
v -12.3013 -31.1775 -3.3000
v -12.9598 -30.7155 -4.8658
v -14.3000 -22.2000 -0.8000
v -11.2018 -22.3044 -0.8000
v -12.0893 -21.6817 -2.9104
v -14.6000 -31.1000 -3.3000
v -12.9598 -30.7155 -4.8658
v -12.3013 -31.1775 -3.3000
v -11.2018 -22.3044 -0.8000
v -12.1292 -22.8660 1.3104
v -12.9894 -31.5941 -1.7342
v -11.2018 -22.3044 -0.8000
v -12.9894 -31.5941 -1.7342
v -12.3013 -31.1775 -3.3000
v -14.3000 -22.2000 -0.8000
v -12.1292 -22.8660 1.3104
v -11.2018 -22.3044 -0.8000
v -14.6000 -31.1000 -3.3000
v -12.3013 -31.1775 -3.3000
v -12.9894 -31.5941 -1.7342
v -12.1292 -22.8660 1.3104
v -14.3282 -23.0374 2.1846
v -14.6209 -31.7213 -1.0856
v -12.1292 -22.8660 1.3104
v -14.6209 -31.7213 -1.0856
v -12.9894 -31.5941 -1.7342
v -14.3000 -22.2000 -0.8000
v -14.3282 -23.0374 2.1846
v -12.1292 -22.8660 1.3104
v -14.6000 -31.1000 -3.3000
v -12.9894 -31.5941 -1.7342
v -14.6209 -31.7213 -1.0856
v -14.3282 -23.0374 2.1846
v -16.5107 -22.7183 1.3104
v -16.2402 -31.4845 -1.7342
v -14.3282 -23.0374 2.1846
v -16.2402 -31.4845 -1.7342
v -14.6209 -31.7213 -1.0856
v -14.3000 -22.2000 -0.8000
v -16.5107 -22.7183 1.3104
v -14.3282 -23.0374 2.1846
v -14.6000 -31.1000 -3.3000
v -14.6209 -31.7213 -1.0856
v -16.2402 -31.4845 -1.7342
v -16.5107 -22.7183 1.3104
v -17.3982 -22.0956 -0.8000
v -16.8987 -31.0225 -3.3000
v -16.5107 -22.7183 1.3104
v -16.8987 -31.0225 -3.3000
v -16.2402 -31.4845 -1.7342
v -14.3000 -22.2000 -0.8000
v -17.3982 -22.0956 -0.8000
v -16.5107 -22.7183 1.3104
v -14.6000 -31.1000 -3.3000
v -16.2402 -31.4845 -1.7342
v -16.8987 -31.0225 -3.3000
v -17.0000 -35.1000 -5.8000
v -17.0000 -29.9000 -5.8000
v -12.2000 -29.9000 -5.8000
v -17.0000 -35.1000 -5.8000
v -12.2000 -29.9000 -5.8000
v -12.2000 -35.1000 -5.8000
v -12.2000 -35.1000 -0.8000
v -12.2000 -29.9000 -0.8000
v -17.0000 -29.9000 -0.8000
v -12.2000 -35.1000 -0.8000
v -17.0000 -29.9000 -0.8000
v -17.0000 -35.1000 -0.8000
v -17.0000 -35.1000 -0.8000
v -17.0000 -29.9000 -0.8000
v -17.0000 -29.9000 -5.8000
v -17.0000 -35.1000 -0.8000
v -17.0000 -29.9000 -5.8000
v -17.0000 -35.1000 -5.8000
v -12.2000 -35.1000 -5.8000
v -12.2000 -29.9000 -5.8000
v -12.2000 -29.9000 -0.8000
v -12.2000 -35.1000 -5.8000
v -12.2000 -29.9000 -0.8000
v -12.2000 -35.1000 -0.8000
v -17.0000 -29.9000 -5.8000
v -17.0000 -29.9000 -0.8000
v -12.2000 -29.9000 -0.8000
v -17.0000 -29.9000 -5.8000
v -12.2000 -29.9000 -0.8000
v -12.2000 -29.9000 -5.8000
v -17.0000 -35.1000 -0.8000
v -17.0000 -35.1000 -5.8000
v -12.2000 -35.1000 -5.8000
v -17.0000 -35.1000 -0.8000
v -12.2000 -35.1000 -5.8000
v -12.2000 -35.1000 -0.8000
v 0.8074 -33.2456 0.0000
v 1.9940 -32.9719 -2.8921
v 2.9484 -42.9753 -3.2394
v 0.8074 -33.2456 0.0000
v 2.9484 -42.9753 -3.2394
v 1.9065 -43.2156 -0.7000
v 4.9000 -33.0000 0.0000
v 1.9940 -32.9719 -2.8921
v 0.8074 -33.2456 0.0000
v 5.5000 -43.0000 -0.7000
v 1.9065 -43.2156 -0.7000
v 2.9484 -42.9753 -3.2394
v 1.9940 -32.9719 -2.8921
v 4.8829 -32.7147 -4.0900
v 5.4850 -42.7495 -4.2912
v 1.9940 -32.9719 -2.8921
v 5.4850 -42.7495 -4.2912
v 2.9484 -42.9753 -3.2394
v 4.9000 -33.0000 0.0000
v 4.8829 -32.7147 -4.0900
v 1.9940 -32.9719 -2.8921
v 5.5000 -43.0000 -0.7000
v 2.9484 -42.9753 -3.2394
v 5.4850 -42.7495 -4.2912
v 4.8829 -32.7147 -4.0900
v 7.7818 -32.6246 -2.8921
v 8.0304 -42.6704 -3.2394
v 4.8829 -32.7147 -4.0900
v 8.0304 -42.6704 -3.2394
v 5.4850 -42.7495 -4.2912
v 4.9000 -33.0000 0.0000
v 7.7818 -32.6246 -2.8921
v 4.8829 -32.7147 -4.0900
v 5.5000 -43.0000 -0.7000
v 5.4850 -42.7495 -4.2912
v 8.0304 -42.6704 -3.2394
v 7.7818 -32.6246 -2.8921
v 8.9926 -32.7544 -0.0000
v 9.0935 -42.7844 -0.7000
v 7.7818 -32.6246 -2.8921
v 9.0935 -42.7844 -0.7000
v 8.0304 -42.6704 -3.2394
v 4.9000 -33.0000 0.0000
v 8.9926 -32.7544 -0.0000
v 7.7818 -32.6246 -2.8921
v 5.5000 -43.0000 -0.7000
v 8.0304 -42.6704 -3.2394
v 9.0935 -42.7844 -0.7000
v 8.9926 -32.7544 -0.0000
v 7.8060 -33.0281 2.8921
v 8.0516 -43.0247 1.8394
v 8.9926 -32.7544 -0.0000
v 8.0516 -43.0247 1.8394
v 9.0935 -42.7844 -0.7000
v 4.9000 -33.0000 0.0000
v 7.8060 -33.0281 2.8921
v 8.9926 -32.7544 -0.0000
v 5.5000 -43.0000 -0.7000
v 9.0935 -42.7844 -0.7000
v 8.0516 -43.0247 1.8394
v 7.8060 -33.0281 2.8921
v 4.9171 -33.2853 4.0900
v 5.5150 -43.2505 2.8912
v 7.8060 -33.0281 2.8921
v 5.5150 -43.2505 2.8912
v 8.0516 -43.0247 1.8394
v 4.9000 -33.0000 0.0000
v 4.9171 -33.2853 4.0900
v 7.8060 -33.0281 2.8921
v 5.5000 -43.0000 -0.7000
v 8.0516 -43.0247 1.8394
v 5.5150 -43.2505 2.8912
v 4.9171 -33.2853 4.0900
v 2.0182 -33.3754 2.8921
v 2.9696 -43.3296 1.8394
v 4.9171 -33.2853 4.0900
v 2.9696 -43.3296 1.8394
v 5.5150 -43.2505 2.8912
v 4.9000 -33.0000 0.0000
v 2.0182 -33.3754 2.8921
v 4.9171 -33.2853 4.0900
v 5.5000 -43.0000 -0.7000
v 5.5150 -43.2505 2.8912
v 2.9696 -43.3296 1.8394
v 2.0182 -33.3754 2.8921
v 0.8074 -33.2456 0.0000
v 1.9065 -43.2156 -0.7000
v 2.0182 -33.3754 2.8921
v 1.9065 -43.2156 -0.7000
v 2.9696 -43.3296 1.8394
v 4.9000 -33.0000 0.0000
v 0.8074 -33.2456 0.0000
v 2.0182 -33.3754 2.8921
v 5.5000 -43.0000 -0.7000
v 2.9696 -43.3296 1.8394
v 1.9065 -43.2156 -0.7000
v 2.0007 -43.0700 -0.7000
v 3.0286 -43.1977 -3.1704
v 3.9641 -58.1468 -1.6352
v 2.0007 -43.0700 -0.7000
v 3.9641 -58.1468 -1.6352
v 3.2005 -58.0520 0.2000
v 5.5000 -43.0000 -0.7000
v 3.0286 -43.1977 -3.1704
v 2.0007 -43.0700 -0.7000
v 5.8000 -58.0000 0.2000
v 3.2005 -58.0520 0.2000
v 3.9641 -58.1468 -1.6352
v 3.0286 -43.1977 -3.1704
v 5.5042 -43.2095 -4.1937
v 5.8031 -58.1557 -2.3953
v 3.0286 -43.1977 -3.1704
v 5.8031 -58.1557 -2.3953
v 3.9641 -58.1468 -1.6352
v 5.5000 -43.0000 -0.7000
v 5.5042 -43.2095 -4.1937
v 3.0286 -43.1977 -3.1704
v 5.8000 -58.0000 0.2000
v 3.9641 -58.1468 -1.6352
v 5.8031 -58.1557 -2.3953
v 5.5042 -43.2095 -4.1937
v 7.9773 -43.0987 -3.1704
v 7.6403 -58.0733 -1.6352
v 5.5042 -43.2095 -4.1937
v 7.6403 -58.0733 -1.6352
v 5.8031 -58.1557 -2.3953
v 5.5000 -43.0000 -0.7000
v 7.9773 -43.0987 -3.1704
v 5.5042 -43.2095 -4.1937
v 5.8000 -58.0000 0.2000
v 5.8031 -58.1557 -2.3953
v 7.6403 -58.0733 -1.6352
v 7.9773 -43.0987 -3.1704
v 8.9993 -42.9300 -0.7000
v 8.3995 -57.9480 0.2000
v 7.9773 -43.0987 -3.1704
v 8.3995 -57.9480 0.2000
v 7.6403 -58.0733 -1.6352
v 5.5000 -43.0000 -0.7000
v 8.9993 -42.9300 -0.7000
v 7.9773 -43.0987 -3.1704
v 5.8000 -58.0000 0.2000
v 7.6403 -58.0733 -1.6352
v 8.3995 -57.9480 0.2000
v 8.9993 -42.9300 -0.7000
v 7.9714 -42.8023 1.7704
v 7.6359 -57.8532 2.0352
v 8.9993 -42.9300 -0.7000
v 7.6359 -57.8532 2.0352
v 8.3995 -57.9480 0.2000
v 5.5000 -43.0000 -0.7000
v 7.9714 -42.8023 1.7704
v 8.9993 -42.9300 -0.7000
v 5.8000 -58.0000 0.2000
v 8.3995 -57.9480 0.2000
v 7.6359 -57.8532 2.0352
v 7.9714 -42.8023 1.7704
v 5.4958 -42.7905 2.7937
v 5.7969 -57.8443 2.7953
v 7.9714 -42.8023 1.7704
v 5.7969 -57.8443 2.7953
v 7.6359 -57.8532 2.0352
v 5.5000 -43.0000 -0.7000
v 5.4958 -42.7905 2.7937
v 7.9714 -42.8023 1.7704
v 5.8000 -58.0000 0.2000
v 7.6359 -57.8532 2.0352
v 5.7969 -57.8443 2.7953
v 5.4958 -42.7905 2.7937
v 3.0227 -42.9013 1.7704
v 3.9597 -57.9267 2.0352
v 5.4958 -42.7905 2.7937
v 3.9597 -57.9267 2.0352
v 5.7969 -57.8443 2.7953
v 5.5000 -43.0000 -0.7000
v 3.0227 -42.9013 1.7704
v 5.4958 -42.7905 2.7937
v 5.8000 -58.0000 0.2000
v 5.7969 -57.8443 2.7953
v 3.9597 -57.9267 2.0352
v 3.0227 -42.9013 1.7704
v 2.0007 -43.0700 -0.7000
v 3.2005 -58.0520 0.2000
v 3.0227 -42.9013 1.7704
v 3.2005 -58.0520 0.2000
v 3.9597 -57.9267 2.0352
v 5.5000 -43.0000 -0.7000
v 2.0007 -43.0700 -0.7000
v 3.0227 -42.9013 1.7704
v 5.8000 -58.0000 0.2000
v 3.9597 -57.9267 2.0352
v 3.2005 -58.0520 0.2000
v 2.2500 -45.4000 -3.7500
v 2.2500 -40.6000 -3.7500
v 8.7500 -40.6000 -3.7500
v 2.2500 -45.4000 -3.7500
v 8.7500 -40.6000 -3.7500
v 8.7500 -45.4000 -3.7500
v 8.7500 -45.4000 -2.4500
v 8.7500 -40.6000 -2.4500
v 2.2500 -40.6000 -2.4500
v 8.7500 -45.4000 -2.4500
v 2.2500 -40.6000 -2.4500
v 2.2500 -45.4000 -2.4500
v 2.2500 -45.4000 -2.4500
v 2.2500 -40.6000 -2.4500
v 2.2500 -40.6000 -3.7500
v 2.2500 -45.4000 -2.4500
v 2.2500 -40.6000 -3.7500
v 2.2500 -45.4000 -3.7500
v 8.7500 -45.4000 -3.7500
v 8.7500 -40.6000 -3.7500
v 8.7500 -40.6000 -2.4500
v 8.7500 -45.4000 -3.7500
v 8.7500 -40.6000 -2.4500
v 8.7500 -45.4000 -2.4500
v 2.2500 -40.6000 -3.7500
v 2.2500 -40.6000 -2.4500
v 8.7500 -40.6000 -2.4500
v 2.2500 -40.6000 -3.7500
v 8.7500 -40.6000 -2.4500
v 8.7500 -40.6000 -3.7500
v 2.2500 -45.4000 -2.4500
v 2.2500 -45.4000 -3.7500
v 8.7500 -45.4000 -3.7500
v 2.2500 -45.4000 -2.4500
v 8.7500 -45.4000 -3.7500
v 8.7500 -45.4000 -2.4500
v 2.2500 -64.0000 -8.1000
v 2.2500 -56.0000 -8.1000
v 9.3500 -56.0000 -8.1000
v 2.2500 -64.0000 -8.1000
v 9.3500 -56.0000 -8.1000
v 9.3500 -64.0000 -8.1000
v 9.3500 -64.0000 3.9000
v 9.3500 -56.0000 3.9000
v 2.2500 -56.0000 3.9000
v 9.3500 -64.0000 3.9000
v 2.2500 -56.0000 3.9000
v 2.2500 -64.0000 3.9000
v 2.2500 -64.0000 3.9000
v 2.2500 -56.0000 3.9000
v 2.2500 -56.0000 -8.1000
v 2.2500 -64.0000 3.9000
v 2.2500 -56.0000 -8.1000
v 2.2500 -64.0000 -8.1000
v 9.3500 -64.0000 -8.1000
v 9.3500 -56.0000 -8.1000
v 9.3500 -56.0000 3.9000
v 9.3500 -64.0000 -8.1000
v 9.3500 -56.0000 3.9000
v 9.3500 -64.0000 3.9000
v 2.2500 -56.0000 -8.1000
v 2.2500 -56.0000 3.9000
v 9.3500 -56.0000 3.9000
v 2.2500 -56.0000 -8.1000
v 9.3500 -56.0000 3.9000
v 9.3500 -56.0000 -8.1000
v 2.2500 -64.0000 3.9000
v 2.2500 -64.0000 -8.1000
v 9.3500 -64.0000 -8.1000
v 2.2500 -64.0000 3.9000
v 9.3500 -64.0000 -8.1000
v 9.3500 -64.0000 3.9000
v 7.5644 -13.5350 0.0000
v 8.6252 -12.9909 -2.8198
v 12.0802 -22.6727 -3.0558
v 7.5644 -13.5350 0.0000
v 12.0802 -22.6727 -3.0558
v 11.2315 -23.1080 -0.8000
v 11.4000 -12.4000 0.0000
v 8.6252 -12.9909 -2.8198
v 7.5644 -13.5350 0.0000
v 14.3000 -22.2000 -0.8000
v 11.2315 -23.1080 -0.8000
v 12.0802 -22.6727 -3.0558
v 8.6252 -12.9909 -2.8198
v 11.3114 -12.1007 -3.9878
v 14.2291 -21.9605 -3.9902
v 8.6252 -12.9909 -2.8198
v 14.2291 -21.9605 -3.9902
v 12.0802 -22.6727 -3.0558
v 11.4000 -12.4000 0.0000
v 11.3114 -12.1007 -3.9878
v 8.6252 -12.9909 -2.8198
v 14.3000 -22.2000 -0.8000
v 12.0802 -22.6727 -3.0558
v 14.2291 -21.9605 -3.9902
v 11.3114 -12.1007 -3.9878
v 14.0495 -11.3858 -2.8198
v 16.4196 -21.3886 -3.0558
v 11.3114 -12.1007 -3.9878
v 16.4196 -21.3886 -3.0558
v 14.2291 -21.9605 -3.9902
v 11.4000 -12.4000 0.0000
v 14.0495 -11.3858 -2.8198
v 11.3114 -12.1007 -3.9878
v 14.3000 -22.2000 -0.8000
v 14.2291 -21.9605 -3.9902
v 16.4196 -21.3886 -3.0558
v 14.0495 -11.3858 -2.8198
v 15.2356 -11.2650 -0.0000
v 17.3685 -21.2920 -0.8000
v 14.0495 -11.3858 -2.8198
v 17.3685 -21.2920 -0.8000
v 16.4196 -21.3886 -3.0558
v 11.4000 -12.4000 0.0000
v 15.2356 -11.2650 -0.0000
v 14.0495 -11.3858 -2.8198
v 14.3000 -22.2000 -0.8000
v 16.4196 -21.3886 -3.0558
v 17.3685 -21.2920 -0.8000
v 15.2356 -11.2650 -0.0000
v 14.1748 -11.8091 2.8198
v 16.5198 -21.7273 1.4558
v 15.2356 -11.2650 -0.0000
v 16.5198 -21.7273 1.4558
v 17.3685 -21.2920 -0.8000
v 11.4000 -12.4000 0.0000
v 14.1748 -11.8091 2.8198
v 15.2356 -11.2650 -0.0000
v 14.3000 -22.2000 -0.8000
v 17.3685 -21.2920 -0.8000
v 16.5198 -21.7273 1.4558
v 14.1748 -11.8091 2.8198
v 11.4886 -12.6993 3.9878
v 14.3709 -22.4395 2.3902
v 14.1748 -11.8091 2.8198
v 14.3709 -22.4395 2.3902
v 16.5198 -21.7273 1.4558
v 11.4000 -12.4000 0.0000
v 11.4886 -12.6993 3.9878
v 14.1748 -11.8091 2.8198
v 14.3000 -22.2000 -0.8000
v 16.5198 -21.7273 1.4558
v 14.3709 -22.4395 2.3902
v 11.4886 -12.6993 3.9878
v 8.7505 -13.4142 2.8198
v 12.1804 -23.0114 1.4558
v 11.4886 -12.6993 3.9878
v 12.1804 -23.0114 1.4558
v 14.3709 -22.4395 2.3902
v 11.4000 -12.4000 0.0000
v 8.7505 -13.4142 2.8198
v 11.4886 -12.6993 3.9878
v 14.3000 -22.2000 -0.8000
v 14.3709 -22.4395 2.3902
v 12.1804 -23.0114 1.4558
v 8.7505 -13.4142 2.8198
v 7.5644 -13.5350 0.0000
v 11.2315 -23.1080 -0.8000
v 8.7505 -13.4142 2.8198
v 11.2315 -23.1080 -0.8000
v 12.1804 -23.0114 1.4558
v 11.4000 -12.4000 0.0000
v 7.5644 -13.5350 0.0000
v 8.7505 -13.4142 2.8198
v 14.3000 -22.2000 -0.8000
v 12.1804 -23.0114 1.4558
v 11.2315 -23.1080 -0.8000
v 11.2018 -22.3044 -0.8000
v 12.0893 -21.6817 -2.9104
v 12.9598 -30.7155 -4.8658
v 11.2018 -22.3044 -0.8000
v 12.9598 -30.7155 -4.8658
v 12.3013 -31.1775 -3.3000
v 14.3000 -22.2000 -0.8000
v 12.0893 -21.6817 -2.9104
v 11.2018 -22.3044 -0.8000
v 14.6000 -31.1000 -3.3000
v 12.3013 -31.1775 -3.3000
v 12.9598 -30.7155 -4.8658
v 12.0893 -21.6817 -2.9104
v 14.2718 -21.3626 -3.7846
v 14.5791 -30.4787 -5.5144
v 12.0893 -21.6817 -2.9104
v 14.5791 -30.4787 -5.5144
v 12.9598 -30.7155 -4.8658
v 14.3000 -22.2000 -0.8000
v 14.2718 -21.3626 -3.7846
v 12.0893 -21.6817 -2.9104
v 14.6000 -31.1000 -3.3000
v 12.9598 -30.7155 -4.8658
v 14.5791 -30.4787 -5.5144
v 14.2718 -21.3626 -3.7846
v 16.4708 -21.5340 -2.9104
v 16.2106 -30.6059 -4.8658
v 14.2718 -21.3626 -3.7846
v 16.2106 -30.6059 -4.8658
v 14.5791 -30.4787 -5.5144
v 14.3000 -22.2000 -0.8000
v 16.4708 -21.5340 -2.9104
v 14.2718 -21.3626 -3.7846
v 14.6000 -31.1000 -3.3000
v 14.5791 -30.4787 -5.5144
v 16.2106 -30.6059 -4.8658
v 16.4708 -21.5340 -2.9104
v 17.3982 -22.0956 -0.8000
v 16.8987 -31.0225 -3.3000
v 16.4708 -21.5340 -2.9104
v 16.8987 -31.0225 -3.3000
v 16.2106 -30.6059 -4.8658
v 14.3000 -22.2000 -0.8000
v 17.3982 -22.0956 -0.8000
v 16.4708 -21.5340 -2.9104
v 14.6000 -31.1000 -3.3000
v 16.2106 -30.6059 -4.8658
v 16.8987 -31.0225 -3.3000
v 17.3982 -22.0956 -0.8000
v 16.5107 -22.7183 1.3104
v 16.2402 -31.4845 -1.7342
v 17.3982 -22.0956 -0.8000
v 16.2402 -31.4845 -1.7342
v 16.8987 -31.0225 -3.3000
v 14.3000 -22.2000 -0.8000
v 16.5107 -22.7183 1.3104
v 17.3982 -22.0956 -0.8000
v 14.6000 -31.1000 -3.3000
v 16.8987 -31.0225 -3.3000
v 16.2402 -31.4845 -1.7342
v 16.5107 -22.7183 1.3104
v 14.3282 -23.0374 2.1846
v 14.6209 -31.7213 -1.0856
v 16.5107 -22.7183 1.3104
v 14.6209 -31.7213 -1.0856
v 16.2402 -31.4845 -1.7342
v 14.3000 -22.2000 -0.8000
v 14.3282 -23.0374 2.1846
v 16.5107 -22.7183 1.3104
v 14.6000 -31.1000 -3.3000
v 16.2402 -31.4845 -1.7342
v 14.6209 -31.7213 -1.0856
v 14.3282 -23.0374 2.1846
v 12.1292 -22.8660 1.3104
v 12.9894 -31.5941 -1.7342
v 14.3282 -23.0374 2.1846
v 12.9894 -31.5941 -1.7342
v 14.6209 -31.7213 -1.0856
v 14.3000 -22.2000 -0.8000
v 12.1292 -22.8660 1.3104
v 14.3282 -23.0374 2.1846
v 14.6000 -31.1000 -3.3000
v 14.6209 -31.7213 -1.0856
v 12.9894 -31.5941 -1.7342
v 12.1292 -22.8660 1.3104
v 11.2018 -22.3044 -0.8000
v 12.3013 -31.1775 -3.3000
v 12.1292 -22.8660 1.3104
v 12.3013 -31.1775 -3.3000
v 12.9894 -31.5941 -1.7342
v 14.3000 -22.2000 -0.8000
v 11.2018 -22.3044 -0.8000
v 12.1292 -22.8660 1.3104
v 14.6000 -31.1000 -3.3000
v 12.9894 -31.5941 -1.7342
v 12.3013 -31.1775 -3.3000
v 12.2000 -35.1000 -5.8000
v 12.2000 -29.9000 -5.8000
v 17.0000 -29.9000 -5.8000
v 12.2000 -35.1000 -5.8000
v 17.0000 -29.9000 -5.8000
v 17.0000 -35.1000 -5.8000
v 17.0000 -35.1000 -0.8000
v 17.0000 -29.9000 -0.8000
v 12.2000 -29.9000 -0.8000
v 17.0000 -35.1000 -0.8000
v 12.2000 -29.9000 -0.8000
v 12.2000 -35.1000 -0.8000
v 12.2000 -35.1000 -0.8000
v 12.2000 -29.9000 -0.8000
v 12.2000 -29.9000 -5.8000
v 12.2000 -35.1000 -0.8000
v 12.2000 -29.9000 -5.8000
v 12.2000 -35.1000 -5.8000
v 17.0000 -35.1000 -5.8000
v 17.0000 -29.9000 -5.8000
v 17.0000 -29.9000 -0.8000
v 17.0000 -35.1000 -5.8000
v 17.0000 -29.9000 -0.8000
v 17.0000 -35.1000 -0.8000
v 12.2000 -29.9000 -5.8000
v 12.2000 -29.9000 -0.8000
v 17.0000 -29.9000 -0.8000
v 12.2000 -29.9000 -5.8000
v 17.0000 -29.9000 -0.8000
v 17.0000 -29.9000 -5.8000
v 12.2000 -35.1000 -0.8000
v 12.2000 -35.1000 -5.8000
v 17.0000 -35.1000 -5.8000
v 12.2000 -35.1000 -0.8000
v 17.0000 -35.1000 -5.8000
v 17.0000 -35.1000 -0.8000
v 2.8000 -10.0000 0.0000
v 1.9799 -10.0000 -1.9799
v 1.7678 -5.0000 -1.7678
v 2.8000 -10.0000 0.0000
v 1.7678 -5.0000 -1.7678
v 2.5000 -5.0000 0.0000
v 0.0000 -10.0000 0.0000
v 1.9799 -10.0000 -1.9799
v 2.8000 -10.0000 0.0000
v 0.0000 -5.0000 0.0000
v 2.5000 -5.0000 0.0000
v 1.7678 -5.0000 -1.7678
v 1.9799 -10.0000 -1.9799
v 0.0000 -10.0000 -2.8000
v 0.0000 -5.0000 -2.5000
v 1.9799 -10.0000 -1.9799
v 0.0000 -5.0000 -2.5000
v 1.7678 -5.0000 -1.7678
v 0.0000 -10.0000 0.0000
v 0.0000 -10.0000 -2.8000
v 1.9799 -10.0000 -1.9799
v 0.0000 -5.0000 0.0000
v 1.7678 -5.0000 -1.7678
v 0.0000 -5.0000 -2.5000
v 0.0000 -10.0000 -2.8000
v -1.9799 -10.0000 -1.9799
v -1.7678 -5.0000 -1.7678
v 0.0000 -10.0000 -2.8000
v -1.7678 -5.0000 -1.7678
v 0.0000 -5.0000 -2.5000
v 0.0000 -10.0000 0.0000
v -1.9799 -10.0000 -1.9799
v 0.0000 -10.0000 -2.8000
v 0.0000 -5.0000 0.0000
v 0.0000 -5.0000 -2.5000
v -1.7678 -5.0000 -1.7678
v -1.9799 -10.0000 -1.9799
v -2.8000 -10.0000 -0.0000
v -2.5000 -5.0000 -0.0000
v -1.9799 -10.0000 -1.9799
v -2.5000 -5.0000 -0.0000
v -1.7678 -5.0000 -1.7678
v 0.0000 -10.0000 0.0000
v -2.8000 -10.0000 -0.0000
v -1.9799 -10.0000 -1.9799
v 0.0000 -5.0000 0.0000
v -1.7678 -5.0000 -1.7678
v -2.5000 -5.0000 -0.0000
v -2.8000 -10.0000 -0.0000
v -1.9799 -10.0000 1.9799
v -1.7678 -5.0000 1.7678
v -2.8000 -10.0000 -0.0000
v -1.7678 -5.0000 1.7678
v -2.5000 -5.0000 -0.0000
v 0.0000 -10.0000 0.0000
v -1.9799 -10.0000 1.9799
v -2.8000 -10.0000 -0.0000
v 0.0000 -5.0000 0.0000
v -2.5000 -5.0000 -0.0000
v -1.7678 -5.0000 1.7678
v -1.9799 -10.0000 1.9799
v -0.0000 -10.0000 2.8000
v -0.0000 -5.0000 2.5000
v -1.9799 -10.0000 1.9799
v -0.0000 -5.0000 2.5000
v -1.7678 -5.0000 1.7678
v 0.0000 -10.0000 0.0000
v -0.0000 -10.0000 2.8000
v -1.9799 -10.0000 1.9799
v 0.0000 -5.0000 0.0000
v -1.7678 -5.0000 1.7678
v -0.0000 -5.0000 2.5000
v -0.0000 -10.0000 2.8000
v 1.9799 -10.0000 1.9799
v 1.7678 -5.0000 1.7678
v -0.0000 -10.0000 2.8000
v 1.7678 -5.0000 1.7678
v -0.0000 -5.0000 2.5000
v 0.0000 -10.0000 0.0000
v 1.9799 -10.0000 1.9799
v -0.0000 -10.0000 2.8000
v 0.0000 -5.0000 0.0000
v -0.0000 -5.0000 2.5000
v 1.7678 -5.0000 1.7678
v 1.9799 -10.0000 1.9799
v 2.8000 -10.0000 0.0000
v 2.5000 -5.0000 0.0000
v 1.9799 -10.0000 1.9799
v 2.5000 -5.0000 0.0000
v 1.7678 -5.0000 1.7678
v 0.0000 -10.0000 0.0000
v 2.8000 -10.0000 0.0000
v 1.9799 -10.0000 1.9799
v 0.0000 -5.0000 0.0000
v 1.7678 -5.0000 1.7678
v 2.5000 -5.0000 0.0000
v 0.0000 7.5000 -0.2000
v 0.0000 7.5000 -0.2000
v 2.2084 6.5622 1.0000
v 0.0000 7.5000 -0.2000
v 2.2084 6.5622 1.0000
v 2.5500 6.5622 -0.2000
v 0.0000 7.5000 -0.2000
v 0.0000 7.5000 -0.2000
v 1.2750 6.5622 1.8785
v 0.0000 7.5000 -0.2000
v 1.2750 6.5622 1.8785
v 2.2084 6.5622 1.0000
v 0.0000 7.5000 -0.2000
v 0.0000 7.5000 -0.2000
v 0.0000 6.5622 2.2000
v 0.0000 7.5000 -0.2000
v 0.0000 6.5622 2.2000
v 1.2750 6.5622 1.8785
v 0.0000 7.5000 -0.2000
v 0.0000 7.5000 -0.2000
v -1.2750 6.5622 1.8785
v 0.0000 7.5000 -0.2000
v -1.2750 6.5622 1.8785
v 0.0000 6.5622 2.2000
v 0.0000 7.5000 -0.2000
v 0.0000 7.5000 -0.2000
v -2.2084 6.5622 1.0000
v 0.0000 7.5000 -0.2000
v -2.2084 6.5622 1.0000
v -1.2750 6.5622 1.8785
v 0.0000 7.5000 -0.2000
v 0.0000 7.5000 -0.2000
v -2.5500 6.5622 -0.2000
v 0.0000 7.5000 -0.2000
v -2.5500 6.5622 -0.2000
v -2.2084 6.5622 1.0000
v 0.0000 7.5000 -0.2000
v 0.0000 7.5000 -0.2000
v -2.2084 6.5622 -1.4000
v 0.0000 7.5000 -0.2000
v -2.2084 6.5622 -1.4000
v -2.5500 6.5622 -0.2000
v 0.0000 7.5000 -0.2000
v 0.0000 7.5000 -0.2000
v -1.2750 6.5622 -2.2785
v 0.0000 7.5000 -0.2000
v -1.2750 6.5622 -2.2785
v -2.2084 6.5622 -1.4000
v 0.0000 7.5000 -0.2000
v 0.0000 7.5000 -0.2000
v -0.0000 6.5622 -2.6000
v 0.0000 7.5000 -0.2000
v -0.0000 6.5622 -2.6000
v -1.2750 6.5622 -2.2785
v 0.0000 7.5000 -0.2000
v 0.0000 7.5000 -0.2000
v 1.2750 6.5622 -2.2785
v 0.0000 7.5000 -0.2000
v 1.2750 6.5622 -2.2785
v -0.0000 6.5622 -2.6000
v 0.0000 7.5000 -0.2000
v 0.0000 7.5000 -0.2000
v 2.2084 6.5622 -1.4000
v 0.0000 7.5000 -0.2000
v 2.2084 6.5622 -1.4000
v 1.2750 6.5622 -2.2785
v 0.0000 7.5000 -0.2000
v 0.0000 7.5000 -0.2000
v 2.5500 6.5622 -0.2000
v 0.0000 7.5000 -0.2000
v 2.5500 6.5622 -0.2000
v 2.2084 6.5622 -1.4000
v 2.5500 6.5622 -0.2000
v 2.2084 6.5622 1.0000
v 3.8250 4.0000 1.8785
v 2.5500 6.5622 -0.2000
v 3.8250 4.0000 1.8785
v 4.4167 4.0000 -0.2000
v 2.2084 6.5622 1.0000
v 1.2750 6.5622 1.8785
v 2.2084 4.0000 3.4000
v 2.2084 6.5622 1.0000
v 2.2084 4.0000 3.4000
v 3.8250 4.0000 1.8785
v 1.2750 6.5622 1.8785
v 0.0000 6.5622 2.2000
v 0.0000 4.0000 3.9569
v 1.2750 6.5622 1.8785
v 0.0000 4.0000 3.9569
v 2.2084 4.0000 3.4000
v 0.0000 6.5622 2.2000
v -1.2750 6.5622 1.8785
v -2.2084 4.0000 3.4000
v 0.0000 6.5622 2.2000
v -2.2084 4.0000 3.4000
v 0.0000 4.0000 3.9569
v -1.2750 6.5622 1.8785
v -2.2084 6.5622 1.0000
v -3.8250 4.0000 1.8785
v -1.2750 6.5622 1.8785
v -3.8250 4.0000 1.8785
v -2.2084 4.0000 3.4000
v -2.2084 6.5622 1.0000
v -2.5500 6.5622 -0.2000
v -4.4167 4.0000 -0.2000
v -2.2084 6.5622 1.0000
v -4.4167 4.0000 -0.2000
v -3.8250 4.0000 1.8785
v -2.5500 6.5622 -0.2000
v -2.2084 6.5622 -1.4000
v -3.8250 4.0000 -2.2785
v -2.5500 6.5622 -0.2000
v -3.8250 4.0000 -2.2785
v -4.4167 4.0000 -0.2000
v -2.2084 6.5622 -1.4000
v -1.2750 6.5622 -2.2785
v -2.2084 4.0000 -3.8000
v -2.2084 6.5622 -1.4000
v -2.2084 4.0000 -3.8000
v -3.8250 4.0000 -2.2785
v -1.2750 6.5622 -2.2785
v -0.0000 6.5622 -2.6000
v -0.0000 4.0000 -4.3569
v -1.2750 6.5622 -2.2785
v -0.0000 4.0000 -4.3569
v -2.2084 4.0000 -3.8000
v -0.0000 6.5622 -2.6000
v 1.2750 6.5622 -2.2785
v 2.2084 4.0000 -3.8000
v -0.0000 6.5622 -2.6000
v 2.2084 4.0000 -3.8000
v -0.0000 4.0000 -4.3569
v 1.2750 6.5622 -2.2785
v 2.2084 6.5622 -1.4000
v 3.8250 4.0000 -2.2785
v 1.2750 6.5622 -2.2785
v 3.8250 4.0000 -2.2785
v 2.2084 4.0000 -3.8000
v 2.2084 6.5622 -1.4000
v 2.5500 6.5622 -0.2000
v 4.4167 4.0000 -0.2000
v 2.2084 6.5622 -1.4000
v 4.4167 4.0000 -0.2000
v 3.8250 4.0000 -2.2785
v 4.4167 4.0000 -0.2000
v 3.8250 4.0000 1.8785
v 4.4167 0.5000 2.2000
v 4.4167 4.0000 -0.2000
v 4.4167 0.5000 2.2000
v 5.1000 0.5000 -0.2000
v 3.8250 4.0000 1.8785
v 2.2084 4.0000 3.4000
v 2.5500 0.5000 3.9569
v 3.8250 4.0000 1.8785
v 2.5500 0.5000 3.9569
v 4.4167 0.5000 2.2000
v 2.2084 4.0000 3.4000
v 0.0000 4.0000 3.9569
v 0.0000 0.5000 4.6000
v 2.2084 4.0000 3.4000
v 0.0000 0.5000 4.6000
v 2.5500 0.5000 3.9569
v 0.0000 4.0000 3.9569
v -2.2084 4.0000 3.4000
v -2.5500 0.5000 3.9569
v 0.0000 4.0000 3.9569
v -2.5500 0.5000 3.9569
v 0.0000 0.5000 4.6000
v -2.2084 4.0000 3.4000
v -3.8250 4.0000 1.8785
v -4.4167 0.5000 2.2000
v -2.2084 4.0000 3.4000
v -4.4167 0.5000 2.2000
v -2.5500 0.5000 3.9569
v -3.8250 4.0000 1.8785
v -4.4167 4.0000 -0.2000
v -5.1000 0.5000 -0.2000
v -3.8250 4.0000 1.8785
v -5.1000 0.5000 -0.2000
v -4.4167 0.5000 2.2000
v -4.4167 4.0000 -0.2000
v -3.8250 4.0000 -2.2785
v -4.4167 0.5000 -2.6000
v -4.4167 4.0000 -0.2000
v -4.4167 0.5000 -2.6000
v -5.1000 0.5000 -0.2000
v -3.8250 4.0000 -2.2785
v -2.2084 4.0000 -3.8000
v -2.5500 0.5000 -4.3569
v -3.8250 4.0000 -2.2785
v -2.5500 0.5000 -4.3569
v -4.4167 0.5000 -2.6000
v -2.2084 4.0000 -3.8000
v -0.0000 4.0000 -4.3569
v -0.0000 0.5000 -5.0000
v -2.2084 4.0000 -3.8000
v -0.0000 0.5000 -5.0000
v -2.5500 0.5000 -4.3569
v -0.0000 4.0000 -4.3569
v 2.2084 4.0000 -3.8000
v 2.5500 0.5000 -4.3569
v -0.0000 4.0000 -4.3569
v 2.5500 0.5000 -4.3569
v -0.0000 0.5000 -5.0000
v 2.2084 4.0000 -3.8000
v 3.8250 4.0000 -2.2785
v 4.4167 0.5000 -2.6000
v 2.2084 4.0000 -3.8000
v 4.4167 0.5000 -2.6000
v 2.5500 0.5000 -4.3569
v 3.8250 4.0000 -2.2785
v 4.4167 4.0000 -0.2000
v 5.1000 0.5000 -0.2000
v 3.8250 4.0000 -2.2785
v 5.1000 0.5000 -0.2000
v 4.4167 0.5000 -2.6000
v 5.1000 0.5000 -0.2000
v 4.4167 0.5000 2.2000
v 3.8250 -3.0000 1.8785
v 5.1000 0.5000 -0.2000
v 3.8250 -3.0000 1.8785
v 4.4167 -3.0000 -0.2000
v 4.4167 0.5000 2.2000
v 2.5500 0.5000 3.9569
v 2.2084 -3.0000 3.4000
v 4.4167 0.5000 2.2000
v 2.2084 -3.0000 3.4000
v 3.8250 -3.0000 1.8785
v 2.5500 0.5000 3.9569
v 0.0000 0.5000 4.6000
v 0.0000 -3.0000 3.9569
v 2.5500 0.5000 3.9569
v 0.0000 -3.0000 3.9569
v 2.2084 -3.0000 3.4000
v 0.0000 0.5000 4.6000
v -2.5500 0.5000 3.9569
v -2.2084 -3.0000 3.4000
v 0.0000 0.5000 4.6000
v -2.2084 -3.0000 3.4000
v 0.0000 -3.0000 3.9569
v -2.5500 0.5000 3.9569
v -4.4167 0.5000 2.2000
v -3.8250 -3.0000 1.8785
v -2.5500 0.5000 3.9569
v -3.8250 -3.0000 1.8785
v -2.2084 -3.0000 3.4000
v -4.4167 0.5000 2.2000
v -5.1000 0.5000 -0.2000
v -4.4167 -3.0000 -0.2000
v -4.4167 0.5000 2.2000
v -4.4167 -3.0000 -0.2000
v -3.8250 -3.0000 1.8785
v -5.1000 0.5000 -0.2000
v -4.4167 0.5000 -2.6000
v -3.8250 -3.0000 -2.2785
v -5.1000 0.5000 -0.2000
v -3.8250 -3.0000 -2.2785
v -4.4167 -3.0000 -0.2000
v -4.4167 0.5000 -2.6000
v -2.5500 0.5000 -4.3569
v -2.2084 -3.0000 -3.8000
v -4.4167 0.5000 -2.6000
v -2.2084 -3.0000 -3.8000
v -3.8250 -3.0000 -2.2785
v -2.5500 0.5000 -4.3569
v -0.0000 0.5000 -5.0000
v -0.0000 -3.0000 -4.3569
v -2.5500 0.5000 -4.3569
v -0.0000 -3.0000 -4.3569
v -2.2084 -3.0000 -3.8000
v -0.0000 0.5000 -5.0000
v 2.5500 0.5000 -4.3569
v 2.2084 -3.0000 -3.8000
v -0.0000 0.5000 -5.0000
v 2.2084 -3.0000 -3.8000
v -0.0000 -3.0000 -4.3569
v 2.5500 0.5000 -4.3569
v 4.4167 0.5000 -2.6000
v 3.8250 -3.0000 -2.2785
v 2.5500 0.5000 -4.3569
v 3.8250 -3.0000 -2.2785
v 2.2084 -3.0000 -3.8000
v 4.4167 0.5000 -2.6000
v 5.1000 0.5000 -0.2000
v 4.4167 -3.0000 -0.2000
v 4.4167 0.5000 -2.6000
v 4.4167 -3.0000 -0.2000
v 3.8250 -3.0000 -2.2785
v 4.4167 -3.0000 -0.2000
v 3.8250 -3.0000 1.8785
v 2.2084 -5.5622 1.0000
v 4.4167 -3.0000 -0.2000
v 2.2084 -5.5622 1.0000
v 2.5500 -5.5622 -0.2000
v 3.8250 -3.0000 1.8785
v 2.2084 -3.0000 3.4000
v 1.2750 -5.5622 1.8785
v 3.8250 -3.0000 1.8785
v 1.2750 -5.5622 1.8785
v 2.2084 -5.5622 1.0000
v 2.2084 -3.0000 3.4000
v 0.0000 -3.0000 3.9569
v 0.0000 -5.5622 2.2000
v 2.2084 -3.0000 3.4000
v 0.0000 -5.5622 2.2000
v 1.2750 -5.5622 1.8785
v 0.0000 -3.0000 3.9569
v -2.2084 -3.0000 3.4000
v -1.2750 -5.5622 1.8785
v 0.0000 -3.0000 3.9569
v -1.2750 -5.5622 1.8785
v 0.0000 -5.5622 2.2000
v -2.2084 -3.0000 3.4000
v -3.8250 -3.0000 1.8785
v -2.2084 -5.5622 1.0000
v -2.2084 -3.0000 3.4000
v -2.2084 -5.5622 1.0000
v -1.2750 -5.5622 1.8785
v -3.8250 -3.0000 1.8785
v -4.4167 -3.0000 -0.2000
v -2.5500 -5.5622 -0.2000
v -3.8250 -3.0000 1.8785
v -2.5500 -5.5622 -0.2000
v -2.2084 -5.5622 1.0000
v -4.4167 -3.0000 -0.2000
v -3.8250 -3.0000 -2.2785
v -2.2084 -5.5622 -1.4000
v -4.4167 -3.0000 -0.2000
v -2.2084 -5.5622 -1.4000
v -2.5500 -5.5622 -0.2000
v -3.8250 -3.0000 -2.2785
v -2.2084 -3.0000 -3.8000
v -1.2750 -5.5622 -2.2785
v -3.8250 -3.0000 -2.2785
v -1.2750 -5.5622 -2.2785
v -2.2084 -5.5622 -1.4000
v -2.2084 -3.0000 -3.8000
v -0.0000 -3.0000 -4.3569
v -0.0000 -5.5622 -2.6000
v -2.2084 -3.0000 -3.8000
v -0.0000 -5.5622 -2.6000
v -1.2750 -5.5622 -2.2785
v -0.0000 -3.0000 -4.3569
v 2.2084 -3.0000 -3.8000
v 1.2750 -5.5622 -2.2785
v -0.0000 -3.0000 -4.3569
v 1.2750 -5.5622 -2.2785
v -0.0000 -5.5622 -2.6000
v 2.2084 -3.0000 -3.8000
v 3.8250 -3.0000 -2.2785
v 2.2084 -5.5622 -1.4000
v 2.2084 -3.0000 -3.8000
v 2.2084 -5.5622 -1.4000
v 1.2750 -5.5622 -2.2785
v 3.8250 -3.0000 -2.2785
v 4.4167 -3.0000 -0.2000
v 2.5500 -5.5622 -0.2000
v 3.8250 -3.0000 -2.2785
v 2.5500 -5.5622 -0.2000
v 2.2084 -5.5622 -1.4000
v 2.5500 -5.5622 -0.2000
v 2.2084 -5.5622 1.0000
v 0.0000 -6.5000 -0.2000
v 2.5500 -5.5622 -0.2000
v 0.0000 -6.5000 -0.2000
v 0.0000 -6.5000 -0.2000
v 2.2084 -5.5622 1.0000
v 1.2750 -5.5622 1.8785
v 0.0000 -6.5000 -0.2000
v 2.2084 -5.5622 1.0000
v 0.0000 -6.5000 -0.2000
v 0.0000 -6.5000 -0.2000
v 1.2750 -5.5622 1.8785
v 0.0000 -5.5622 2.2000
v 0.0000 -6.5000 -0.2000
v 1.2750 -5.5622 1.8785
v 0.0000 -6.5000 -0.2000
v 0.0000 -6.5000 -0.2000
v 0.0000 -5.5622 2.2000
v -1.2750 -5.5622 1.8785
v -0.0000 -6.5000 -0.2000
v 0.0000 -5.5622 2.2000
v -0.0000 -6.5000 -0.2000
v 0.0000 -6.5000 -0.2000
v -1.2750 -5.5622 1.8785
v -2.2084 -5.5622 1.0000
v -0.0000 -6.5000 -0.2000
v -1.2750 -5.5622 1.8785
v -0.0000 -6.5000 -0.2000
v -0.0000 -6.5000 -0.2000
v -2.2084 -5.5622 1.0000
v -2.5500 -5.5622 -0.2000
v -0.0000 -6.5000 -0.2000
v -2.2084 -5.5622 1.0000
v -0.0000 -6.5000 -0.2000
v -0.0000 -6.5000 -0.2000
v -2.5500 -5.5622 -0.2000
v -2.2084 -5.5622 -1.4000
v -0.0000 -6.5000 -0.2000
v -2.5500 -5.5622 -0.2000
v -0.0000 -6.5000 -0.2000
v -0.0000 -6.5000 -0.2000
v -2.2084 -5.5622 -1.4000
v -1.2750 -5.5622 -2.2785
v -0.0000 -6.5000 -0.2000
v -2.2084 -5.5622 -1.4000
v -0.0000 -6.5000 -0.2000
v -0.0000 -6.5000 -0.2000
v -1.2750 -5.5622 -2.2785
v -0.0000 -5.5622 -2.6000
v -0.0000 -6.5000 -0.2000
v -1.2750 -5.5622 -2.2785
v -0.0000 -6.5000 -0.2000
v -0.0000 -6.5000 -0.2000
v -0.0000 -5.5622 -2.6000
v 1.2750 -5.5622 -2.2785
v 0.0000 -6.5000 -0.2000
v -0.0000 -5.5622 -2.6000
v 0.0000 -6.5000 -0.2000
v -0.0000 -6.5000 -0.2000
v 1.2750 -5.5622 -2.2785
v 2.2084 -5.5622 -1.4000
v 0.0000 -6.5000 -0.2000
v 1.2750 -5.5622 -2.2785
v 0.0000 -6.5000 -0.2000
v 0.0000 -6.5000 -0.2000
v 2.2084 -5.5622 -1.4000
v 2.5500 -5.5622 -0.2000
v 0.0000 -6.5000 -0.2000
v 2.2084 -5.5622 -1.4000
v 0.0000 -6.5000 -0.2000
v 0.0000 -6.5000 -0.2000
v -8.2500 -25.5000 -7.1500
v -9.2500 -12.0000 -7.2500
v 9.2500 -12.0000 -7.2500
v -8.2500 -25.5000 -7.1500
v 9.2500 -12.0000 -7.2500
v 8.2500 -25.5000 -7.1500
v 8.2500 -25.5000 -3.8500
v 9.2500 -12.0000 -3.7500
v -9.2500 -12.0000 -3.7500
v 8.2500 -25.5000 -3.8500
v -9.2500 -12.0000 -3.7500
v -8.2500 -25.5000 -3.8500
v -8.2500 -25.5000 -3.8500
v -9.2500 -12.0000 -3.7500
v -9.2500 -12.0000 -7.2500
v -8.2500 -25.5000 -3.8500
v -9.2500 -12.0000 -7.2500
v -8.2500 -25.5000 -7.1500
v 8.2500 -25.5000 -7.1500
v 9.2500 -12.0000 -7.2500
v 9.2500 -12.0000 -3.7500
v 8.2500 -25.5000 -7.1500
v 9.2500 -12.0000 -3.7500
v 8.2500 -25.5000 -3.8500
v -9.2500 -12.0000 -7.2500
v -9.2500 -12.0000 -3.7500
v 9.2500 -12.0000 -3.7500
v -9.2500 -12.0000 -7.2500
v 9.2500 -12.0000 -3.7500
v 9.2500 -12.0000 -7.2500
v -8.2500 -25.5000 -3.8500
v -8.2500 -25.5000 -7.1500
v 8.2500 -25.5000 -7.1500
v -8.2500 -25.5000 -3.8500
v 8.2500 -25.5000 -7.1500
v 8.2500 -25.5000 -3.8500
v -5.5000 -26.5000 4.4500
v -5.5000 -13.5000 4.4500
v 5.5000 -13.5000 4.4500
v -5.5000 -26.5000 4.4500
v 5.5000 -13.5000 4.4500
v 5.5000 -26.5000 4.4500
v 5.5000 -26.5000 7.5500
v 5.5000 -13.5000 7.5500
v -5.5000 -13.5000 7.5500
v 5.5000 -26.5000 7.5500
v -5.5000 -13.5000 7.5500
v -5.5000 -26.5000 7.5500
v -5.5000 -26.5000 7.5500
v -5.5000 -13.5000 7.5500
v -5.5000 -13.5000 4.4500
v -5.5000 -26.5000 7.5500
v -5.5000 -13.5000 4.4500
v -5.5000 -26.5000 4.4500
v 5.5000 -26.5000 4.4500
v 5.5000 -13.5000 4.4500
v 5.5000 -13.5000 7.5500
v 5.5000 -26.5000 4.4500
v 5.5000 -13.5000 7.5500
v 5.5000 -26.5000 7.5500
v -5.5000 -13.5000 4.4500
v -5.5000 -13.5000 7.5500
v 5.5000 -13.5000 7.5500
v -5.5000 -13.5000 4.4500
v 5.5000 -13.5000 7.5500
v 5.5000 -13.5000 4.4500
v -5.5000 -26.5000 7.5500
v -5.5000 -26.5000 4.4500
v 5.5000 -26.5000 4.4500
v -5.5000 -26.5000 7.5500
v 5.5000 -26.5000 4.4500
v 5.5000 -26.5000 7.5500
v -7.9000 -25.7000 -7.7500
v -7.9000 -11.7000 -7.7500
v -4.5000 -11.7000 -7.7500
v -7.9000 -25.7000 -7.7500
v -4.5000 -11.7000 -7.7500
v -4.5000 -25.7000 -7.7500
v -4.5000 -25.7000 -6.2500
v -4.5000 -11.7000 -6.2500
v -7.9000 -11.7000 -6.2500
v -4.5000 -25.7000 -6.2500
v -7.9000 -11.7000 -6.2500
v -7.9000 -25.7000 -6.2500
v -7.9000 -25.7000 -6.2500
v -7.9000 -11.7000 -6.2500
v -7.9000 -11.7000 -7.7500
v -7.9000 -25.7000 -6.2500
v -7.9000 -11.7000 -7.7500
v -7.9000 -25.7000 -7.7500
v -4.5000 -25.7000 -7.7500
v -4.5000 -11.7000 -7.7500
v -4.5000 -11.7000 -6.2500
v -4.5000 -25.7000 -7.7500
v -4.5000 -11.7000 -6.2500
v -4.5000 -25.7000 -6.2500
v -7.9000 -11.7000 -7.7500
v -7.9000 -11.7000 -6.2500
v -4.5000 -11.7000 -6.2500
v -7.9000 -11.7000 -7.7500
v -4.5000 -11.7000 -6.2500
v -4.5000 -11.7000 -7.7500
v -7.9000 -25.7000 -6.2500
v -7.9000 -25.7000 -7.7500
v -4.5000 -25.7000 -7.7500
v -7.9000 -25.7000 -6.2500
v -4.5000 -25.7000 -7.7500
v -4.5000 -25.7000 -6.2500
v -7.6000 -26.3500 -8.4000
v -7.6000 -21.6500 -8.4000
v -2.4000 -21.6500 -8.4000
v -7.6000 -26.3500 -8.4000
v -2.4000 -21.6500 -8.4000
v -2.4000 -26.3500 -8.4000
v -2.4000 -26.3500 -6.4000
v -2.4000 -21.6500 -6.4000
v -7.6000 -21.6500 -6.4000
v -2.4000 -26.3500 -6.4000
v -7.6000 -21.6500 -6.4000
v -7.6000 -26.3500 -6.4000
v -7.6000 -26.3500 -6.4000
v -7.6000 -21.6500 -6.4000
v -7.6000 -21.6500 -8.4000
v -7.6000 -26.3500 -6.4000
v -7.6000 -21.6500 -8.4000
v -7.6000 -26.3500 -8.4000
v -2.4000 -26.3500 -8.4000
v -2.4000 -21.6500 -8.4000
v -2.4000 -21.6500 -6.4000
v -2.4000 -26.3500 -8.4000
v -2.4000 -21.6500 -6.4000
v -2.4000 -26.3500 -6.4000
v -7.6000 -21.6500 -8.4000
v -7.6000 -21.6500 -6.4000
v -2.4000 -21.6500 -6.4000
v -7.6000 -21.6500 -8.4000
v -2.4000 -21.6500 -6.4000
v -2.4000 -21.6500 -8.4000
v -7.6000 -26.3500 -6.4000
v -7.6000 -26.3500 -8.4000
v -2.4000 -26.3500 -8.4000
v -7.6000 -26.3500 -6.4000
v -2.4000 -26.3500 -8.4000
v -2.4000 -26.3500 -6.4000
v -9.8000 -40.5000 -4.6500
v -9.8000 -33.5000 -4.6500
v -7.0000 -33.5000 -4.6500
v -9.8000 -40.5000 -4.6500
v -7.0000 -33.5000 -4.6500
v -7.0000 -40.5000 -4.6500
v -7.0000 -40.5000 -3.1500
v -7.0000 -33.5000 -3.1500
v -9.8000 -33.5000 -3.1500
v -7.0000 -40.5000 -3.1500
v -9.8000 -33.5000 -3.1500
v -9.8000 -40.5000 -3.1500
v -9.8000 -40.5000 -3.1500
v -9.8000 -33.5000 -3.1500
v -9.8000 -33.5000 -4.6500
v -9.8000 -40.5000 -3.1500
v -9.8000 -33.5000 -4.6500
v -9.8000 -40.5000 -4.6500
v -7.0000 -40.5000 -4.6500
v -7.0000 -33.5000 -4.6500
v -7.0000 -33.5000 -3.1500
v -7.0000 -40.5000 -4.6500
v -7.0000 -33.5000 -3.1500
v -7.0000 -40.5000 -3.1500
v -9.8000 -33.5000 -4.6500
v -9.8000 -33.5000 -3.1500
v -7.0000 -33.5000 -3.1500
v -9.8000 -33.5000 -4.6500
v -7.0000 -33.5000 -3.1500
v -7.0000 -33.5000 -4.6500
v -9.8000 -40.5000 -3.1500
v -9.8000 -40.5000 -4.6500
v -7.0000 -40.5000 -4.6500
v -9.8000 -40.5000 -3.1500
v -7.0000 -40.5000 -4.6500
v -7.0000 -40.5000 -3.1500
v 4.5000 -25.7000 -7.7500
v 4.5000 -11.7000 -7.7500
v 7.9000 -11.7000 -7.7500
v 4.5000 -25.7000 -7.7500
v 7.9000 -11.7000 -7.7500
v 7.9000 -25.7000 -7.7500
v 7.9000 -25.7000 -6.2500
v 7.9000 -11.7000 -6.2500
v 4.5000 -11.7000 -6.2500
v 7.9000 -25.7000 -6.2500
v 4.5000 -11.7000 -6.2500
v 4.5000 -25.7000 -6.2500
v 4.5000 -25.7000 -6.2500
v 4.5000 -11.7000 -6.2500
v 4.5000 -11.7000 -7.7500
v 4.5000 -25.7000 -6.2500
v 4.5000 -11.7000 -7.7500
v 4.5000 -25.7000 -7.7500
v 7.9000 -25.7000 -7.7500
v 7.9000 -11.7000 -7.7500
v 7.9000 -11.7000 -6.2500
v 7.9000 -25.7000 -7.7500
v 7.9000 -11.7000 -6.2500
v 7.9000 -25.7000 -6.2500
v 4.5000 -11.7000 -7.7500
v 4.5000 -11.7000 -6.2500
v 7.9000 -11.7000 -6.2500
v 4.5000 -11.7000 -7.7500
v 7.9000 -11.7000 -6.2500
v 7.9000 -11.7000 -7.7500
v 4.5000 -25.7000 -6.2500
v 4.5000 -25.7000 -7.7500
v 7.9000 -25.7000 -7.7500
v 4.5000 -25.7000 -6.2500
v 7.9000 -25.7000 -7.7500
v 7.9000 -25.7000 -6.2500
v 2.4000 -26.3500 -8.4000
v 2.4000 -21.6500 -8.4000
v 7.6000 -21.6500 -8.4000
v 2.4000 -26.3500 -8.4000
v 7.6000 -21.6500 -8.4000
v 7.6000 -26.3500 -8.4000
v 7.6000 -26.3500 -6.4000
v 7.6000 -21.6500 -6.4000
v 2.4000 -21.6500 -6.4000
v 7.6000 -26.3500 -6.4000
v 2.4000 -21.6500 -6.4000
v 2.4000 -26.3500 -6.4000
v 2.4000 -26.3500 -6.4000
v 2.4000 -21.6500 -6.4000
v 2.4000 -21.6500 -8.4000
v 2.4000 -26.3500 -6.4000
v 2.4000 -21.6500 -8.4000
v 2.4000 -26.3500 -8.4000
v 7.6000 -26.3500 -8.4000
v 7.6000 -21.6500 -8.4000
v 7.6000 -21.6500 -6.4000
v 7.6000 -26.3500 -8.4000
v 7.6000 -21.6500 -6.4000
v 7.6000 -26.3500 -6.4000
v 2.4000 -21.6500 -8.4000
v 2.4000 -21.6500 -6.4000
v 7.6000 -21.6500 -6.4000
v 2.4000 -21.6500 -8.4000
v 7.6000 -21.6500 -6.4000
v 7.6000 -21.6500 -8.4000
v 2.4000 -26.3500 -6.4000
v 2.4000 -26.3500 -8.4000
v 7.6000 -26.3500 -8.4000
v 2.4000 -26.3500 -6.4000
v 7.6000 -26.3500 -8.4000
v 7.6000 -26.3500 -6.4000
v 7.0000 -40.5000 -4.6500
v 7.0000 -33.5000 -4.6500
v 9.8000 -33.5000 -4.6500
v 7.0000 -40.5000 -4.6500
v 9.8000 -33.5000 -4.6500
v 9.8000 -40.5000 -4.6500
v 9.8000 -40.5000 -3.1500
v 9.8000 -33.5000 -3.1500
v 7.0000 -33.5000 -3.1500
v 9.8000 -40.5000 -3.1500
v 7.0000 -33.5000 -3.1500
v 7.0000 -40.5000 -3.1500
v 7.0000 -40.5000 -3.1500
v 7.0000 -33.5000 -3.1500
v 7.0000 -33.5000 -4.6500
v 7.0000 -40.5000 -3.1500
v 7.0000 -33.5000 -4.6500
v 7.0000 -40.5000 -4.6500
v 9.8000 -40.5000 -4.6500
v 9.8000 -33.5000 -4.6500
v 9.8000 -33.5000 -3.1500
v 9.8000 -40.5000 -4.6500
v 9.8000 -33.5000 -3.1500
v 9.8000 -40.5000 -3.1500
v 7.0000 -33.5000 -4.6500
v 7.0000 -33.5000 -3.1500
v 9.8000 -33.5000 -3.1500
v 7.0000 -33.5000 -4.6500
v 9.8000 -33.5000 -3.1500
v 9.8000 -33.5000 -4.6500
v 7.0000 -40.5000 -3.1500
v 7.0000 -40.5000 -4.6500
v 9.8000 -40.5000 -4.6500
v 7.0000 -40.5000 -3.1500
v 9.8000 -40.5000 -4.6500
v 9.8000 -40.5000 -3.1500
v -2.9000 -22.6500 -8.3500
v -2.9000 -17.3500 -8.3500
v 2.9000 -17.3500 -8.3500
v -2.9000 -22.6500 -8.3500
v 2.9000 -17.3500 -8.3500
v 2.9000 -22.6500 -8.3500
v 2.9000 -22.6500 -6.5500
v 2.9000 -17.3500 -6.5500
v -2.9000 -17.3500 -6.5500
v 2.9000 -22.6500 -6.5500
v -2.9000 -17.3500 -6.5500
v -2.9000 -22.6500 -6.5500
v -2.9000 -22.6500 -6.5500
v -2.9000 -17.3500 -6.5500
v -2.9000 -17.3500 -8.3500
v -2.9000 -22.6500 -6.5500
v -2.9000 -17.3500 -8.3500
v -2.9000 -22.6500 -8.3500
v 2.9000 -22.6500 -8.3500
v 2.9000 -17.3500 -8.3500
v 2.9000 -17.3500 -6.5500
v 2.9000 -22.6500 -8.3500
v 2.9000 -17.3500 -6.5500
v 2.9000 -22.6500 -6.5500
v -2.9000 -17.3500 -8.3500
v -2.9000 -17.3500 -6.5500
v 2.9000 -17.3500 -6.5500
v -2.9000 -17.3500 -8.3500
v 2.9000 -17.3500 -6.5500
v 2.9000 -17.3500 -8.3500
v -2.9000 -22.6500 -6.5500
v -2.9000 -22.6500 -8.3500
v 2.9000 -22.6500 -8.3500
v -2.9000 -22.6500 -6.5500
v 2.9000 -22.6500 -8.3500
v 2.9000 -22.6500 -6.5500
v 0.0000 11.0000 -0.1000
v 0.0000 11.0000 -0.1000
v 2.5548 10.1426 1.2500
v 0.0000 11.0000 -0.1000
v 2.5548 10.1426 1.2500
v 2.9500 10.1426 -0.1000
v 0.0000 11.0000 -0.1000
v 0.0000 11.0000 -0.1000
v 1.4750 10.1426 2.2383
v 0.0000 11.0000 -0.1000
v 1.4750 10.1426 2.2383
v 2.5548 10.1426 1.2500
v 0.0000 11.0000 -0.1000
v 0.0000 11.0000 -0.1000
v 0.0000 10.1426 2.6000
v 0.0000 11.0000 -0.1000
v 0.0000 10.1426 2.6000
v 1.4750 10.1426 2.2383
v 0.0000 11.0000 -0.1000
v 0.0000 11.0000 -0.1000
v -1.4750 10.1426 2.2383
v 0.0000 11.0000 -0.1000
v -1.4750 10.1426 2.2383
v 0.0000 10.1426 2.6000
v 0.0000 11.0000 -0.1000
v 0.0000 11.0000 -0.1000
v -2.5548 10.1426 1.2500
v 0.0000 11.0000 -0.1000
v -2.5548 10.1426 1.2500
v -1.4750 10.1426 2.2383
v 0.0000 11.0000 -0.1000
v 0.0000 11.0000 -0.1000
v -2.9500 10.1426 -0.1000
v 0.0000 11.0000 -0.1000
v -2.9500 10.1426 -0.1000
v -2.5548 10.1426 1.2500
v 0.0000 11.0000 -0.1000
v 0.0000 11.0000 -0.1000
v -2.5548 10.1426 -1.4500
v 0.0000 11.0000 -0.1000
v -2.5548 10.1426 -1.4500
v -2.9500 10.1426 -0.1000
v 0.0000 11.0000 -0.1000
v 0.0000 11.0000 -0.1000
v -1.4750 10.1426 -2.4383
v 0.0000 11.0000 -0.1000
v -1.4750 10.1426 -2.4383
v -2.5548 10.1426 -1.4500
v 0.0000 11.0000 -0.1000
v 0.0000 11.0000 -0.1000
v -0.0000 10.1426 -2.8000
v 0.0000 11.0000 -0.1000
v -0.0000 10.1426 -2.8000
v -1.4750 10.1426 -2.4383
v 0.0000 11.0000 -0.1000
v 0.0000 11.0000 -0.1000
v 1.4750 10.1426 -2.4383
v 0.0000 11.0000 -0.1000
v 1.4750 10.1426 -2.4383
v -0.0000 10.1426 -2.8000
v 0.0000 11.0000 -0.1000
v 0.0000 11.0000 -0.1000
v 2.5548 10.1426 -1.4500
v 0.0000 11.0000 -0.1000
v 2.5548 10.1426 -1.4500
v 1.4750 10.1426 -2.4383
v 0.0000 11.0000 -0.1000
v 0.0000 11.0000 -0.1000
v 2.9500 10.1426 -0.1000
v 0.0000 11.0000 -0.1000
v 2.9500 10.1426 -0.1000
v 2.5548 10.1426 -1.4500
v 2.9500 10.1426 -0.1000
v 2.5548 10.1426 1.2500
v 4.4250 7.8000 2.2383
v 2.9500 10.1426 -0.1000
v 4.4250 7.8000 2.2383
v 5.1095 7.8000 -0.1000
v 2.5548 10.1426 1.2500
v 1.4750 10.1426 2.2383
v 2.5548 7.8000 3.9500
v 2.5548 10.1426 1.2500
v 2.5548 7.8000 3.9500
v 4.4250 7.8000 2.2383
v 1.4750 10.1426 2.2383
v 0.0000 10.1426 2.6000
v 0.0000 7.8000 4.5765
v 1.4750 10.1426 2.2383
v 0.0000 7.8000 4.5765
v 2.5548 7.8000 3.9500
v 0.0000 10.1426 2.6000
v -1.4750 10.1426 2.2383
v -2.5548 7.8000 3.9500
v 0.0000 10.1426 2.6000
v -2.5548 7.8000 3.9500
v 0.0000 7.8000 4.5765
v -1.4750 10.1426 2.2383
v -2.5548 10.1426 1.2500
v -4.4250 7.8000 2.2383
v -1.4750 10.1426 2.2383
v -4.4250 7.8000 2.2383
v -2.5548 7.8000 3.9500
v -2.5548 10.1426 1.2500
v -2.9500 10.1426 -0.1000
v -5.1095 7.8000 -0.1000
v -2.5548 10.1426 1.2500
v -5.1095 7.8000 -0.1000
v -4.4250 7.8000 2.2383
v -2.9500 10.1426 -0.1000
v -2.5548 10.1426 -1.4500
v -4.4250 7.8000 -2.4383
v -2.9500 10.1426 -0.1000
v -4.4250 7.8000 -2.4383
v -5.1095 7.8000 -0.1000
v -2.5548 10.1426 -1.4500
v -1.4750 10.1426 -2.4383
v -2.5548 7.8000 -4.1500
v -2.5548 10.1426 -1.4500
v -2.5548 7.8000 -4.1500
v -4.4250 7.8000 -2.4383
v -1.4750 10.1426 -2.4383
v -0.0000 10.1426 -2.8000
v -0.0000 7.8000 -4.7765
v -1.4750 10.1426 -2.4383
v -0.0000 7.8000 -4.7765
v -2.5548 7.8000 -4.1500
v -0.0000 10.1426 -2.8000
v 1.4750 10.1426 -2.4383
v 2.5548 7.8000 -4.1500
v -0.0000 10.1426 -2.8000
v 2.5548 7.8000 -4.1500
v -0.0000 7.8000 -4.7765
v 1.4750 10.1426 -2.4383
v 2.5548 10.1426 -1.4500
v 4.4250 7.8000 -2.4383
v 1.4750 10.1426 -2.4383
v 4.4250 7.8000 -2.4383
v 2.5548 7.8000 -4.1500
v 2.5548 10.1426 -1.4500
v 2.9500 10.1426 -0.1000
v 5.1095 7.8000 -0.1000
v 2.5548 10.1426 -1.4500
v 5.1095 7.8000 -0.1000
v 4.4250 7.8000 -2.4383
v 5.1095 7.8000 -0.1000
v 4.4250 7.8000 2.2383
v 5.1095 4.6000 2.6000
v 5.1095 7.8000 -0.1000
v 5.1095 4.6000 2.6000
v 5.9000 4.6000 -0.1000
v 4.4250 7.8000 2.2383
v 2.5548 7.8000 3.9500
v 2.9500 4.6000 4.5765
v 4.4250 7.8000 2.2383
v 2.9500 4.6000 4.5765
v 5.1095 4.6000 2.6000
v 2.5548 7.8000 3.9500
v 0.0000 7.8000 4.5765
v 0.0000 4.6000 5.3000
v 2.5548 7.8000 3.9500
v 0.0000 4.6000 5.3000
v 2.9500 4.6000 4.5765
v 0.0000 7.8000 4.5765
v -2.5548 7.8000 3.9500
v -2.9500 4.6000 4.5765
v 0.0000 7.8000 4.5765
v -2.9500 4.6000 4.5765
v 0.0000 4.6000 5.3000
v -2.5548 7.8000 3.9500
v -4.4250 7.8000 2.2383
v -5.1095 4.6000 2.6000
v -2.5548 7.8000 3.9500
v -5.1095 4.6000 2.6000
v -2.9500 4.6000 4.5765
v -4.4250 7.8000 2.2383
v -5.1095 7.8000 -0.1000
v -5.9000 4.6000 -0.1000
v -4.4250 7.8000 2.2383
v -5.9000 4.6000 -0.1000
v -5.1095 4.6000 2.6000
v -5.1095 7.8000 -0.1000
v -4.4250 7.8000 -2.4383
v -5.1095 4.6000 -2.8000
v -5.1095 7.8000 -0.1000
v -5.1095 4.6000 -2.8000
v -5.9000 4.6000 -0.1000
v -4.4250 7.8000 -2.4383
v -2.5548 7.8000 -4.1500
v -2.9500 4.6000 -4.7765
v -4.4250 7.8000 -2.4383
v -2.9500 4.6000 -4.7765
v -5.1095 4.6000 -2.8000
v -2.5548 7.8000 -4.1500
v -0.0000 7.8000 -4.7765
v -0.0000 4.6000 -5.5000
v -2.5548 7.8000 -4.1500
v -0.0000 4.6000 -5.5000
v -2.9500 4.6000 -4.7765
v -0.0000 7.8000 -4.7765
v 2.5548 7.8000 -4.1500
v 2.9500 4.6000 -4.7765
v -0.0000 7.8000 -4.7765
v 2.9500 4.6000 -4.7765
v -0.0000 4.6000 -5.5000
v 2.5548 7.8000 -4.1500
v 4.4250 7.8000 -2.4383
v 5.1095 4.6000 -2.8000
v 2.5548 7.8000 -4.1500
v 5.1095 4.6000 -2.8000
v 2.9500 4.6000 -4.7765
v 4.4250 7.8000 -2.4383
v 5.1095 7.8000 -0.1000
v 5.9000 4.6000 -0.1000
v 4.4250 7.8000 -2.4383
v 5.9000 4.6000 -0.1000
v 5.1095 4.6000 -2.8000
v -5.5000 2.2000 -5.8500
v -5.5000 4.4000 -5.8500
v 5.5000 4.4000 -5.8500
v -5.5000 2.2000 -5.8500
v 5.5000 4.4000 -5.8500
v 5.5000 2.2000 -5.8500
v 5.5000 2.2000 -4.3500
v 5.5000 4.4000 -4.3500
v -5.5000 4.4000 -4.3500
v 5.5000 2.2000 -4.3500
v -5.5000 4.4000 -4.3500
v -5.5000 2.2000 -4.3500
v -5.5000 2.2000 -4.3500
v -5.5000 4.4000 -4.3500
v -5.5000 4.4000 -5.8500
v -5.5000 2.2000 -4.3500
v -5.5000 4.4000 -5.8500
v -5.5000 2.2000 -5.8500
v 5.5000 2.2000 -5.8500
v 5.5000 4.4000 -5.8500
v 5.5000 4.4000 -4.3500
v 5.5000 2.2000 -5.8500
v 5.5000 4.4000 -4.3500
v 5.5000 2.2000 -4.3500
v -5.5000 4.4000 -5.8500
v -5.5000 4.4000 -4.3500
v 5.5000 4.4000 -4.3500
v -5.5000 4.4000 -5.8500
v 5.5000 4.4000 -4.3500
v 5.5000 4.4000 -5.8500
v -5.5000 2.2000 -4.3500
v -5.5000 2.2000 -5.8500
v 5.5000 2.2000 -5.8500
v -5.5000 2.2000 -4.3500
v 5.5000 2.2000 -5.8500
v 5.5000 2.2000 -4.3500
v -4.7500 -6.6500 -5.8500
v -4.7500 -1.3500 -5.8500
v 4.7500 -1.3500 -5.8500
v -4.7500 -6.6500 -5.8500
v 4.7500 -1.3500 -5.8500
v 4.7500 -6.6500 -5.8500
v 4.7500 -6.6500 -4.4500
v 4.7500 -1.3500 -4.4500
v -4.7500 -1.3500 -4.4500
v 4.7500 -6.6500 -4.4500
v -4.7500 -1.3500 -4.4500
v -4.7500 -6.6500 -4.4500
v -4.7500 -6.6500 -4.4500
v -4.7500 -1.3500 -4.4500
v -4.7500 -1.3500 -5.8500
v -4.7500 -6.6500 -4.4500
v -4.7500 -1.3500 -5.8500
v -4.7500 -6.6500 -5.8500
v 4.7500 -6.6500 -5.8500
v 4.7500 -1.3500 -5.8500
v 4.7500 -1.3500 -4.4500
v 4.7500 -6.6500 -5.8500
v 4.7500 -1.3500 -4.4500
v 4.7500 -6.6500 -4.4500
v -4.7500 -1.3500 -5.8500
v -4.7500 -1.3500 -4.4500
v 4.7500 -1.3500 -4.4500
v -4.7500 -1.3500 -5.8500
v 4.7500 -1.3500 -4.4500
v 4.7500 -1.3500 -5.8500
v -4.7500 -6.6500 -4.4500
v -4.7500 -6.6500 -5.8500
v 4.7500 -6.6500 -5.8500
v -4.7500 -6.6500 -4.4500
v 4.7500 -6.6500 -5.8500
v 4.7500 -6.6500 -4.4500
v -3.2500 0.4000 -5.7000
v -3.2500 1.2000 -5.7000
v 3.2500 1.2000 -5.7000
v -3.2500 0.4000 -5.7000
v 3.2500 1.2000 -5.7000
v 3.2500 0.4000 -5.7000
v 3.2500 0.4000 -4.9000
v 3.2500 1.2000 -4.9000
v -3.2500 1.2000 -4.9000
v 3.2500 0.4000 -4.9000
v -3.2500 1.2000 -4.9000
v -3.2500 0.4000 -4.9000
v -3.2500 0.4000 -4.9000
v -3.2500 1.2000 -4.9000
v -3.2500 1.2000 -5.7000
v -3.2500 0.4000 -4.9000
v -3.2500 1.2000 -5.7000
v -3.2500 0.4000 -5.7000
v 3.2500 0.4000 -5.7000
v 3.2500 1.2000 -5.7000
v 3.2500 1.2000 -4.9000
v 3.2500 0.4000 -5.7000
v 3.2500 1.2000 -4.9000
v 3.2500 0.4000 -4.9000
v -3.2500 1.2000 -5.7000
v -3.2500 1.2000 -4.9000
v 3.2500 1.2000 -4.9000
v -3.2500 1.2000 -5.7000
v 3.2500 1.2000 -4.9000
v 3.2500 1.2000 -5.7000
v -3.2500 0.4000 -4.9000
v -3.2500 0.4000 -5.7000
v 3.2500 0.4000 -5.7000
v -3.2500 0.4000 -4.9000
v 3.2500 0.4000 -5.7000
v 3.2500 0.4000 -4.9000
vt 0.015625 0.500000
vt 0.046875 0.500000
vt 0.078125 0.500000
vt 0.109375 0.500000
vt 0.140625 0.500000
vt 0.171875 0.500000
vt 0.203125 0.500000
vt 0.234375 0.500000
vt 0.265625 0.500000
vt 0.296875 0.500000
vt 0.328125 0.500000
vt 0.359375 0.500000
vt 0.390625 0.500000
vt 0.421875 0.500000
vt 0.453125 0.500000
vt 0.484375 0.500000
vt 0.515625 0.500000
vt 0.546875 0.500000
vt 0.578125 0.500000
vt 0.609375 0.500000
vt 0.640625 0.500000
vt 0.671875 0.500000
vt 0.703125 0.500000
vt 0.734375 0.500000
vt 0.765625 0.500000
vt 0.796875 0.500000
vt 0.828125 0.500000
vt 0.859375 0.500000
vt 0.890625 0.500000
vt 0.921875 0.500000
usemtl atlas
f 1/1 2/1 3/1
f 4/1 5/1 6/1
f 7/2 8/2 9/2
f 10/2 11/2 12/2
f 13/2 14/2 15/2
f 16/2 17/2 18/2
f 19/1 20/1 21/1
f 22/1 23/1 24/1
f 25/3 26/3 27/3
f 28/3 29/3 30/3
f 31/2 32/2 33/2
f 34/2 35/2 36/2
f 37/4 38/4 39/4
f 40/4 41/4 42/4
f 43/5 44/5 45/5
f 46/5 47/5 48/5
f 49/5 50/5 51/5
f 52/5 53/5 54/5
f 55/4 56/4 57/4
f 58/4 59/4 60/4
f 61/6 62/6 63/6
f 64/6 65/6 66/6
f 67/5 68/5 69/5
f 70/5 71/5 72/5
f 73/7 74/7 75/7
f 76/7 77/7 78/7
f 79/8 80/8 81/8
f 82/8 83/8 84/8
f 85/8 86/8 87/8
f 88/8 89/8 90/8
f 91/7 92/7 93/7
f 94/7 95/7 96/7
f 97/9 98/9 99/9
f 100/9 101/9 102/9
f 103/8 104/8 105/8
f 106/8 107/8 108/8
f 109/10 110/10 111/10
f 112/10 113/10 114/10
f 115/11 116/11 117/11
f 118/11 119/11 120/11
f 121/11 122/11 123/11
f 124/11 125/11 126/11
f 127/10 128/10 129/10
f 130/10 131/10 132/10
f 133/12 134/12 135/12
f 136/12 137/12 138/12
f 139/11 140/11 141/11
f 142/11 143/11 144/11
f 145/4 146/4 147/4
f 148/4 149/4 150/4
f 151/5 152/5 153/5
f 154/6 155/6 156/6
f 157/6 158/6 159/6
f 160/6 161/6 162/6
f 163/5 164/5 165/5
f 166/6 167/6 168/6
f 169/6 170/6 171/6
f 172/6 173/6 174/6
f 175/5 176/5 177/5
f 178/6 179/6 180/6
f 181/4 182/4 183/4
f 184/4 185/4 186/4
f 187/5 188/5 189/5
f 190/6 191/6 192/6
f 193/4 194/4 195/4
f 196/4 197/4 198/4
f 199/5 200/5 201/5
f 202/6 203/6 204/6
f 205/5 206/5 207/5
f 208/5 209/5 210/5
f 211/5 212/5 213/5
f 214/6 215/6 216/6
f 217/5 218/5 219/5
f 220/5 221/5 222/5
f 223/5 224/5 225/5
f 226/6 227/6 228/6
f 229/4 230/4 231/4
f 232/4 233/4 234/4
f 235/5 236/5 237/5
f 238/6 239/6 240/6
f 241/4 242/4 243/4
f 244/4 245/4 246/4
f 247/5 248/5 249/5
f 250/6 251/6 252/6
f 253/6 254/6 255/6
f 256/6 257/6 258/6
f 259/5 260/5 261/5
f 262/6 263/6 264/6
f 265/6 266/6 267/6
f 268/6 269/6 270/6
f 271/5 272/5 273/5
f 274/6 275/6 276/6
f 277/4 278/4 279/4
f 280/4 281/4 282/4
f 283/5 284/5 285/5
f 286/6 287/6 288/6
f 289/4 290/4 291/4
f 292/4 293/4 294/4
f 295/5 296/5 297/5
f 298/6 299/6 300/6
f 301/5 302/5 303/5
f 304/5 305/5 306/5
f 307/5 308/5 309/5
f 310/6 311/6 312/6
f 313/5 314/5 315/5
f 316/5 317/5 318/5
f 319/5 320/5 321/5
f 322/6 323/6 324/6
f 325/4 326/4 327/4
f 328/4 329/4 330/4
f 331/5 332/5 333/5
f 334/6 335/6 336/6
f 337/7 338/7 339/7
f 340/7 341/7 342/7
f 343/8 344/8 345/8
f 346/8 347/8 348/8
f 349/8 350/8 351/8
f 352/8 353/8 354/8
f 355/7 356/7 357/7
f 358/7 359/7 360/7
f 361/9 362/9 363/9
f 364/9 365/9 366/9
f 367/8 368/8 369/8
f 370/8 371/8 372/8
f 373/13 374/13 375/13
f 376/13 377/13 378/13
f 379/14 380/14 381/14
f 382/14 383/14 384/14
f 385/14 386/14 387/14
f 388/14 389/14 390/14
f 391/13 392/13 393/13
f 394/13 395/13 396/13
f 397/15 398/15 399/15
f 400/15 401/15 402/15
f 403/14 404/14 405/14
f 406/14 407/14 408/14
f 409/1 410/1 411/1
f 412/1 413/1 414/1
f 415/2 416/2 417/2
f 418/3 419/3 420/3
f 421/3 422/3 423/3
f 424/3 425/3 426/3
f 427/2 428/2 429/2
f 430/3 431/3 432/3
f 433/3 434/3 435/3
f 436/3 437/3 438/3
f 439/2 440/2 441/2
f 442/3 443/3 444/3
f 445/1 446/1 447/1
f 448/1 449/1 450/1
f 451/2 452/2 453/2
f 454/3 455/3 456/3
f 457/1 458/1 459/1
f 460/1 461/1 462/1
f 463/2 464/2 465/2
f 466/3 467/3 468/3
f 469/2 470/2 471/2
f 472/2 473/2 474/2
f 475/2 476/2 477/2
f 478/3 479/3 480/3
f 481/2 482/2 483/2
f 484/2 485/2 486/2
f 487/2 488/2 489/2
f 490/3 491/3 492/3
f 493/1 494/1 495/1
f 496/1 497/1 498/1
f 499/2 500/2 501/2
f 502/3 503/3 504/3
f 505/16 506/16 507/16
f 508/16 509/16 510/16
f 511/17 512/17 513/17
f 514/18 515/18 516/18
f 517/18 518/18 519/18
f 520/18 521/18 522/18
f 523/17 524/17 525/17
f 526/18 527/18 528/18
f 529/18 530/18 531/18
f 532/18 533/18 534/18
f 535/17 536/17 537/17
f 538/18 539/18 540/18
f 541/16 542/16 543/16
f 544/16 545/16 546/16
f 547/17 548/17 549/17
f 550/18 551/18 552/18
f 553/16 554/16 555/16
f 556/16 557/16 558/16
f 559/17 560/17 561/17
f 562/18 563/18 564/18
f 565/17 566/17 567/17
f 568/17 569/17 570/17
f 571/17 572/17 573/17
f 574/18 575/18 576/18
f 577/17 578/17 579/17
f 580/17 581/17 582/17
f 583/17 584/17 585/17
f 586/18 587/18 588/18
f 589/16 590/16 591/16
f 592/16 593/16 594/16
f 595/17 596/17 597/17
f 598/18 599/18 600/18
f 601/19 602/19 603/19
f 604/19 605/19 606/19
f 607/20 608/20 609/20
f 610/20 611/20 612/20
f 613/20 614/20 615/20
f 616/20 617/20 618/20
f 619/19 620/19 621/19
f 622/19 623/19 624/19
f 625/21 626/21 627/21
f 628/21 629/21 630/21
f 631/20 632/20 633/20
f 634/20 635/20 636/20
f 637/4 638/4 639/4
f 640/4 641/4 642/4
f 643/5 644/5 645/5
f 646/6 647/6 648/6
f 649/6 650/6 651/6
f 652/6 653/6 654/6
f 655/5 656/5 657/5
f 658/6 659/6 660/6
f 661/6 662/6 663/6
f 664/6 665/6 666/6
f 667/5 668/5 669/5
f 670/6 671/6 672/6
f 673/4 674/4 675/4
f 676/4 677/4 678/4
f 679/5 680/5 681/5
f 682/6 683/6 684/6
f 685/4 686/4 687/4
f 688/4 689/4 690/4
f 691/5 692/5 693/5
f 694/6 695/6 696/6
f 697/5 698/5 699/5
f 700/5 701/5 702/5
f 703/5 704/5 705/5
f 706/6 707/6 708/6
f 709/5 710/5 711/5
f 712/5 713/5 714/5
f 715/5 716/5 717/5
f 718/6 719/6 720/6
f 721/4 722/4 723/4
f 724/4 725/4 726/4
f 727/5 728/5 729/5
f 730/6 731/6 732/6
f 733/4 734/4 735/4
f 736/4 737/4 738/4
f 739/5 740/5 741/5
f 742/6 743/6 744/6
f 745/6 746/6 747/6
f 748/6 749/6 750/6
f 751/5 752/5 753/5
f 754/6 755/6 756/6
f 757/6 758/6 759/6
f 760/6 761/6 762/6
f 763/5 764/5 765/5
f 766/6 767/6 768/6
f 769/4 770/4 771/4
f 772/4 773/4 774/4
f 775/5 776/5 777/5
f 778/6 779/6 780/6
f 781/4 782/4 783/4
f 784/4 785/4 786/4
f 787/5 788/5 789/5
f 790/6 791/6 792/6
f 793/5 794/5 795/5
f 796/5 797/5 798/5
f 799/5 800/5 801/5
f 802/6 803/6 804/6
f 805/5 806/5 807/5
f 808/5 809/5 810/5
f 811/5 812/5 813/5
f 814/6 815/6 816/6
f 817/4 818/4 819/4
f 820/4 821/4 822/4
f 823/5 824/5 825/5
f 826/6 827/6 828/6
f 829/7 830/7 831/7
f 832/7 833/7 834/7
f 835/8 836/8 837/8
f 838/8 839/8 840/8
f 841/8 842/8 843/8
f 844/8 845/8 846/8
f 847/7 848/7 849/7
f 850/7 851/7 852/7
f 853/9 854/9 855/9
f 856/9 857/9 858/9
f 859/8 860/8 861/8
f 862/8 863/8 864/8
f 865/13 866/13 867/13
f 868/13 869/13 870/13
f 871/14 872/14 873/14
f 874/14 875/14 876/14
f 877/14 878/14 879/14
f 880/14 881/14 882/14
f 883/13 884/13 885/13
f 886/13 887/13 888/13
f 889/15 890/15 891/15
f 892/15 893/15 894/15
f 895/14 896/14 897/14
f 898/14 899/14 900/14
f 901/1 902/1 903/1
f 904/1 905/1 906/1
f 907/2 908/2 909/2
f 910/3 911/3 912/3
f 913/3 914/3 915/3
f 916/3 917/3 918/3
f 919/2 920/2 921/2
f 922/3 923/3 924/3
f 925/3 926/3 927/3
f 928/3 929/3 930/3
f 931/2 932/2 933/2
f 934/3 935/3 936/3
f 937/1 938/1 939/1
f 940/1 941/1 942/1
f 943/2 944/2 945/2
f 946/3 947/3 948/3
f 949/1 950/1 951/1
f 952/1 953/1 954/1
f 955/2 956/2 957/2
f 958/3 959/3 960/3
f 961/2 962/2 963/2
f 964/2 965/2 966/2
f 967/2 968/2 969/2
f 970/3 971/3 972/3
f 973/2 974/2 975/2
f 976/2 977/2 978/2
f 979/2 980/2 981/2
f 982/3 983/3 984/3
f 985/1 986/1 987/1
f 988/1 989/1 990/1
f 991/2 992/2 993/2
f 994/3 995/3 996/3
f 997/16 998/16 999/16
f 1000/16 1001/16 1002/16
f 1003/17 1004/17 1005/17
f 1006/18 1007/18 1008/18
f 1009/18 1010/18 1011/18
f 1012/18 1013/18 1014/18
f 1015/17 1016/17 1017/17
f 1018/18 1019/18 1020/18
f 1021/18 1022/18 1023/18
f 1024/18 1025/18 1026/18
f 1027/17 1028/17 1029/17
f 1030/18 1031/18 1032/18
f 1033/16 1034/16 1035/16
f 1036/16 1037/16 1038/16
f 1039/17 1040/17 1041/17
f 1042/18 1043/18 1044/18
f 1045/16 1046/16 1047/16
f 1048/16 1049/16 1050/16
f 1051/17 1052/17 1053/17
f 1054/18 1055/18 1056/18
f 1057/17 1058/17 1059/17
f 1060/17 1061/17 1062/17
f 1063/17 1064/17 1065/17
f 1066/18 1067/18 1068/18
f 1069/17 1070/17 1071/17
f 1072/17 1073/17 1074/17
f 1075/17 1076/17 1077/17
f 1078/18 1079/18 1080/18
f 1081/16 1082/16 1083/16
f 1084/16 1085/16 1086/16
f 1087/17 1088/17 1089/17
f 1090/18 1091/18 1092/18
f 1093/19 1094/19 1095/19
f 1096/19 1097/19 1098/19
f 1099/20 1100/20 1101/20
f 1102/20 1103/20 1104/20
f 1105/20 1106/20 1107/20
f 1108/20 1109/20 1110/20
f 1111/19 1112/19 1113/19
f 1114/19 1115/19 1116/19
f 1117/21 1118/21 1119/21
f 1120/21 1121/21 1122/21
f 1123/20 1124/20 1125/20
f 1126/20 1127/20 1128/20
f 1129/16 1130/16 1131/16
f 1132/16 1133/16 1134/16
f 1135/17 1136/17 1137/17
f 1138/18 1139/18 1140/18
f 1141/18 1142/18 1143/18
f 1144/18 1145/18 1146/18
f 1147/17 1148/17 1149/17
f 1150/18 1151/18 1152/18
f 1153/18 1154/18 1155/18
f 1156/18 1157/18 1158/18
f 1159/17 1160/17 1161/17
f 1162/18 1163/18 1164/18
f 1165/16 1166/16 1167/16
f 1168/16 1169/16 1170/16
f 1171/17 1172/17 1173/17
f 1174/18 1175/18 1176/18
f 1177/16 1178/16 1179/16
f 1180/16 1181/16 1182/16
f 1183/17 1184/17 1185/17
f 1186/18 1187/18 1188/18
f 1189/17 1190/17 1191/17
f 1192/17 1193/17 1194/17
f 1195/17 1196/17 1197/17
f 1198/18 1199/18 1200/18
f 1201/17 1202/17 1203/17
f 1204/17 1205/17 1206/17
f 1207/17 1208/17 1209/17
f 1210/18 1211/18 1212/18
f 1213/16 1214/16 1215/16
f 1216/16 1217/16 1218/16
f 1219/17 1220/17 1221/17
f 1222/18 1223/18 1224/18
f 1225/18 1226/18 1227/18
f 1228/18 1229/18 1230/18
f 1231/18 1232/18 1233/18
f 1234/18 1235/18 1236/18
f 1237/18 1238/18 1239/18
f 1240/18 1241/18 1242/18
f 1243/18 1244/18 1245/18
f 1246/18 1247/18 1248/18
f 1249/18 1250/18 1251/18
f 1252/18 1253/18 1254/18
f 1255/18 1256/18 1257/18
f 1258/18 1259/18 1260/18
f 1261/18 1262/18 1263/18
f 1264/18 1265/18 1266/18
f 1267/18 1268/18 1269/18
f 1270/18 1271/18 1272/18
f 1273/18 1274/18 1275/18
f 1276/18 1277/18 1278/18
f 1279/18 1280/18 1281/18
f 1282/18 1283/18 1284/18
f 1285/18 1286/18 1287/18
f 1288/18 1289/18 1290/18
f 1291/18 1292/18 1293/18
f 1294/18 1295/18 1296/18
f 1297/16 1298/16 1299/16
f 1300/16 1301/16 1302/16
f 1303/16 1304/16 1305/16
f 1306/16 1307/16 1308/16
f 1309/16 1310/16 1311/16
f 1312/16 1313/16 1314/16
f 1315/16 1316/16 1317/16
f 1318/16 1319/16 1320/16
f 1321/16 1322/16 1323/16
f 1324/16 1325/16 1326/16
f 1327/16 1328/16 1329/16
f 1330/16 1331/16 1332/16
f 1333/16 1334/16 1335/16
f 1336/16 1337/16 1338/16
f 1339/16 1340/16 1341/16
f 1342/16 1343/16 1344/16
f 1345/16 1346/16 1347/16
f 1348/16 1349/16 1350/16
f 1351/16 1352/16 1353/16
f 1354/16 1355/16 1356/16
f 1357/16 1358/16 1359/16
f 1360/16 1361/16 1362/16
f 1363/16 1364/16 1365/16
f 1366/16 1367/16 1368/16
f 1369/16 1370/16 1371/16
f 1372/16 1373/16 1374/16
f 1375/16 1376/16 1377/16
f 1378/16 1379/16 1380/16
f 1381/16 1382/16 1383/16
f 1384/16 1385/16 1386/16
f 1387/16 1388/16 1389/16
f 1390/16 1391/16 1392/16
f 1393/16 1394/16 1395/16
f 1396/16 1397/16 1398/16
f 1399/16 1400/16 1401/16
f 1402/16 1403/16 1404/16
f 1405/16 1406/16 1407/16
f 1408/16 1409/16 1410/16
f 1411/16 1412/16 1413/16
f 1414/16 1415/16 1416/16
f 1417/16 1418/16 1419/16
f 1420/16 1421/16 1422/16
f 1423/16 1424/16 1425/16
f 1426/16 1427/16 1428/16
f 1429/16 1430/16 1431/16
f 1432/16 1433/16 1434/16
f 1435/16 1436/16 1437/16
f 1438/16 1439/16 1440/16
f 1441/16 1442/16 1443/16
f 1444/16 1445/16 1446/16
f 1447/16 1448/16 1449/16
f 1450/16 1451/16 1452/16
f 1453/16 1454/16 1455/16
f 1456/16 1457/16 1458/16
f 1459/16 1460/16 1461/16
f 1462/16 1463/16 1464/16
f 1465/16 1466/16 1467/16
f 1468/16 1469/16 1470/16
f 1471/16 1472/16 1473/16
f 1474/16 1475/16 1476/16
f 1477/16 1478/16 1479/16
f 1480/16 1481/16 1482/16
f 1483/16 1484/16 1485/16
f 1486/16 1487/16 1488/16
f 1489/16 1490/16 1491/16
f 1492/16 1493/16 1494/16
f 1495/16 1496/16 1497/16
f 1498/16 1499/16 1500/16
f 1501/16 1502/16 1503/16
f 1504/16 1505/16 1506/16
f 1507/16 1508/16 1509/16
f 1510/16 1511/16 1512/16
f 1513/17 1514/17 1515/17
f 1516/17 1517/17 1518/17
f 1519/17 1520/17 1521/17
f 1522/17 1523/17 1524/17
f 1525/17 1526/17 1527/17
f 1528/17 1529/17 1530/17
f 1531/17 1532/17 1533/17
f 1534/17 1535/17 1536/17
f 1537/17 1538/17 1539/17
f 1540/17 1541/17 1542/17
f 1543/17 1544/17 1545/17
f 1546/17 1547/17 1548/17
f 1549/17 1550/17 1551/17
f 1552/17 1553/17 1554/17
f 1555/17 1556/17 1557/17
f 1558/17 1559/17 1560/17
f 1561/17 1562/17 1563/17
f 1564/17 1565/17 1566/17
f 1567/17 1568/17 1569/17
f 1570/17 1571/17 1572/17
f 1573/17 1574/17 1575/17
f 1576/17 1577/17 1578/17
f 1579/17 1580/17 1581/17
f 1582/17 1583/17 1584/17
f 1585/17 1586/17 1587/17
f 1588/17 1589/17 1590/17
f 1591/17 1592/17 1593/17
f 1594/17 1595/17 1596/17
f 1597/17 1598/17 1599/17
f 1600/17 1601/17 1602/17
f 1603/17 1604/17 1605/17
f 1606/17 1607/17 1608/17
f 1609/17 1610/17 1611/17
f 1612/17 1613/17 1614/17
f 1615/17 1616/17 1617/17
f 1618/17 1619/17 1620/17
f 1621/17 1622/17 1623/17
f 1624/17 1625/17 1626/17
f 1627/17 1628/17 1629/17
f 1630/17 1631/17 1632/17
f 1633/17 1634/17 1635/17
f 1636/17 1637/17 1638/17
f 1639/17 1640/17 1641/17
f 1642/17 1643/17 1644/17
f 1645/17 1646/17 1647/17
f 1648/17 1649/17 1650/17
f 1651/17 1652/17 1653/17
f 1654/17 1655/17 1656/17
f 1657/4 1658/4 1659/4
f 1660/4 1661/4 1662/4
f 1663/5 1664/5 1665/5
f 1666/5 1667/5 1668/5
f 1669/5 1670/5 1671/5
f 1672/5 1673/5 1674/5
f 1675/4 1676/4 1677/4
f 1678/4 1679/4 1680/4
f 1681/6 1682/6 1683/6
f 1684/6 1685/6 1686/6
f 1687/5 1688/5 1689/5
f 1690/5 1691/5 1692/5
f 1693/4 1694/4 1695/4
f 1696/4 1697/4 1698/4
f 1699/5 1700/5 1701/5
f 1702/5 1703/5 1704/5
f 1705/5 1706/5 1707/5
f 1708/5 1709/5 1710/5
f 1711/4 1712/4 1713/4
f 1714/4 1715/4 1716/4
f 1717/6 1718/6 1719/6
f 1720/6 1721/6 1722/6
f 1723/5 1724/5 1725/5
f 1726/5 1727/5 1728/5
f 1729/7 1730/7 1731/7
f 1732/7 1733/7 1734/7
f 1735/8 1736/8 1737/8
f 1738/8 1739/8 1740/8
f 1741/8 1742/8 1743/8
f 1744/8 1745/8 1746/8
f 1747/7 1748/7 1749/7
f 1750/7 1751/7 1752/7
f 1753/9 1754/9 1755/9
f 1756/9 1757/9 1758/9
f 1759/8 1760/8 1761/8
f 1762/8 1763/8 1764/8
f 1765/4 1766/4 1767/4
f 1768/4 1769/4 1770/4
f 1771/5 1772/5 1773/5
f 1774/5 1775/5 1776/5
f 1777/5 1778/5 1779/5
f 1780/5 1781/5 1782/5
f 1783/4 1784/4 1785/4
f 1786/4 1787/4 1788/4
f 1789/6 1790/6 1791/6
f 1792/6 1793/6 1794/6
f 1795/5 1796/5 1797/5
f 1798/5 1799/5 1800/5
f 1801/7 1802/7 1803/7
f 1804/7 1805/7 1806/7
f 1807/8 1808/8 1809/8
f 1810/8 1811/8 1812/8
f 1813/8 1814/8 1815/8
f 1816/8 1817/8 1818/8
f 1819/7 1820/7 1821/7
f 1822/7 1823/7 1824/7
f 1825/9 1826/9 1827/9
f 1828/9 1829/9 1830/9
f 1831/8 1832/8 1833/8
f 1834/8 1835/8 1836/8
f 1837/7 1838/7 1839/7
f 1840/7 1841/7 1842/7
f 1843/8 1844/8 1845/8
f 1846/8 1847/8 1848/8
f 1849/8 1850/8 1851/8
f 1852/8 1853/8 1854/8
f 1855/7 1856/7 1857/7
f 1858/7 1859/7 1860/7
f 1861/9 1862/9 1863/9
f 1864/9 1865/9 1866/9
f 1867/8 1868/8 1869/8
f 1870/8 1871/8 1872/8
f 1873/4 1874/4 1875/4
f 1876/4 1877/4 1878/4
f 1879/5 1880/5 1881/5
f 1882/5 1883/5 1884/5
f 1885/5 1886/5 1887/5
f 1888/5 1889/5 1890/5
f 1891/4 1892/4 1893/4
f 1894/4 1895/4 1896/4
f 1897/6 1898/6 1899/6
f 1900/6 1901/6 1902/6
f 1903/5 1904/5 1905/5
f 1906/5 1907/5 1908/5
f 1909/7 1910/7 1911/7
f 1912/7 1913/7 1914/7
f 1915/8 1916/8 1917/8
f 1918/8 1919/8 1920/8
f 1921/8 1922/8 1923/8
f 1924/8 1925/8 1926/8
f 1927/7 1928/7 1929/7
f 1930/7 1931/7 1932/7
f 1933/9 1934/9 1935/9
f 1936/9 1937/9 1938/9
f 1939/8 1940/8 1941/8
f 1942/8 1943/8 1944/8
f 1945/22 1946/22 1947/22
f 1948/22 1949/22 1950/22
f 1951/23 1952/23 1953/23
f 1954/23 1955/23 1956/23
f 1957/23 1958/23 1959/23
f 1960/23 1961/23 1962/23
f 1963/22 1964/22 1965/22
f 1966/22 1967/22 1968/22
f 1969/24 1970/24 1971/24
f 1972/24 1973/24 1974/24
f 1975/23 1976/23 1977/23
f 1978/23 1979/23 1980/23
f 1981/25 1982/25 1983/25
f 1984/25 1985/25 1986/25
f 1987/25 1988/25 1989/25
f 1990/25 1991/25 1992/25
f 1993/25 1994/25 1995/25
f 1996/25 1997/25 1998/25
f 1999/25 2000/25 2001/25
f 2002/25 2003/25 2004/25
f 2005/25 2006/25 2007/25
f 2008/25 2009/25 2010/25
f 2011/25 2012/25 2013/25
f 2014/25 2015/25 2016/25
f 2017/25 2018/25 2019/25
f 2020/25 2021/25 2022/25
f 2023/25 2024/25 2025/25
f 2026/25 2027/25 2028/25
f 2029/25 2030/25 2031/25
f 2032/25 2033/25 2034/25
f 2035/25 2036/25 2037/25
f 2038/25 2039/25 2040/25
f 2041/25 2042/25 2043/25
f 2044/25 2045/25 2046/25
f 2047/25 2048/25 2049/25
f 2050/25 2051/25 2052/25
f 2053/26 2054/26 2055/26
f 2056/26 2057/26 2058/26
f 2059/26 2060/26 2061/26
f 2062/26 2063/26 2064/26
f 2065/26 2066/26 2067/26
f 2068/26 2069/26 2070/26
f 2071/26 2072/26 2073/26
f 2074/26 2075/26 2076/26
f 2077/26 2078/26 2079/26
f 2080/26 2081/26 2082/26
f 2083/26 2084/26 2085/26
f 2086/26 2087/26 2088/26
f 2089/26 2090/26 2091/26
f 2092/26 2093/26 2094/26
f 2095/26 2096/26 2097/26
f 2098/26 2099/26 2100/26
f 2101/26 2102/26 2103/26
f 2104/26 2105/26 2106/26
f 2107/26 2108/26 2109/26
f 2110/26 2111/26 2112/26
f 2113/26 2114/26 2115/26
f 2116/26 2117/26 2118/26
f 2119/26 2120/26 2121/26
f 2122/26 2123/26 2124/26
f 2125/26 2126/26 2127/26
f 2128/26 2129/26 2130/26
f 2131/26 2132/26 2133/26
f 2134/26 2135/26 2136/26
f 2137/26 2138/26 2139/26
f 2140/26 2141/26 2142/26
f 2143/26 2144/26 2145/26
f 2146/26 2147/26 2148/26
f 2149/26 2150/26 2151/26
f 2152/26 2153/26 2154/26
f 2155/26 2156/26 2157/26
f 2158/26 2159/26 2160/26
f 2161/26 2162/26 2163/26
f 2164/26 2165/26 2166/26
f 2167/26 2168/26 2169/26
f 2170/26 2171/26 2172/26
f 2173/26 2174/26 2175/26
f 2176/26 2177/26 2178/26
f 2179/26 2180/26 2181/26
f 2182/26 2183/26 2184/26
f 2185/26 2186/26 2187/26
f 2188/26 2189/26 2190/26
f 2191/26 2192/26 2193/26
f 2194/26 2195/26 2196/26
f 2197/26 2198/26 2199/26
f 2200/26 2201/26 2202/26
f 2203/27 2204/27 2205/27
f 2206/27 2207/27 2208/27
f 2209/27 2210/27 2211/27
f 2212/27 2213/27 2214/27
f 2215/26 2216/26 2217/26
f 2218/26 2219/26 2220/26
f 2221/25 2222/25 2223/25
f 2224/25 2225/25 2226/25
f 2227/27 2228/27 2229/27
f 2230/27 2231/27 2232/27
f 2233/28 2234/28 2235/28
f 2236/28 2237/28 2238/28
f 2239/29 2240/29 2241/29
f 2242/29 2243/29 2244/29
f 2245/29 2246/29 2247/29
f 2248/29 2249/29 2250/29
f 2251/28 2252/28 2253/28
f 2254/28 2255/28 2256/28
f 2257/30 2258/30 2259/30
f 2260/30 2261/30 2262/30
f 2263/29 2264/29 2265/29
f 2266/29 2267/29 2268/29
f 2269/28 2270/28 2271/28
f 2272/28 2273/28 2274/28
f 2275/29 2276/29 2277/29
f 2278/29 2279/29 2280/29
f 2281/29 2282/29 2283/29
f 2284/29 2285/29 2286/29
f 2287/28 2288/28 2289/28
f 2290/28 2291/28 2292/28
f 2293/30 2294/30 2295/30
f 2296/30 2297/30 2298/30
f 2299/29 2300/29 2301/29
f 2302/29 2303/29 2304/29
